solid OpenSCAD_Model
  facet normal 0 0 1
    outer loop
      vertex 25.5 6.5 20
      vertex 22.5 3 20
      vertex 25.5 -6.5 20
    endloop
  endfacet
  facet normal 0 0 1
    outer loop
      vertex 25.5 6.5 20
      vertex 16.5 3 20
      vertex 22.5 3 20
    endloop
  endfacet
  facet normal 0 0 1
    outer loop
      vertex 16.5 3 20
      vertex 13.5 0 20
      vertex 16.5 -3 20
    endloop
  endfacet
  facet normal 0 0 1
    outer loop
      vertex 16.5 3 20
      vertex 13.205 2.80681 20
      vertex 13.5 0 20
    endloop
  endfacet
  facet normal -0 0 1
    outer loop
      vertex 11.7503 6.5 20
      vertex 16.5 3 20
      vertex 25.5 6.5 20
    endloop
  endfacet
  facet normal 0 0 1
    outer loop
      vertex 16.5 3 20
      vertex 12.3329 5.49094 20
      vertex 13.205 2.80681 20
    endloop
  endfacet
  facet normal 0 0 1
    outer loop
      vertex 16.5 3 20
      vertex 11.7503 6.5 20
      vertex 12.3329 5.49094 20
    endloop
  endfacet
  facet normal -0 0 1
    outer loop
      vertex 22.5 -3 20
      vertex 25.5 -6.5 20
      vertex 22.5 3 20
    endloop
  endfacet
  facet normal -0 0 1
    outer loop
      vertex 16.5 -3 20
      vertex 25.5 -6.5 20
      vertex 22.5 -3 20
    endloop
  endfacet
  facet normal -0 0 1
    outer loop
      vertex 13.205 -2.80681 20
      vertex 16.5 -3 20
      vertex 13.5 0 20
    endloop
  endfacet
  facet normal 0 0 1
    outer loop
      vertex 12.3329 -5.49094 20
      vertex 16.5 -3 20
      vertex 13.205 -2.80681 20
    endloop
  endfacet
  facet normal 0 0 1
    outer loop
      vertex 11.7503 -6.5 20
      vertex 16.5 -3 20
      vertex 12.3329 -5.49094 20
    endloop
  endfacet
  facet normal 0 0 1
    outer loop
      vertex 16.5 -3 20
      vertex 11.7503 -6.5 20
      vertex 25.5 -6.5 20
    endloop
  endfacet
  facet normal 1 -0 0
    outer loop
      vertex 25.5 -6.5 20
      vertex 25.5 6.5 0
      vertex 25.5 6.5 20
    endloop
  endfacet
  facet normal 1 0 0
    outer loop
      vertex 25.5 6.5 0
      vertex 25.5 -6.5 20
      vertex 25.5 -6.5 0
    endloop
  endfacet
  facet normal 0 1 -0
    outer loop
      vertex 25.5 6.5 0
      vertex 11.7503 6.5 20
      vertex 25.5 6.5 20
    endloop
  endfacet
  facet normal 0 1 0
    outer loop
      vertex 11.7503 6.5 20
      vertex 25.5 6.5 0
      vertex 11.7503 6.5 0
    endloop
  endfacet
  facet normal 0 0 -1
    outer loop
      vertex 25.5 -6.5 0
      vertex 13.5 0 0
      vertex 25.5 6.5 0
    endloop
  endfacet
  facet normal 0 0 -1
    outer loop
      vertex 25.5 -6.5 0
      vertex 13.205 -2.80681 0
      vertex 13.5 0 0
    endloop
  endfacet
  facet normal 0 0 -1
    outer loop
      vertex 25.5 -6.5 0
      vertex 12.3329 -5.49094 0
      vertex 13.205 -2.80681 0
    endloop
  endfacet
  facet normal 0 -0 -1
    outer loop
      vertex 12.3329 -5.49094 0
      vertex 25.5 -6.5 0
      vertex 11.7503 -6.5 0
    endloop
  endfacet
  facet normal 0 0 -1
    outer loop
      vertex 13.205 2.80681 0
      vertex 25.5 6.5 0
      vertex 13.5 0 0
    endloop
  endfacet
  facet normal 0 0 -1
    outer loop
      vertex 12.3329 5.49094 0
      vertex 25.5 6.5 0
      vertex 13.205 2.80681 0
    endloop
  endfacet
  facet normal -0 0 -1
    outer loop
      vertex 25.5 6.5 0
      vertex 12.3329 5.49094 0
      vertex 11.7503 6.5 0
    endloop
  endfacet
  facet normal 0 -1 0
    outer loop
      vertex 11.7503 -6.5 0
      vertex 25.5 -6.5 20
      vertex 11.7503 -6.5 20
    endloop
  endfacet
  facet normal 0 -1 -0
    outer loop
      vertex 25.5 -6.5 20
      vertex 11.7503 -6.5 0
      vertex 25.5 -6.5 0
    endloop
  endfacet
  facet normal -0.994522 -0.104529 0
    outer loop
      vertex 13.5 0 0
      vertex 13.205 2.80681 20
      vertex 13.205 2.80681 0
    endloop
  endfacet
  facet normal -0.994522 -0.104529 0
    outer loop
      vertex 13.205 2.80681 20
      vertex 13.5 0 0
      vertex 13.5 0 20
    endloop
  endfacet
  facet normal -0.951056 0.309017 0
    outer loop
      vertex 12.3329 -5.49094 0
      vertex 13.205 -2.80681 20
      vertex 13.205 -2.80681 0
    endloop
  endfacet
  facet normal -0.951056 0.309017 0
    outer loop
      vertex 13.205 -2.80681 20
      vertex 12.3329 -5.49094 0
      vertex 12.3329 -5.49094 20
    endloop
  endfacet
  facet normal -0.866025 -0.5 0
    outer loop
      vertex 12.3329 5.49094 0
      vertex 11.7503 6.5 20
      vertex 11.7503 6.5 0
    endloop
  endfacet
  facet normal -0.866025 -0.5 0
    outer loop
      vertex 11.7503 6.5 20
      vertex 12.3329 5.49094 0
      vertex 12.3329 5.49094 20
    endloop
  endfacet
  facet normal -0.951056 -0.309017 0
    outer loop
      vertex 13.205 2.80681 0
      vertex 12.3329 5.49094 20
      vertex 12.3329 5.49094 0
    endloop
  endfacet
  facet normal -0.951056 -0.309017 0
    outer loop
      vertex 12.3329 5.49094 20
      vertex 13.205 2.80681 0
      vertex 13.205 2.80681 20
    endloop
  endfacet
  facet normal -0.994522 0.104529 0
    outer loop
      vertex 13.205 -2.80681 0
      vertex 13.5 0 20
      vertex 13.5 0 0
    endloop
  endfacet
  facet normal -0.994522 0.104529 0
    outer loop
      vertex 13.5 0 20
      vertex 13.205 -2.80681 0
      vertex 13.205 -2.80681 20
    endloop
  endfacet
  facet normal -0.866025 0.5 0
    outer loop
      vertex 11.7503 -6.5 0
      vertex 12.3329 -5.49094 20
      vertex 12.3329 -5.49094 0
    endloop
  endfacet
  facet normal -0.866025 0.5 0
    outer loop
      vertex 12.3329 -5.49094 20
      vertex 11.7503 -6.5 0
      vertex 11.7503 -6.5 20
    endloop
  endfacet
  facet normal 1 -0 0
    outer loop
      vertex 16.5 -3 20
      vertex 16.5 3 5
      vertex 16.5 3 20
    endloop
  endfacet
  facet normal 1 0 0
    outer loop
      vertex 16.5 3 5
      vertex 16.5 -3 20
      vertex 16.5 -3 5
    endloop
  endfacet
  facet normal -1 0 0
    outer loop
      vertex 22.5 -3 5
      vertex 22.5 3 20
      vertex 22.5 3 5
    endloop
  endfacet
  facet normal -1 -0 0
    outer loop
      vertex 22.5 3 20
      vertex 22.5 -3 5
      vertex 22.5 -3 20
    endloop
  endfacet
  facet normal 0 -1 0
    outer loop
      vertex 16.5 3 5
      vertex 22.5 3 20
      vertex 16.5 3 20
    endloop
  endfacet
  facet normal 0 -1 -0
    outer loop
      vertex 22.5 3 20
      vertex 16.5 3 5
      vertex 22.5 3 5
    endloop
  endfacet
  facet normal -0 0 1
    outer loop
      vertex 16.5 3 5
      vertex 22.5 -3 5
      vertex 22.5 3 5
    endloop
  endfacet
  facet normal 0 0 1
    outer loop
      vertex 22.5 -3 5
      vertex 16.5 3 5
      vertex 16.5 -3 5
    endloop
  endfacet
  facet normal 0 1 -0
    outer loop
      vertex 22.5 -3 5
      vertex 16.5 -3 20
      vertex 22.5 -3 20
    endloop
  endfacet
  facet normal 0 1 0
    outer loop
      vertex 16.5 -3 20
      vertex 22.5 -3 5
      vertex 16.5 -3 5
    endloop
  endfacet
  facet normal -1 0 0
    outer loop
      vertex 20 10 0
      vertex 20 100 3
      vertex 20 100 0
    endloop
  endfacet
  facet normal -1 -0 0
    outer loop
      vertex 20 100 3
      vertex 20 10 0
      vertex 20 10 3
    endloop
  endfacet
  facet normal -0 0 1
    outer loop
      vertex 28.7699 20.8558 3
      vertex 34 10 3
      vertex 34 100 3
    endloop
  endfacet
  facet normal 0 0 1
    outer loop
      vertex 34 10 3
      vertex 28.7699 20.8558 3
      vertex 30.8558 15.2301 3
    endloop
  endfacet
  facet normal -0 0 1
    outer loop
      vertex 20 100 3
      vertex 28.7699 20.8558 3
      vertex 34 100 3
    endloop
  endfacet
  facet normal 0 0 1
    outer loop
      vertex 28.7699 20.8558 3
      vertex 20 100 3
      vertex 23.1442 18.7699 3
    endloop
  endfacet
  facet normal -0 0 1
    outer loop
      vertex 25.2301 13.1442 3
      vertex 34 10 3
      vertex 30.8558 15.2301 3
    endloop
  endfacet
  facet normal 0 0 1
    outer loop
      vertex 25.2301 13.1442 3
      vertex 20 10 3
      vertex 34 10 3
    endloop
  endfacet
  facet normal 0 0 1
    outer loop
      vertex 23.1442 18.7699 3
      vertex 20 10 3
      vertex 25.2301 13.1442 3
    endloop
  endfacet
  facet normal 0 0 1
    outer loop
      vertex 20 10 3
      vertex 23.1442 18.7699 3
      vertex 20 100 3
    endloop
  endfacet
  facet normal 1 -0 0
    outer loop
      vertex 34 10 3
      vertex 34 100 0
      vertex 34 100 3
    endloop
  endfacet
  facet normal 1 0 0
    outer loop
      vertex 34 100 0
      vertex 34 10 3
      vertex 34 10 0
    endloop
  endfacet
  facet normal 0 0 -1
    outer loop
      vertex 28.7699 20.8558 0
      vertex 34 10 0
      vertex 30.8558 15.2301 0
    endloop
  endfacet
  facet normal 0 0 -1
    outer loop
      vertex 34 10 0
      vertex 25.2301 13.1442 0
      vertex 30.8558 15.2301 0
    endloop
  endfacet
  facet normal -0 0 -1
    outer loop
      vertex 25.2301 13.1442 0
      vertex 20 10 0
      vertex 23.1442 18.7699 0
    endloop
  endfacet
  facet normal 0 0 -1
    outer loop
      vertex 20 10 0
      vertex 25.2301 13.1442 0
      vertex 34 10 0
    endloop
  endfacet
  facet normal 0 0 -1
    outer loop
      vertex 34 10 0
      vertex 28.7699 20.8558 0
      vertex 34 100 0
    endloop
  endfacet
  facet normal 0 0 -1
    outer loop
      vertex 20 100 0
      vertex 28.7699 20.8558 0
      vertex 23.1442 18.7699 0
    endloop
  endfacet
  facet normal 0 0 -1
    outer loop
      vertex 20 100 0
      vertex 23.1442 18.7699 0
      vertex 20 10 0
    endloop
  endfacet
  facet normal 0 0 -1
    outer loop
      vertex 28.7699 20.8558 0
      vertex 20 100 0
      vertex 34 100 0
    endloop
  endfacet
  facet normal 0 -1 0
    outer loop
      vertex 20 10 0
      vertex 34 10 3
      vertex 20 10 3
    endloop
  endfacet
  facet normal 0 -1 -0
    outer loop
      vertex 34 10 3
      vertex 20 10 0
      vertex 34 10 0
    endloop
  endfacet
  facet normal 0 1 -0
    outer loop
      vertex 34 100 0
      vertex 20 100 3
      vertex 34 100 3
    endloop
  endfacet
  facet normal 0 1 0
    outer loop
      vertex 20 100 3
      vertex 34 100 0
      vertex 20 100 0
    endloop
  endfacet
  facet normal -0.937622 -0.347658 0
    outer loop
      vertex 30.8558 15.2301 0
      vertex 28.7699 20.8558 3
      vertex 28.7699 20.8558 0
    endloop
  endfacet
  facet normal -0.937622 -0.347658 0
    outer loop
      vertex 28.7699 20.8558 3
      vertex 30.8558 15.2301 0
      vertex 30.8558 15.2301 3
    endloop
  endfacet
  facet normal 0.347657 -0.937622 0
    outer loop
      vertex 23.1442 18.7699 0
      vertex 28.7699 20.8558 3
      vertex 23.1442 18.7699 3
    endloop
  endfacet
  facet normal 0.347657 -0.937622 0
    outer loop
      vertex 28.7699 20.8558 3
      vertex 23.1442 18.7699 0
      vertex 28.7699 20.8558 0
    endloop
  endfacet
  facet normal 0.937622 0.347658 0
    outer loop
      vertex 25.2301 13.1442 3
      vertex 23.1442 18.7699 0
      vertex 23.1442 18.7699 3
    endloop
  endfacet
  facet normal 0.937622 0.347658 0
    outer loop
      vertex 23.1442 18.7699 0
      vertex 25.2301 13.1442 3
      vertex 25.2301 13.1442 0
    endloop
  endfacet
  facet normal -0.347657 0.937622 0
    outer loop
      vertex 30.8558 15.2301 0
      vertex 25.2301 13.1442 3
      vertex 30.8558 15.2301 3
    endloop
  endfacet
  facet normal -0.347657 0.937622 0
    outer loop
      vertex 25.2301 13.1442 3
      vertex 30.8558 15.2301 0
      vertex 25.2301 13.1442 0
    endloop
  endfacet
  facet normal -1 0 0
    outer loop
      vertex -3 -20 0
      vertex -3 20 6
      vertex -3 20 0
    endloop
  endfacet
  facet normal -1 -0 0
    outer loop
      vertex -3 20 6
      vertex -3 -20 0
      vertex -3 -20 6
    endloop
  endfacet
  facet normal 0 -1 0
    outer loop
      vertex -3 -20 0
      vertex 3 -20 6
      vertex -3 -20 6
    endloop
  endfacet
  facet normal 0 -1 -0
    outer loop
      vertex 3 -20 6
      vertex -3 -20 0
      vertex 3 -20 0
    endloop
  endfacet
  facet normal 1 -0 0
    outer loop
      vertex 3 -20 6
      vertex 3 20 0
      vertex 3 20 6
    endloop
  endfacet
  facet normal 1 0 0
    outer loop
      vertex 3 20 0
      vertex 3 -20 6
      vertex 3 -20 0
    endloop
  endfacet
  facet normal -0 0 1
    outer loop
      vertex -3 20 6
      vertex 3 -20 6
      vertex 3 20 6
    endloop
  endfacet
  facet normal 0 0 1
    outer loop
      vertex 3 -20 6
      vertex -3 20 6
      vertex -3 -20 6
    endloop
  endfacet
  facet normal 0 1 -0
    outer loop
      vertex 3 20 0
      vertex -3 20 6
      vertex 3 20 6
    endloop
  endfacet
  facet normal 0 1 0
    outer loop
      vertex -3 20 6
      vertex 3 20 0
      vertex -3 20 0
    endloop
  endfacet
  facet normal 0 0 -1
    outer loop
      vertex -3 -20 0
      vertex 3 20 0
      vertex 3 -20 0
    endloop
  endfacet
  facet normal -0 0 -1
    outer loop
      vertex 3 20 0
      vertex -3 -20 0
      vertex -3 20 0
    endloop
  endfacet
endsolid OpenSCAD_Model
