solid OpenSCAD_Model
  facet normal -0.994522 -0.104529 0
    outer loop
      vertex 11.5 0 3
      vertex 11.2487 2.39098 35
      vertex 11.2487 2.39098 3
    endloop
  endfacet
  facet normal -0.994522 -0.104529 0
    outer loop
      vertex 11.2487 2.39098 35
      vertex 11.5 0 3
      vertex 11.5 0 35
    endloop
  endfacet
  facet normal 0 -1 0
    outer loop
      vertex 0 11.437 35
      vertex 1.20208 11.437 0.601038
      vertex 1.20208 11.437 35
    endloop
  endfacet
  facet normal -0 -1 0
    outer loop
      vertex 1.20208 11.437 0.601038
      vertex 0 11.437 35
      vertex 0 11.437 0
    endloop
  endfacet
  facet normal -0.743145 -0.66913 0
    outer loop
      vertex 9.30369 6.75953 2
      vertex 7.695 8.54617 35
      vertex 7.695 8.54617 2
    endloop
  endfacet
  facet normal -0.743145 -0.66913 0
    outer loop
      vertex 7.695 8.54617 35
      vertex 9.30369 6.75953 2
      vertex 9.30369 6.75953 35
    endloop
  endfacet
  facet normal -0.951057 -0.309017 -0
    outer loop
      vertex 11.2487 2.39098 3
      vertex 10.5058 4.67747 2
      vertex 11.2487 2.39098 2
    endloop
  endfacet
  facet normal -0.951057 -0.309017 0
    outer loop
      vertex 10.5058 4.67747 2
      vertex 11.2487 2.39098 3
      vertex 10.5058 4.67747 35
    endloop
  endfacet
  facet normal -0.951057 -0.309017 -2.30236e-09
    outer loop
      vertex 11.2487 2.39098 3
      vertex 11.2487 2.39098 35
      vertex 10.5058 4.67747 35
    endloop
  endfacet
  facet normal -0.866025 0.5 0
    outer loop
      vertex 9.30369 -6.75953 2
      vertex 10.5058 -4.67747 35
      vertex 10.5058 -4.67747 2
    endloop
  endfacet
  facet normal -0.866025 0.5 0
    outer loop
      vertex 10.5058 -4.67747 35
      vertex 9.30369 -6.75953 2
      vertex 9.30369 -6.75953 35
    endloop
  endfacet
  facet normal -0.866025 -0.5 0
    outer loop
      vertex 10.5058 4.67747 2
      vertex 9.30369 6.75953 35
      vertex 9.30369 6.75953 2
    endloop
  endfacet
  facet normal -0.866025 -0.5 0
    outer loop
      vertex 9.30369 6.75953 35
      vertex 10.5058 4.67747 2
      vertex 10.5058 4.67747 35
    endloop
  endfacet
  facet normal -0.406736 -0.913546 -6.21503e-09
    outer loop
      vertex 3.55369 10.9371 35
      vertex 4 10.7384 2
      vertex 5.75 9.95929 35
    endloop
  endfacet
  facet normal -0.406736 -0.913546 0
    outer loop
      vertex 3.55369 10.9371 1.77685
      vertex 4 10.7384 2
      vertex 3.55369 10.9371 35
    endloop
  endfacet
  facet normal -0.406737 -0.913545 -0
    outer loop
      vertex 5.75 9.95929 35
      vertex 4 10.7384 2
      vertex 5.75 9.95929 2
    endloop
  endfacet
  facet normal -0.207912 -0.978148 0
    outer loop
      vertex 1.20208 11.437 35
      vertex 3.55369 10.9371 1.77685
      vertex 3.55369 10.9371 35
    endloop
  endfacet
  facet normal -0.207912 -0.978148 0
    outer loop
      vertex 3.55369 10.9371 1.77685
      vertex 1.20208 11.437 35
      vertex 1.20208 11.437 0.601038
    endloop
  endfacet
  facet normal -0.587785 -0.809017 0
    outer loop
      vertex 5.75 9.95929 2
      vertex 7.695 8.54617 35
      vertex 5.75 9.95929 35
    endloop
  endfacet
  facet normal -0.587785 -0.809017 -0
    outer loop
      vertex 7.695 8.54617 35
      vertex 5.75 9.95929 2
      vertex 7.695 8.54617 2
    endloop
  endfacet
  facet normal 0 0 1
    outer loop
      vertex 11.2487 2.39098 2
      vertex 11.2487 -2.39098 2
      vertex 11.5 0 2
    endloop
  endfacet
  facet normal 0 0 1
    outer loop
      vertex 10.5058 4.67747 2
      vertex 11.2487 -2.39098 2
      vertex 11.2487 2.39098 2
    endloop
  endfacet
  facet normal 0 0 1
    outer loop
      vertex 10.5058 4.67747 2
      vertex 10.5058 -4.67747 2
      vertex 11.2487 -2.39098 2
    endloop
  endfacet
  facet normal 0 0 1
    outer loop
      vertex 9.30369 6.75953 2
      vertex 10.5058 -4.67747 2
      vertex 10.5058 4.67747 2
    endloop
  endfacet
  facet normal 0 0 1
    outer loop
      vertex 9.30369 6.75953 2
      vertex 9.30369 -6.75953 2
      vertex 10.5058 -4.67747 2
    endloop
  endfacet
  facet normal 0 0 1
    outer loop
      vertex 7.695 8.54617 2
      vertex 9.30369 -6.75953 2
      vertex 9.30369 6.75953 2
    endloop
  endfacet
  facet normal 0 0 1
    outer loop
      vertex 7.695 8.54617 2
      vertex 7.695 -8.54617 2
      vertex 9.30369 -6.75953 2
    endloop
  endfacet
  facet normal 0 0 1
    outer loop
      vertex 4 10.7384 2
      vertex 7.695 8.54617 2
      vertex 5.75 9.95929 2
    endloop
  endfacet
  facet normal 0 0 1
    outer loop
      vertex 7.695 8.54617 2
      vertex 4 10.7384 2
      vertex 7.695 -8.54617 2
    endloop
  endfacet
  facet normal 0 0 1
    outer loop
      vertex 4 -10.7384 2
      vertex 7.695 -8.54617 2
      vertex 4 10.7384 2
    endloop
  endfacet
  facet normal 0 0 1
    outer loop
      vertex 7.695 -8.54617 2
      vertex 4 -10.7384 2
      vertex 5.75 -9.95929 2
    endloop
  endfacet
  facet normal -0.994522 0.104529 0
    outer loop
      vertex 11.2487 -2.39098 3
      vertex 11.5 0 35
      vertex 11.5 0 3
    endloop
  endfacet
  facet normal -0.994522 0.104529 0
    outer loop
      vertex 11.5 0 35
      vertex 11.2487 -2.39098 3
      vertex 11.2487 -2.39098 35
    endloop
  endfacet
  facet normal -0.587785 0.809017 0
    outer loop
      vertex 7.695 -8.54617 2
      vertex 5.75 -9.95929 35
      vertex 7.695 -8.54617 35
    endloop
  endfacet
  facet normal -0.587785 0.809017 0
    outer loop
      vertex 5.75 -9.95929 35
      vertex 7.695 -8.54617 2
      vertex 5.75 -9.95929 2
    endloop
  endfacet
  facet normal -0.743145 0.66913 0
    outer loop
      vertex 7.695 -8.54617 2
      vertex 9.30369 -6.75953 35
      vertex 9.30369 -6.75953 2
    endloop
  endfacet
  facet normal -0.743145 0.66913 0
    outer loop
      vertex 9.30369 -6.75953 35
      vertex 7.695 -8.54617 2
      vertex 7.695 -8.54617 35
    endloop
  endfacet
  facet normal -0.951057 0.309017 0
    outer loop
      vertex 11.2487 -2.39098 2
      vertex 10.5058 -4.67747 2
      vertex 11.2487 -2.39098 3
    endloop
  endfacet
  facet normal -0.951057 0.309017 0
    outer loop
      vertex 10.5058 -4.67747 35
      vertex 11.2487 -2.39098 3
      vertex 10.5058 -4.67747 2
    endloop
  endfacet
  facet normal -0.951057 0.309017 -2.30236e-09
    outer loop
      vertex 11.2487 -2.39098 3
      vertex 10.5058 -4.67747 35
      vertex 11.2487 -2.39098 35
    endloop
  endfacet
  facet normal -0.207912 0.978148 0
    outer loop
      vertex 3.55369 -10.9371 1.77685
      vertex 1.20208 -11.437 35
      vertex 3.55369 -10.9371 35
    endloop
  endfacet
  facet normal -0.207912 0.978148 0
    outer loop
      vertex 1.20208 -11.437 35
      vertex 3.55369 -10.9371 1.77685
      vertex 1.20208 -11.437 0.601038
    endloop
  endfacet
  facet normal 0 1 -0
    outer loop
      vertex 1.20208 -11.437 0.601038
      vertex 0 -11.437 35
      vertex 1.20208 -11.437 35
    endloop
  endfacet
  facet normal 0 1 0
    outer loop
      vertex 0 -11.437 35
      vertex 1.20208 -11.437 0.601038
      vertex 0 -11.437 0
    endloop
  endfacet
  facet normal 0 0 -1
    outer loop
      vertex 4 -9.2 0
      vertex 25.5 -12 0
      vertex 6.05674 -12 0
    endloop
  endfacet
  facet normal 0 0 -1
    outer loop
      vertex 25.5 -12 0
      vertex 4 -9.2 0
      vertex 25.5 12 0
    endloop
  endfacet
  facet normal 0 0 -1
    outer loop
      vertex 4 -10.7384 0
      vertex 6.05674 -12 0
      vertex 4.17173 -12.8393 0
    endloop
  endfacet
  facet normal -0 0 -1
    outer loop
      vertex 25.5 12 0
      vertex 4 -9.2 0
      vertex 6.05674 12 0
    endloop
  endfacet
  facet normal 0 0 -1
    outer loop
      vertex 6.05674 -12 0
      vertex 4 -10.7384 0
      vertex 4 -9.2 0
    endloop
  endfacet
  facet normal 0 0 -1
    outer loop
      vertex 0 11.437 0
      vertex 4 -9.2 0
      vertex 0 -11.437 0
    endloop
  endfacet
  facet normal -0 0 -1
    outer loop
      vertex 4 -10.7384 0
      vertex 0 -11.437 0
      vertex 4 -9.2 0
    endloop
  endfacet
  facet normal 0 0 -1
    outer loop
      vertex 1.41113 -13.426 0
      vertex 4 -10.7384 0
      vertex 4.17173 -12.8393 0
    endloop
  endfacet
  facet normal 0 0 -1
    outer loop
      vertex 0 11.437 0
      vertex 6.05674 12 0
      vertex 4 -9.2 0
    endloop
  endfacet
  facet normal 0 0 -1
    outer loop
      vertex 6.05674 12 0
      vertex 3 13.0883 0
      vertex 4.17173 12.8393 0
    endloop
  endfacet
  facet normal 0 0 -1
    outer loop
      vertex 0 -11.437 0
      vertex 4 -10.7384 0
      vertex 1.41113 -13.426 0
    endloop
  endfacet
  facet normal 0 0 -1
    outer loop
      vertex 9 35.5 0
      vertex 6 38.5 0
      vertex 9 65.5 0
    endloop
  endfacet
  facet normal 0 0 -1
    outer loop
      vertex 3 35.5 0
      vertex 6 38.5 0
      vertex 9 35.5 0
    endloop
  endfacet
  facet normal 0 0 -1
    outer loop
      vertex 0 -11.437 0
      vertex 1.41113 -13.426 0
      vertex 0 -13.426 0
    endloop
  endfacet
  facet normal -0 0 -1
    outer loop
      vertex 6.05674 12 0
      vertex 0 11.437 0
      vertex 3 13.0883 0
    endloop
  endfacet
  facet normal 0 0 -1
    outer loop
      vertex 0 35.5 0
      vertex 3 13.0883 0
      vertex 0 11.437 0
    endloop
  endfacet
  facet normal 0 0 -1
    outer loop
      vertex 3 13.0883 0
      vertex 0 35.5 0
      vertex 3 35.5 0
    endloop
  endfacet
  facet normal 0 0 -1
    outer loop
      vertex 0 35.5 0
      vertex 6 38.5 0
      vertex 3 35.5 0
    endloop
  endfacet
  facet normal 0 0 -1
    outer loop
      vertex -6 38.5 0
      vertex 0 35.5 0
      vertex -6 35.5 0
    endloop
  endfacet
  facet normal 0 0 -1
    outer loop
      vertex 0 35.5 0
      vertex -6 38.5 0
      vertex 6 38.5 0
    endloop
  endfacet
  facet normal 0 0 -1
    outer loop
      vertex 6 62.5 0
      vertex 9 65.5 0
      vertex 6 38.5 0
    endloop
  endfacet
  facet normal 0 0 -1
    outer loop
      vertex -6 65.5 0
      vertex 6 62.5 0
      vertex -6 62.5 0
    endloop
  endfacet
  facet normal 0 0 -1
    outer loop
      vertex 6 62.5 0
      vertex -6 65.5 0
      vertex 9 65.5 0
    endloop
  endfacet
  facet normal -0.406737 0.913545 0
    outer loop
      vertex 4 -10.7384 2
      vertex 5.75 -9.95929 35
      vertex 5.75 -9.95929 2
    endloop
  endfacet
  facet normal -0.406736 0.913546 -6.21503e-09
    outer loop
      vertex 5.75 -9.95929 35
      vertex 4 -10.7384 2
      vertex 3.55369 -10.9371 35
    endloop
  endfacet
  facet normal -0.406736 0.913546 0
    outer loop
      vertex 4 -10.7384 2
      vertex 3.55369 -10.9371 1.77685
      vertex 3.55369 -10.9371 35
    endloop
  endfacet
  facet normal -1 0 0
    outer loop
      vertex 4 -10.7384 1.33777
      vertex 4 -9.2 0
      vertex 4 -10.7384 0
    endloop
  endfacet
  facet normal -0.447213 -1.49871e-07 0.894427
    outer loop
      vertex 1.20208 11.437 0.601038
      vertex 4 10.7384 2
      vertex 3.55369 10.9371 1.77685
    endloop
  endfacet
  facet normal -0.447213 0 0.894427
    outer loop
      vertex 4 10.7384 2
      vertex 0 11.437 0
      vertex 4 -10.7384 2
    endloop
  endfacet
  facet normal -0.447213 4.86804e-08 0.894427
    outer loop
      vertex 4 10.7384 2
      vertex 1.20208 11.437 0.601038
      vertex 0 11.437 0
    endloop
  endfacet
  facet normal -0.447213 0 0.894427
    outer loop
      vertex 0 -11.437 0
      vertex 4 -10.7384 2
      vertex 0 11.437 0
    endloop
  endfacet
  facet normal -0.447213 -4.86804e-08 0.894427
    outer loop
      vertex 1.20208 -11.437 0.601038
      vertex 4 -10.7384 2
      vertex 0 -11.437 0
    endloop
  endfacet
  facet normal -0.447213 1.49871e-07 0.894427
    outer loop
      vertex 4 -10.7384 2
      vertex 1.20208 -11.437 0.601038
      vertex 3.55369 -10.9371 1.77685
    endloop
  endfacet
  facet normal 1 -4.64922e-07 -5.34661e-07
    outer loop
      vertex 4 -10.7384 1.33777
      vertex 4 -10.7384 0
      vertex 4 -9.2 0
    endloop
  endfacet
  facet normal 0.994522 0.104529 0
    outer loop
      vertex -51.2487 -2.39098 35
      vertex -51.5 1.40834e-15 3
      vertex -51.5 1.40834e-15 35
    endloop
  endfacet
  facet normal 0.994522 0.104529 0
    outer loop
      vertex -51.5 1.40834e-15 3
      vertex -51.2487 -2.39098 35
      vertex -51.2487 -2.39098 3
    endloop
  endfacet
  facet normal 0 1 0
    outer loop
      vertex -40 -11.437 35
      vertex -41.2021 -11.437 0.601038
      vertex -41.2021 -11.437 35
    endloop
  endfacet
  facet normal -0 1 0
    outer loop
      vertex -41.2021 -11.437 0.601038
      vertex -40 -11.437 35
      vertex -40 -11.437 0
    endloop
  endfacet
  facet normal 0.743144 0.669131 0
    outer loop
      vertex -47.695 -8.54617 35
      vertex -49.3037 -6.75953 2
      vertex -49.3037 -6.75953 35
    endloop
  endfacet
  facet normal 0.743144 0.669131 0
    outer loop
      vertex -49.3037 -6.75953 2
      vertex -47.695 -8.54617 35
      vertex -47.695 -8.54617 2
    endloop
  endfacet
  facet normal 0.951057 0.309017 -2.30235e-09
    outer loop
      vertex -50.5058 -4.67747 35
      vertex -51.2487 -2.39098 3
      vertex -51.2487 -2.39098 35
    endloop
  endfacet
  facet normal 0.951057 0.309017 -0
    outer loop
      vertex -50.5058 -4.67747 2
      vertex -51.2487 -2.39098 3
      vertex -50.5058 -4.67747 35
    endloop
  endfacet
  facet normal 0.951057 0.309017 0
    outer loop
      vertex -51.2487 -2.39098 3
      vertex -50.5058 -4.67747 2
      vertex -51.2487 -2.39098 2
    endloop
  endfacet
  facet normal 0.866026 -0.5 0
    outer loop
      vertex -50.5058 4.67747 35
      vertex -49.3037 6.75953 2
      vertex -49.3037 6.75953 35
    endloop
  endfacet
  facet normal 0.866026 -0.5 0
    outer loop
      vertex -49.3037 6.75953 2
      vertex -50.5058 4.67747 35
      vertex -50.5058 4.67747 2
    endloop
  endfacet
  facet normal 0.866026 0.5 0
    outer loop
      vertex -49.3037 -6.75953 35
      vertex -50.5058 -4.67747 2
      vertex -50.5058 -4.67747 35
    endloop
  endfacet
  facet normal 0.866026 0.5 0
    outer loop
      vertex -50.5058 -4.67747 2
      vertex -49.3037 -6.75953 35
      vertex -49.3037 -6.75953 2
    endloop
  endfacet
  facet normal 0.406737 0.913545 3.15077e-09
    outer loop
      vertex -43.5537 -10.9371 35
      vertex -44 -10.7384 2
      vertex -45.75 -9.95929 35
    endloop
  endfacet
  facet normal 0.406737 0.913545 -0
    outer loop
      vertex -43.5537 -10.9371 1.77685
      vertex -44 -10.7384 2
      vertex -43.5537 -10.9371 35
    endloop
  endfacet
  facet normal 0.406737 0.913545 0
    outer loop
      vertex -45.75 -9.95929 35
      vertex -44 -10.7384 2
      vertex -45.75 -9.95929 2
    endloop
  endfacet
  facet normal 0.207912 0.978148 0
    outer loop
      vertex -41.2021 -11.437 35
      vertex -43.5537 -10.9371 1.77685
      vertex -43.5537 -10.9371 35
    endloop
  endfacet
  facet normal 0.207912 0.978148 0
    outer loop
      vertex -43.5537 -10.9371 1.77685
      vertex -41.2021 -11.437 35
      vertex -41.2021 -11.437 0.601038
    endloop
  endfacet
  facet normal 0.587786 0.809017 -0
    outer loop
      vertex -45.75 -9.95929 2
      vertex -47.695 -8.54617 35
      vertex -45.75 -9.95929 35
    endloop
  endfacet
  facet normal 0.587786 0.809017 0
    outer loop
      vertex -47.695 -8.54617 35
      vertex -45.75 -9.95929 2
      vertex -47.695 -8.54617 2
    endloop
  endfacet
  facet normal 0 0 1
    outer loop
      vertex -47.695 8.54617 2
      vertex -44 10.7384 2
      vertex -45.75 9.95929 2
    endloop
  endfacet
  facet normal 0 0 1
    outer loop
      vertex -44 10.7384 2
      vertex -47.695 8.54617 2
      vertex -44 -10.7384 2
    endloop
  endfacet
  facet normal -0 0 1
    outer loop
      vertex -47.695 -8.54617 2
      vertex -44 -10.7384 2
      vertex -47.695 8.54617 2
    endloop
  endfacet
  facet normal 0 0 1
    outer loop
      vertex -44 -10.7384 2
      vertex -47.695 -8.54617 2
      vertex -45.75 -9.95929 2
    endloop
  endfacet
  facet normal -0 0 1
    outer loop
      vertex -49.3037 6.75953 2
      vertex -47.695 -8.54617 2
      vertex -47.695 8.54617 2
    endloop
  endfacet
  facet normal 0 0 1
    outer loop
      vertex -49.3037 6.75953 2
      vertex -49.3037 -6.75953 2
      vertex -47.695 -8.54617 2
    endloop
  endfacet
  facet normal -0 0 1
    outer loop
      vertex -50.5058 4.67747 2
      vertex -49.3037 -6.75953 2
      vertex -49.3037 6.75953 2
    endloop
  endfacet
  facet normal 0 0 1
    outer loop
      vertex -50.5058 4.67747 2
      vertex -50.5058 -4.67747 2
      vertex -49.3037 -6.75953 2
    endloop
  endfacet
  facet normal -0 0 1
    outer loop
      vertex -51.2487 2.39098 2
      vertex -50.5058 -4.67747 2
      vertex -50.5058 4.67747 2
    endloop
  endfacet
  facet normal 0 0 1
    outer loop
      vertex -51.2487 2.39098 2
      vertex -51.2487 -2.39098 2
      vertex -50.5058 -4.67747 2
    endloop
  endfacet
  facet normal -0 0 1
    outer loop
      vertex -51.5 1.57473e-08 2
      vertex -51.2487 -2.39098 2
      vertex -51.2487 2.39098 2
    endloop
  endfacet
  facet normal 0 0 1
    outer loop
      vertex -51.2487 -2.39098 2
      vertex -51.5 1.57473e-08 2
      vertex -51.5 3.85764e-15 2
    endloop
  endfacet
  facet normal 0.994522 -0.104529 0
    outer loop
      vertex -51.2487 2.39098 35
      vertex -51.5 1.57473e-08 3
      vertex -51.2487 2.39098 3
    endloop
  endfacet
  facet normal 1 0 0
    outer loop
      vertex -51.5 1.57473e-08 3
      vertex -51.5 3.85764e-15 3
      vertex -51.5 1.57473e-08 2
    endloop
  endfacet
  facet normal 0.994522 -0.104529 -5.14392e-11
    outer loop
      vertex -51.5 1.40834e-15 35
      vertex -51.5 1.57473e-08 3
      vertex -51.2487 2.39098 35
    endloop
  endfacet
  facet normal 1 0 0
    outer loop
      vertex -51.5 1.57473e-08 3
      vertex -51.5 1.40834e-15 35
      vertex -51.5 3.85764e-15 3
    endloop
  endfacet
  facet normal 1 0 0
    outer loop
      vertex -51.5 3.85764e-15 3
      vertex -51.5 1.40834e-15 35
      vertex -51.5 1.40834e-15 3
    endloop
  endfacet
  facet normal 1 0 0
    outer loop
      vertex -51.5 1.57473e-08 2
      vertex -51.5 3.85764e-15 3
      vertex -51.5 3.85764e-15 2
    endloop
  endfacet
  facet normal 0.587786 -0.809017 0
    outer loop
      vertex -47.695 8.54617 2
      vertex -45.75 9.95929 35
      vertex -47.695 8.54617 35
    endloop
  endfacet
  facet normal 0.587786 -0.809017 0
    outer loop
      vertex -45.75 9.95929 35
      vertex -47.695 8.54617 2
      vertex -45.75 9.95929 2
    endloop
  endfacet
  facet normal 0.743144 -0.669131 0
    outer loop
      vertex -49.3037 6.75953 35
      vertex -47.695 8.54617 2
      vertex -47.695 8.54617 35
    endloop
  endfacet
  facet normal 0.743144 -0.669131 0
    outer loop
      vertex -47.695 8.54617 2
      vertex -49.3037 6.75953 35
      vertex -49.3037 6.75953 2
    endloop
  endfacet
  facet normal 0.951057 -0.309017 0
    outer loop
      vertex -50.5058 4.67747 35
      vertex -51.2487 2.39098 3
      vertex -50.5058 4.67747 2
    endloop
  endfacet
  facet normal 0.951057 -0.309017 -2.30235e-09
    outer loop
      vertex -51.2487 2.39098 35
      vertex -51.2487 2.39098 3
      vertex -50.5058 4.67747 35
    endloop
  endfacet
  facet normal 0.951057 -0.309017 0
    outer loop
      vertex -50.5058 4.67747 2
      vertex -51.2487 2.39098 3
      vertex -51.2487 2.39098 2
    endloop
  endfacet
  facet normal 0.207912 -0.978148 0
    outer loop
      vertex -43.5537 10.9371 1.77685
      vertex -41.2021 11.437 35
      vertex -43.5537 10.9371 35
    endloop
  endfacet
  facet normal 0.207912 -0.978148 0
    outer loop
      vertex -41.2021 11.437 35
      vertex -43.5537 10.9371 1.77685
      vertex -41.2021 11.437 0.601038
    endloop
  endfacet
  facet normal 0 -1 0
    outer loop
      vertex -41.2021 11.437 0.601038
      vertex -40 11.437 35
      vertex -41.2021 11.437 35
    endloop
  endfacet
  facet normal 0 -1 -0
    outer loop
      vertex -40 11.437 35
      vertex -41.2021 11.437 0.601038
      vertex -40 11.437 0
    endloop
  endfacet
  facet normal 0 0 -1
    outer loop
      vertex -41.4111 -13.426 0
      vertex -40 -11.437 0
      vertex -40 -13.426 0
    endloop
  endfacet
  facet normal -0 0 -1
    outer loop
      vertex -40 -11.437 0
      vertex -46.0567 -12 0
      vertex -40 11.437 0
    endloop
  endfacet
  facet normal 0 0 -1
    outer loop
      vertex -40 -11.437 0
      vertex -41.4111 -13.426 0
      vertex -44.1717 -12.8393 0
    endloop
  endfacet
  facet normal 0 0 -1
    outer loop
      vertex -46.0567 12 0
      vertex -40 11.437 0
      vertex -46.0567 -12 0
    endloop
  endfacet
  facet normal 0 0 -1
    outer loop
      vertex -40 -11.437 0
      vertex -44.1717 -12.8393 0
      vertex -46.0567 -12 0
    endloop
  endfacet
  facet normal 0 -0 -1
    outer loop
      vertex -44.1717 12.8393 0
      vertex -40 11.437 0
      vertex -46.0567 12 0
    endloop
  endfacet
  facet normal 0 -0 -1
    outer loop
      vertex -41.4111 13.426 0
      vertex -40 11.437 0
      vertex -44.1717 12.8393 0
    endloop
  endfacet
  facet normal 0 0 -1
    outer loop
      vertex -40 11.437 0
      vertex -41.4111 13.426 0
      vertex -40 13.426 0
    endloop
  endfacet
  facet normal 0 0 -1
    outer loop
      vertex -70.5 -12 0
      vertex -46.0567 12 0
      vertex -46.0567 -12 0
    endloop
  endfacet
  facet normal -0 0 -1
    outer loop
      vertex -46.0567 12 0
      vertex -70.5 -12 0
      vertex -70.5 12 0
    endloop
  endfacet
  facet normal 0.406737 -0.913545 0
    outer loop
      vertex -44 10.7384 2
      vertex -45.75 9.95929 35
      vertex -45.75 9.95929 2
    endloop
  endfacet
  facet normal 0.406737 -0.913545 3.15077e-09
    outer loop
      vertex -45.75 9.95929 35
      vertex -44 10.7384 2
      vertex -43.5537 10.9371 35
    endloop
  endfacet
  facet normal 0.406737 -0.913545 0
    outer loop
      vertex -44 10.7384 2
      vertex -43.5537 10.9371 1.77685
      vertex -43.5537 10.9371 35
    endloop
  endfacet
  facet normal 1 0 -0
    outer loop
      vertex -44 10.7384 0
      vertex -44 10.7384 1.33777
      vertex -44 9.2 0
    endloop
  endfacet
  facet normal 0.447214 -1.98293e-06 0.894427
    outer loop
      vertex -44 10.7384 2
      vertex -40 11.437 0
      vertex -41.2021 11.437 0.601038
    endloop
  endfacet
  facet normal 0.447213 0 0.894427
    outer loop
      vertex -40 11.437 0
      vertex -44 10.7384 2
      vertex -40 -11.437 0
    endloop
  endfacet
  facet normal 0.447212 5.51622e-06 0.894428
    outer loop
      vertex -44 10.7384 2
      vertex -41.2021 11.437 0.601038
      vertex -43.5537 10.9371 1.77685
    endloop
  endfacet
  facet normal 0.447213 -0 0.894427
    outer loop
      vertex -44 -10.7384 2
      vertex -40 -11.437 0
      vertex -44 10.7384 2
    endloop
  endfacet
  facet normal 0.447214 1.98293e-06 0.894427
    outer loop
      vertex -40 -11.437 0
      vertex -44 -10.7384 2
      vertex -41.2021 -11.437 0.601038
    endloop
  endfacet
  facet normal 0.447212 -5.51622e-06 0.894428
    outer loop
      vertex -41.2021 -11.437 0.601038
      vertex -44 -10.7384 2
      vertex -43.5537 -10.9371 1.77685
    endloop
  endfacet
  facet normal -1 0 0
    outer loop
      vertex -44 10.7384 0
      vertex -44 9.2 0
      vertex -44 10.7384 1.33777
    endloop
  endfacet
  facet normal 0.994522 0.104529 0
    outer loop
      vertex 13.5 0 35
      vertex 13.205 2.80681 3
      vertex 13.205 2.80681 35
    endloop
  endfacet
  facet normal 0.994522 0.104529 0
    outer loop
      vertex 13.205 2.80681 3
      vertex 13.5 0 35
      vertex 13.5 0 3
    endloop
  endfacet
  facet normal 0 -1 0
    outer loop
      vertex 0 -13.426 0
      vertex 1.41113 -13.426 35
      vertex 0 -13.426 35
    endloop
  endfacet
  facet normal 0 -1 -0
    outer loop
      vertex 1.41113 -13.426 35
      vertex 0 -13.426 0
      vertex 1.41113 -13.426 0
    endloop
  endfacet
  facet normal 0.587785 0.809017 -0
    outer loop
      vertex 9.03326 10.0325 3
      vertex 8.38974 10.5 35
      vertex 9.03326 10.0325 35
    endloop
  endfacet
  facet normal 0.587785 0.809017 0
    outer loop
      vertex 8.38974 10.5 35
      vertex 9.03326 10.0325 3
      vertex 8.38974 10.5 3
    endloop
  endfacet
  facet normal 0.406737 0.913545 -0
    outer loop
      vertex 6.05674 12 0
      vertex 4.17173 12.8393 35
      vertex 6.05674 12 35
    endloop
  endfacet
  facet normal 0.406737 0.913545 0
    outer loop
      vertex 4.17173 12.8393 35
      vertex 6.05674 12 0
      vertex 4.17173 12.8393 0
    endloop
  endfacet
  facet normal 0 0 1
    outer loop
      vertex 25.5 12 35
      vertex 8.38974 10.5 35
      vertex 25.5 10.5 35
    endloop
  endfacet
  facet normal -0 0 1
    outer loop
      vertex 6.05674 12 35
      vertex 8.38974 10.5 35
      vertex 25.5 12 35
    endloop
  endfacet
  facet normal 0 0 1
    outer loop
      vertex 5.75 9.95929 35
      vertex 8.38974 10.5 35
      vertex 6.05674 12 35
    endloop
  endfacet
  facet normal 0 0 1
    outer loop
      vertex 8.38974 10.5 35
      vertex 5.75 9.95929 35
      vertex 7.695 8.54617 35
    endloop
  endfacet
  facet normal 0 0 1
    outer loop
      vertex 3.55369 10.9371 35
      vertex 6.05674 12 35
      vertex 4.17173 12.8393 35
    endloop
  endfacet
  facet normal 0 0 1
    outer loop
      vertex 6.05674 12 35
      vertex 3.55369 10.9371 35
      vertex 5.75 9.95929 35
    endloop
  endfacet
  facet normal 0 0 1
    outer loop
      vertex 3 13.0883 35
      vertex 3.55369 10.9371 35
      vertex 4.17173 12.8393 35
    endloop
  endfacet
  facet normal 0 0 1
    outer loop
      vertex 3.55369 10.9371 35
      vertex 3 13.0883 35
      vertex 1.20208 11.437 35
    endloop
  endfacet
  facet normal 0 0 1
    outer loop
      vertex 11.5 0 35
      vertex 13.5 0 35
      vertex 13.205 2.80681 35
    endloop
  endfacet
  facet normal 0 0 1
    outer loop
      vertex 11.2487 2.39098 35
      vertex 13.205 2.80681 35
      vertex 12.3329 5.49094 35
    endloop
  endfacet
  facet normal 0 0 1
    outer loop
      vertex 13.5 0 35
      vertex 11.5 0 35
      vertex 13.205 -2.80681 35
    endloop
  endfacet
  facet normal -0 0 1
    outer loop
      vertex 11.2487 -2.39098 35
      vertex 13.205 -2.80681 35
      vertex 11.5 0 35
    endloop
  endfacet
  facet normal 0 0 1
    outer loop
      vertex 13.205 2.80681 35
      vertex 11.2487 2.39098 35
      vertex 11.5 0 35
    endloop
  endfacet
  facet normal 0 0 1
    outer loop
      vertex 10.5058 4.67747 35
      vertex 12.3329 5.49094 35
      vertex 10.9217 7.9351 35
    endloop
  endfacet
  facet normal 0 0 1
    outer loop
      vertex 12.3329 5.49094 35
      vertex 10.5058 4.67747 35
      vertex 11.2487 2.39098 35
    endloop
  endfacet
  facet normal 0 0 1
    outer loop
      vertex 10.9217 7.9351 35
      vertex 9.30369 6.75953 35
      vertex 10.5058 4.67747 35
    endloop
  endfacet
  facet normal 0 0 1
    outer loop
      vertex 9.03326 10.0325 35
      vertex 9.30369 6.75953 35
      vertex 10.9217 7.9351 35
    endloop
  endfacet
  facet normal 0 0 1
    outer loop
      vertex 7.695 8.54617 35
      vertex 9.03326 10.0325 35
      vertex 8.38974 10.5 35
    endloop
  endfacet
  facet normal 0 0 1
    outer loop
      vertex 9.03326 10.0325 35
      vertex 7.695 8.54617 35
      vertex 9.30369 6.75953 35
    endloop
  endfacet
  facet normal 0 0 1
    outer loop
      vertex 13.205 -2.80681 35
      vertex 11.2487 -2.39098 35
      vertex 12.3329 -5.49094 35
    endloop
  endfacet
  facet normal -0 0 1
    outer loop
      vertex 10.5058 -4.67747 35
      vertex 12.3329 -5.49094 35
      vertex 11.2487 -2.39098 35
    endloop
  endfacet
  facet normal 0 0 1
    outer loop
      vertex 12.3329 -5.49094 35
      vertex 10.5058 -4.67747 35
      vertex 10.9217 -7.9351 35
    endloop
  endfacet
  facet normal -0 0 1
    outer loop
      vertex 9.30369 -6.75953 35
      vertex 10.9217 -7.9351 35
      vertex 10.5058 -4.67747 35
    endloop
  endfacet
  facet normal 0 0 1
    outer loop
      vertex 9.30369 -6.75953 35
      vertex 9.03326 -10.0325 35
      vertex 10.9217 -7.9351 35
    endloop
  endfacet
  facet normal -0 0 1
    outer loop
      vertex 7.695 -8.54617 35
      vertex 9.03326 -10.0325 35
      vertex 9.30369 -6.75953 35
    endloop
  endfacet
  facet normal 0 0 1
    outer loop
      vertex 9.03326 -10.0325 35
      vertex 7.695 -8.54617 35
      vertex 8.38974 -10.5 35
    endloop
  endfacet
  facet normal -0 0 1
    outer loop
      vertex 8.38974 -10.5 35
      vertex 25.5 -12 35
      vertex 25.5 -10.5 35
    endloop
  endfacet
  facet normal 0 0 1
    outer loop
      vertex 8.38974 -10.5 35
      vertex 6.05674 -12 35
      vertex 25.5 -12 35
    endloop
  endfacet
  facet normal -0 0 1
    outer loop
      vertex 5.75 -9.95929 35
      vertex 8.38974 -10.5 35
      vertex 7.695 -8.54617 35
    endloop
  endfacet
  facet normal 0 0 1
    outer loop
      vertex 8.38974 -10.5 35
      vertex 5.75 -9.95929 35
      vertex 6.05674 -12 35
    endloop
  endfacet
  facet normal -0 0 1
    outer loop
      vertex 3.55369 -10.9371 35
      vertex 6.05674 -12 35
      vertex 5.75 -9.95929 35
    endloop
  endfacet
  facet normal 0 0 1
    outer loop
      vertex 6.05674 -12 35
      vertex 3.55369 -10.9371 35
      vertex 4.17173 -12.8393 35
    endloop
  endfacet
  facet normal 0 0 1
    outer loop
      vertex 3.55369 -10.9371 35
      vertex 1.41113 -13.426 35
      vertex 4.17173 -12.8393 35
    endloop
  endfacet
  facet normal -0 0 1
    outer loop
      vertex 1.20208 -11.437 35
      vertex 1.41113 -13.426 35
      vertex 3.55369 -10.9371 35
    endloop
  endfacet
  facet normal 0 0 1
    outer loop
      vertex 0 -13.426 35
      vertex 1.20208 -11.437 35
      vertex 0 -11.437 35
    endloop
  endfacet
  facet normal 0 0 1
    outer loop
      vertex 1.20208 -11.437 35
      vertex 0 -13.426 35
      vertex 1.41113 -13.426 35
    endloop
  endfacet
  facet normal 0 0 1
    outer loop
      vertex 9 65.5 35
      vertex 6 62.5 35
      vertex 9 35.5 35
    endloop
  endfacet
  facet normal -0 0 1
    outer loop
      vertex -6 65.5 35
      vertex 6 62.5 35
      vertex 9 65.5 35
    endloop
  endfacet
  facet normal 0 0 1
    outer loop
      vertex 6 62.5 35
      vertex -6 65.5 35
      vertex -6 62.5 35
    endloop
  endfacet
  facet normal -0 0 1
    outer loop
      vertex 6 38.5 35
      vertex 9 35.5 35
      vertex 6 62.5 35
    endloop
  endfacet
  facet normal 0 0 1
    outer loop
      vertex 6 38.5 35
      vertex 3 35.5 35
      vertex 9 35.5 35
    endloop
  endfacet
  facet normal -0 0 1
    outer loop
      vertex 0 35.5 35
      vertex 3 13.0883 35
      vertex 3 35.5 35
    endloop
  endfacet
  facet normal 0 0 1
    outer loop
      vertex 0 11.437 35
      vertex 3 13.0883 35
      vertex 0 35.5 35
    endloop
  endfacet
  facet normal 0 0 1
    outer loop
      vertex 6 38.5 35
      vertex 0 35.5 35
      vertex 3 35.5 35
    endloop
  endfacet
  facet normal -0 0 1
    outer loop
      vertex -6 38.5 35
      vertex 0 35.5 35
      vertex 6 38.5 35
    endloop
  endfacet
  facet normal 0 0 1
    outer loop
      vertex 0 35.5 35
      vertex -6 38.5 35
      vertex -6 35.5 35
    endloop
  endfacet
  facet normal 0 0 1
    outer loop
      vertex 3 13.0883 35
      vertex 0 11.437 35
      vertex 1.20208 11.437 35
    endloop
  endfacet
  facet normal 0.951056 -0.309017 0
    outer loop
      vertex 12.3329 -5.49094 35
      vertex 13.205 -2.80681 3
      vertex 13.205 -2.80681 35
    endloop
  endfacet
  facet normal 0.951056 -0.309017 0
    outer loop
      vertex 13.205 -2.80681 3
      vertex 12.3329 -5.49094 35
      vertex 12.3329 -5.49094 3
    endloop
  endfacet
  facet normal 0.866026 0.5 0
    outer loop
      vertex 12.3329 5.49094 35
      vertex 10.9217 7.9351 3
      vertex 10.9217 7.9351 35
    endloop
  endfacet
  facet normal 0.866026 0.5 0
    outer loop
      vertex 10.9217 7.9351 3
      vertex 12.3329 5.49094 35
      vertex 12.3329 5.49094 3
    endloop
  endfacet
  facet normal 0.951056 0.309017 0
    outer loop
      vertex 13.205 2.80681 35
      vertex 12.3329 5.49094 3
      vertex 12.3329 5.49094 35
    endloop
  endfacet
  facet normal 0.951056 0.309017 0
    outer loop
      vertex 12.3329 5.49094 3
      vertex 13.205 2.80681 35
      vertex 13.205 2.80681 3
    endloop
  endfacet
  facet normal 0.743145 0.669131 0
    outer loop
      vertex 10.9217 7.9351 35
      vertex 9.03326 10.0325 3
      vertex 9.03326 10.0325 35
    endloop
  endfacet
  facet normal 0.743145 0.669131 0
    outer loop
      vertex 9.03326 10.0325 3
      vertex 10.9217 7.9351 35
      vertex 10.9217 7.9351 3
    endloop
  endfacet
  facet normal 0.207912 0.978148 -0
    outer loop
      vertex 4.17173 12.8393 0
      vertex 3 13.0883 35
      vertex 4.17173 12.8393 35
    endloop
  endfacet
  facet normal 0.207912 0.978148 0
    outer loop
      vertex 3 13.0883 35
      vertex 4.17173 12.8393 0
      vertex 3 13.0883 0
    endloop
  endfacet
  facet normal 0.994522 -0.104529 0
    outer loop
      vertex 13.205 -2.80681 35
      vertex 13.5 0 3
      vertex 13.5 0 35
    endloop
  endfacet
  facet normal 0.994522 -0.104529 0
    outer loop
      vertex 13.5 0 3
      vertex 13.205 -2.80681 35
      vertex 13.205 -2.80681 3
    endloop
  endfacet
  facet normal 0.207912 -0.978148 0
    outer loop
      vertex 1.41113 -13.426 0
      vertex 4.17173 -12.8393 35
      vertex 1.41113 -13.426 35
    endloop
  endfacet
  facet normal 0.207912 -0.978148 0
    outer loop
      vertex 4.17173 -12.8393 35
      vertex 1.41113 -13.426 0
      vertex 4.17173 -12.8393 0
    endloop
  endfacet
  facet normal 0.866026 -0.5 0
    outer loop
      vertex 10.9217 -7.9351 35
      vertex 12.3329 -5.49094 3
      vertex 12.3329 -5.49094 35
    endloop
  endfacet
  facet normal 0.866026 -0.5 0
    outer loop
      vertex 12.3329 -5.49094 3
      vertex 10.9217 -7.9351 35
      vertex 10.9217 -7.9351 3
    endloop
  endfacet
  facet normal 0.587785 -0.809017 0
    outer loop
      vertex 8.38974 -10.5 3
      vertex 9.03326 -10.0325 35
      vertex 8.38974 -10.5 35
    endloop
  endfacet
  facet normal 0.587785 -0.809017 0
    outer loop
      vertex 9.03326 -10.0325 35
      vertex 8.38974 -10.5 3
      vertex 9.03326 -10.0325 3
    endloop
  endfacet
  facet normal 0.406737 -0.913545 0
    outer loop
      vertex 4.17173 -12.8393 0
      vertex 6.05674 -12 35
      vertex 4.17173 -12.8393 35
    endloop
  endfacet
  facet normal 0.406737 -0.913545 0
    outer loop
      vertex 6.05674 -12 35
      vertex 4.17173 -12.8393 0
      vertex 6.05674 -12 0
    endloop
  endfacet
  facet normal 0.743145 -0.669131 0
    outer loop
      vertex 9.03326 -10.0325 35
      vertex 10.9217 -7.9351 3
      vertex 10.9217 -7.9351 35
    endloop
  endfacet
  facet normal 0.743145 -0.669131 0
    outer loop
      vertex 10.9217 -7.9351 3
      vertex 9.03326 -10.0325 35
      vertex 9.03326 -10.0325 3
    endloop
  endfacet
  facet normal -1 0 0
    outer loop
      vertex 0 11.437 0
      vertex 0 35.5 35
      vertex 0 35.5 0
    endloop
  endfacet
  facet normal -1 -0 0
    outer loop
      vertex 0 35.5 35
      vertex 0 11.437 0
      vertex 0 11.437 35
    endloop
  endfacet
  facet normal -1 0 0
    outer loop
      vertex 0 -13.426 0
      vertex 0 -11.437 35
      vertex 0 -11.437 0
    endloop
  endfacet
  facet normal -1 -0 0
    outer loop
      vertex 0 -11.437 35
      vertex 0 -13.426 0
      vertex 0 -13.426 35
    endloop
  endfacet
  facet normal -0.994522 -0.104528 0
    outer loop
      vertex -53.205 -2.80681 3
      vertex -53.5 1.65327e-15 35
      vertex -53.5 1.65327e-15 3
    endloop
  endfacet
  facet normal -0.994522 -0.104528 0
    outer loop
      vertex -53.5 1.65327e-15 35
      vertex -53.205 -2.80681 3
      vertex -53.205 -2.80681 35
    endloop
  endfacet
  facet normal 0 -1 0
    outer loop
      vertex -41.4111 -13.426 0
      vertex -40 -13.426 35
      vertex -41.4111 -13.426 35
    endloop
  endfacet
  facet normal 0 -1 -0
    outer loop
      vertex -40 -13.426 35
      vertex -41.4111 -13.426 0
      vertex -40 -13.426 0
    endloop
  endfacet
  facet normal 0 1 -0
    outer loop
      vertex -40 13.426 0
      vertex -41.4111 13.426 35
      vertex -40 13.426 35
    endloop
  endfacet
  facet normal 0 1 0
    outer loop
      vertex -41.4111 13.426 35
      vertex -40 13.426 0
      vertex -41.4111 13.426 0
    endloop
  endfacet
  facet normal -0.587783 -0.809018 0
    outer loop
      vertex -49.0333 -10.0325 3
      vertex -48.3897 -10.5 35
      vertex -49.0333 -10.0325 35
    endloop
  endfacet
  facet normal -0.587783 -0.809018 -0
    outer loop
      vertex -48.3897 -10.5 35
      vertex -49.0333 -10.0325 3
      vertex -48.3897 -10.5 3
    endloop
  endfacet
  facet normal -0.406737 -0.913545 0
    outer loop
      vertex -46.0567 -12 0
      vertex -44.1717 -12.8393 35
      vertex -46.0567 -12 35
    endloop
  endfacet
  facet normal -0.406737 -0.913545 -0
    outer loop
      vertex -44.1717 -12.8393 35
      vertex -46.0567 -12 0
      vertex -44.1717 -12.8393 0
    endloop
  endfacet
  facet normal 0 0 1
    outer loop
      vertex -40 13.426 35
      vertex -41.2021 11.437 35
      vertex -40 11.437 35
    endloop
  endfacet
  facet normal -0 0 1
    outer loop
      vertex -41.4111 13.426 35
      vertex -41.2021 11.437 35
      vertex -40 13.426 35
    endloop
  endfacet
  facet normal 0 0 1
    outer loop
      vertex -41.4111 13.426 35
      vertex -43.5537 10.9371 35
      vertex -41.2021 11.437 35
    endloop
  endfacet
  facet normal -0 0 1
    outer loop
      vertex -44.1717 12.8393 35
      vertex -43.5537 10.9371 35
      vertex -41.4111 13.426 35
    endloop
  endfacet
  facet normal -0 0 1
    outer loop
      vertex -46.0567 12 35
      vertex -43.5537 10.9371 35
      vertex -44.1717 12.8393 35
    endloop
  endfacet
  facet normal 0 0 1
    outer loop
      vertex -43.5537 10.9371 35
      vertex -46.0567 12 35
      vertex -45.75 9.95929 35
    endloop
  endfacet
  facet normal -0 0 1
    outer loop
      vertex -48.3897 10.5 35
      vertex -45.75 9.95929 35
      vertex -46.0567 12 35
    endloop
  endfacet
  facet normal 0 0 1
    outer loop
      vertex -45.75 9.95929 35
      vertex -48.3897 10.5 35
      vertex -47.695 8.54617 35
    endloop
  endfacet
  facet normal -0 0 1
    outer loop
      vertex -70.5 12 35
      vertex -48.3897 10.5 35
      vertex -46.0567 12 35
    endloop
  endfacet
  facet normal 0 0 1
    outer loop
      vertex -48.3897 10.5 35
      vertex -70.5 12 35
      vertex -70.5 10.5 35
    endloop
  endfacet
  facet normal -0 0 1
    outer loop
      vertex -49.0333 10.0325 35
      vertex -47.695 8.54617 35
      vertex -48.3897 10.5 35
    endloop
  endfacet
  facet normal 0 0 1
    outer loop
      vertex -49.0333 10.0325 35
      vertex -49.3037 6.75953 35
      vertex -47.695 8.54617 35
    endloop
  endfacet
  facet normal -0 0 1
    outer loop
      vertex -50.9217 7.9351 35
      vertex -49.3037 6.75953 35
      vertex -49.0333 10.0325 35
    endloop
  endfacet
  facet normal 0 0 1
    outer loop
      vertex -49.3037 6.75953 35
      vertex -50.9217 7.9351 35
      vertex -50.5058 4.67747 35
    endloop
  endfacet
  facet normal -0 0 1
    outer loop
      vertex -52.3329 5.49094 35
      vertex -50.5058 4.67747 35
      vertex -50.9217 7.9351 35
    endloop
  endfacet
  facet normal 0 0 1
    outer loop
      vertex -50.5058 4.67747 35
      vertex -52.3329 5.49094 35
      vertex -51.2487 2.39098 35
    endloop
  endfacet
  facet normal -0 0 1
    outer loop
      vertex -53.205 2.80681 35
      vertex -51.2487 2.39098 35
      vertex -52.3329 5.49094 35
    endloop
  endfacet
  facet normal 0 0 1
    outer loop
      vertex -47.695 -8.54617 35
      vertex -49.0333 -10.0325 35
      vertex -48.3897 -10.5 35
    endloop
  endfacet
  facet normal 0 0 1
    outer loop
      vertex -49.3037 -6.75953 35
      vertex -49.0333 -10.0325 35
      vertex -47.695 -8.54617 35
    endloop
  endfacet
  facet normal 0 0 1
    outer loop
      vertex -50.9217 -7.9351 35
      vertex -49.3037 -6.75953 35
      vertex -50.5058 -4.67747 35
    endloop
  endfacet
  facet normal 0 0 1
    outer loop
      vertex -49.3037 -6.75953 35
      vertex -50.9217 -7.9351 35
      vertex -49.0333 -10.0325 35
    endloop
  endfacet
  facet normal 0 0 1
    outer loop
      vertex -52.3329 -5.49094 35
      vertex -50.5058 -4.67747 35
      vertex -51.2487 -2.39098 35
    endloop
  endfacet
  facet normal 0 0 1
    outer loop
      vertex -53.205 -2.80681 35
      vertex -51.2487 -2.39098 35
      vertex -51.5 1.40834e-15 35
    endloop
  endfacet
  facet normal 0 0 1
    outer loop
      vertex -51.2487 2.39098 35
      vertex -53.205 2.80681 35
      vertex -51.5 1.40834e-15 35
    endloop
  endfacet
  facet normal 0 0 1
    outer loop
      vertex -50.5058 -4.67747 35
      vertex -52.3329 -5.49094 35
      vertex -50.9217 -7.9351 35
    endloop
  endfacet
  facet normal -0 0 1
    outer loop
      vertex -53.5 1.65327e-15 35
      vertex -51.5 1.40834e-15 35
      vertex -53.205 2.80681 35
    endloop
  endfacet
  facet normal 0 0 1
    outer loop
      vertex -51.2487 -2.39098 35
      vertex -53.205 -2.80681 35
      vertex -52.3329 -5.49094 35
    endloop
  endfacet
  facet normal 0 0 1
    outer loop
      vertex -51.5 1.40834e-15 35
      vertex -53.5 1.65327e-15 35
      vertex -53.205 -2.80681 35
    endloop
  endfacet
  facet normal -0 0 1
    outer loop
      vertex -41.2021 -11.437 35
      vertex -40 -13.426 35
      vertex -40 -11.437 35
    endloop
  endfacet
  facet normal 0 0 1
    outer loop
      vertex -41.2021 -11.437 35
      vertex -41.4111 -13.426 35
      vertex -40 -13.426 35
    endloop
  endfacet
  facet normal 0 0 1
    outer loop
      vertex -43.5537 -10.9371 35
      vertex -41.4111 -13.426 35
      vertex -41.2021 -11.437 35
    endloop
  endfacet
  facet normal 0 0 1
    outer loop
      vertex -43.5537 -10.9371 35
      vertex -44.1717 -12.8393 35
      vertex -41.4111 -13.426 35
    endloop
  endfacet
  facet normal 0 0 1
    outer loop
      vertex -46.0567 -12 35
      vertex -43.5537 -10.9371 35
      vertex -45.75 -9.95929 35
    endloop
  endfacet
  facet normal 0 0 1
    outer loop
      vertex -43.5537 -10.9371 35
      vertex -46.0567 -12 35
      vertex -44.1717 -12.8393 35
    endloop
  endfacet
  facet normal 0 0 1
    outer loop
      vertex -48.3897 -10.5 35
      vertex -45.75 -9.95929 35
      vertex -47.695 -8.54617 35
    endloop
  endfacet
  facet normal 0 0 1
    outer loop
      vertex -45.75 -9.95929 35
      vertex -48.3897 -10.5 35
      vertex -46.0567 -12 35
    endloop
  endfacet
  facet normal 0 0 1
    outer loop
      vertex -70.5 -12 35
      vertex -48.3897 -10.5 35
      vertex -70.5 -10.5 35
    endloop
  endfacet
  facet normal 0 0 1
    outer loop
      vertex -48.3897 -10.5 35
      vertex -70.5 -12 35
      vertex -46.0567 -12 35
    endloop
  endfacet
  facet normal -0.951057 0.309017 0
    outer loop
      vertex -53.205 2.80681 3
      vertex -52.3329 5.49094 35
      vertex -52.3329 5.49094 3
    endloop
  endfacet
  facet normal -0.951057 0.309017 0
    outer loop
      vertex -52.3329 5.49094 35
      vertex -53.205 2.80681 3
      vertex -53.205 2.80681 35
    endloop
  endfacet
  facet normal -0.866026 -0.5 0
    outer loop
      vertex -50.9217 -7.9351 3
      vertex -52.3329 -5.49094 35
      vertex -52.3329 -5.49094 3
    endloop
  endfacet
  facet normal -0.866026 -0.5 0
    outer loop
      vertex -52.3329 -5.49094 35
      vertex -50.9217 -7.9351 3
      vertex -50.9217 -7.9351 35
    endloop
  endfacet
  facet normal -0.951056 -0.309018 0
    outer loop
      vertex -52.3329 -5.49094 3
      vertex -53.205 -2.80681 35
      vertex -53.205 -2.80681 3
    endloop
  endfacet
  facet normal -0.951056 -0.309018 0
    outer loop
      vertex -53.205 -2.80681 35
      vertex -52.3329 -5.49094 3
      vertex -52.3329 -5.49094 35
    endloop
  endfacet
  facet normal -0.743145 -0.669131 0
    outer loop
      vertex -49.0333 -10.0325 3
      vertex -50.9217 -7.9351 35
      vertex -50.9217 -7.9351 3
    endloop
  endfacet
  facet normal -0.743145 -0.669131 0
    outer loop
      vertex -50.9217 -7.9351 35
      vertex -49.0333 -10.0325 3
      vertex -49.0333 -10.0325 35
    endloop
  endfacet
  facet normal -0.207911 -0.978148 0
    outer loop
      vertex -44.1717 -12.8393 0
      vertex -41.4111 -13.426 35
      vertex -44.1717 -12.8393 35
    endloop
  endfacet
  facet normal -0.207911 -0.978148 -0
    outer loop
      vertex -41.4111 -13.426 35
      vertex -44.1717 -12.8393 0
      vertex -41.4111 -13.426 0
    endloop
  endfacet
  facet normal -0.994522 0.104529 0
    outer loop
      vertex -53.5 1.65327e-15 3
      vertex -53.205 2.80681 35
      vertex -53.205 2.80681 3
    endloop
  endfacet
  facet normal -0.994522 0.104529 0
    outer loop
      vertex -53.205 2.80681 35
      vertex -53.5 1.65327e-15 3
      vertex -53.5 1.65327e-15 35
    endloop
  endfacet
  facet normal -0.207911 0.978148 0
    outer loop
      vertex -41.4111 13.426 0
      vertex -44.1717 12.8393 35
      vertex -41.4111 13.426 35
    endloop
  endfacet
  facet normal -0.207911 0.978148 0
    outer loop
      vertex -44.1717 12.8393 35
      vertex -41.4111 13.426 0
      vertex -44.1717 12.8393 0
    endloop
  endfacet
  facet normal -0.866026 0.5 0
    outer loop
      vertex -52.3329 5.49094 3
      vertex -50.9217 7.9351 35
      vertex -50.9217 7.9351 3
    endloop
  endfacet
  facet normal -0.866026 0.5 0
    outer loop
      vertex -50.9217 7.9351 35
      vertex -52.3329 5.49094 3
      vertex -52.3329 5.49094 35
    endloop
  endfacet
  facet normal -0.587786 0.809017 0
    outer loop
      vertex -48.3897 10.5 3
      vertex -49.0333 10.0325 35
      vertex -48.3897 10.5 35
    endloop
  endfacet
  facet normal -0.587786 0.809017 0
    outer loop
      vertex -49.0333 10.0325 35
      vertex -48.3897 10.5 3
      vertex -49.0333 10.0325 3
    endloop
  endfacet
  facet normal -0.406737 0.913545 0
    outer loop
      vertex -44.1717 12.8393 0
      vertex -46.0567 12 35
      vertex -44.1717 12.8393 35
    endloop
  endfacet
  facet normal -0.406737 0.913545 0
    outer loop
      vertex -46.0567 12 35
      vertex -44.1717 12.8393 0
      vertex -46.0567 12 0
    endloop
  endfacet
  facet normal -0.743144 0.669131 0
    outer loop
      vertex -50.9217 7.9351 3
      vertex -49.0333 10.0325 35
      vertex -49.0333 10.0325 3
    endloop
  endfacet
  facet normal -0.743144 0.669131 0
    outer loop
      vertex -49.0333 10.0325 35
      vertex -50.9217 7.9351 3
      vertex -50.9217 7.9351 35
    endloop
  endfacet
  facet normal 1 -0 0
    outer loop
      vertex -40 -13.426 35
      vertex -40 -11.437 0
      vertex -40 -11.437 35
    endloop
  endfacet
  facet normal 1 0 0
    outer loop
      vertex -40 -11.437 0
      vertex -40 -13.426 35
      vertex -40 -13.426 0
    endloop
  endfacet
  facet normal 1 -0 0
    outer loop
      vertex -40 11.437 35
      vertex -40 13.426 0
      vertex -40 13.426 35
    endloop
  endfacet
  facet normal 1 0 0
    outer loop
      vertex -40 13.426 0
      vertex -40 11.437 35
      vertex -40 11.437 0
    endloop
  endfacet
  facet normal 1 0 0
    outer loop
      vertex 25.5 -10.5 35
      vertex 25.5 -12 35
      vertex 25.5 -10.5 3
    endloop
  endfacet
  facet normal 1 0 0
    outer loop
      vertex 25.5 10.5 3
      vertex 25.5 12 35
      vertex 25.5 10.5 35
    endloop
  endfacet
  facet normal 1 0 0
    outer loop
      vertex 25.5 12 35
      vertex 25.5 10.5 3
      vertex 25.5 12 0
    endloop
  endfacet
  facet normal 1 -0 0
    outer loop
      vertex 25.5 -10.5 3
      vertex 25.5 12 0
      vertex 25.5 10.5 3
    endloop
  endfacet
  facet normal 1 0 0
    outer loop
      vertex 25.5 -10.5 3
      vertex 25.5 -12 0
      vertex 25.5 12 0
    endloop
  endfacet
  facet normal 1 0 0
    outer loop
      vertex 25.5 -12 0
      vertex 25.5 -10.5 3
      vertex 25.5 -12 35
    endloop
  endfacet
  facet normal 0 1 -0
    outer loop
      vertex 25.5 12 0
      vertex 6.05674 12 35
      vertex 25.5 12 35
    endloop
  endfacet
  facet normal 0 1 0
    outer loop
      vertex 6.05674 12 35
      vertex 25.5 12 0
      vertex 6.05674 12 0
    endloop
  endfacet
  facet normal 0 -1 0
    outer loop
      vertex 6.05674 -12 0
      vertex 25.5 -12 35
      vertex 6.05674 -12 35
    endloop
  endfacet
  facet normal 0 -1 -0
    outer loop
      vertex 25.5 -12 35
      vertex 6.05674 -12 0
      vertex 25.5 -12 0
    endloop
  endfacet
  facet normal 0 -1 0
    outer loop
      vertex 8.38974 10.5 3
      vertex 25.5 10.5 35
      vertex 8.38974 10.5 35
    endloop
  endfacet
  facet normal 0 -1 -0
    outer loop
      vertex 25.5 10.5 35
      vertex 8.38974 10.5 3
      vertex 25.5 10.5 3
    endloop
  endfacet
  facet normal 0 0 1
    outer loop
      vertex 25.5 10.5 3
      vertex 13.5 0 3
      vertex 25.5 -10.5 3
    endloop
  endfacet
  facet normal 0 0 1
    outer loop
      vertex 25.5 10.5 3
      vertex 13.205 2.80681 3
      vertex 13.5 0 3
    endloop
  endfacet
  facet normal 0 0 1
    outer loop
      vertex 25.5 10.5 3
      vertex 12.3329 5.49094 3
      vertex 13.205 2.80681 3
    endloop
  endfacet
  facet normal 0 0 1
    outer loop
      vertex 25.5 10.5 3
      vertex 10.9217 7.9351 3
      vertex 12.3329 5.49094 3
    endloop
  endfacet
  facet normal 0 0 1
    outer loop
      vertex 25.5 10.5 3
      vertex 9.03326 10.0325 3
      vertex 10.9217 7.9351 3
    endloop
  endfacet
  facet normal 0 -0 1
    outer loop
      vertex 9.03326 10.0325 3
      vertex 25.5 10.5 3
      vertex 8.38974 10.5 3
    endloop
  endfacet
  facet normal -0 0 1
    outer loop
      vertex 13.205 -2.80681 3
      vertex 25.5 -10.5 3
      vertex 13.5 0 3
    endloop
  endfacet
  facet normal -0 0 1
    outer loop
      vertex 12.3329 -5.49094 3
      vertex 25.5 -10.5 3
      vertex 13.205 -2.80681 3
    endloop
  endfacet
  facet normal -0 0 1
    outer loop
      vertex 10.9217 -7.9351 3
      vertex 25.5 -10.5 3
      vertex 12.3329 -5.49094 3
    endloop
  endfacet
  facet normal -0 0 1
    outer loop
      vertex 9.03326 -10.0325 3
      vertex 25.5 -10.5 3
      vertex 10.9217 -7.9351 3
    endloop
  endfacet
  facet normal 0 0 1
    outer loop
      vertex 25.5 -10.5 3
      vertex 9.03326 -10.0325 3
      vertex 8.38974 -10.5 3
    endloop
  endfacet
  facet normal 0 1 -0
    outer loop
      vertex 25.5 -10.5 3
      vertex 8.38974 -10.5 35
      vertex 25.5 -10.5 35
    endloop
  endfacet
  facet normal 0 1 0
    outer loop
      vertex 8.38974 -10.5 35
      vertex 25.5 -10.5 3
      vertex 8.38974 -10.5 3
    endloop
  endfacet
  facet normal -0.994522 0.104529 0
    outer loop
      vertex 11.2487 -2.39098 2
      vertex 11.5 0 3
      vertex 11.5 0 2
    endloop
  endfacet
  facet normal -0.994522 0.104529 0
    outer loop
      vertex 11.5 0 3
      vertex 11.2487 -2.39098 2
      vertex 11.2487 -2.39098 3
    endloop
  endfacet
  facet normal -0.994522 -0.104529 0
    outer loop
      vertex 11.5 0 2
      vertex 11.2487 2.39098 3
      vertex 11.2487 2.39098 2
    endloop
  endfacet
  facet normal -0.994522 -0.104529 0
    outer loop
      vertex 11.2487 2.39098 3
      vertex 11.5 0 2
      vertex 11.5 0 3
    endloop
  endfacet
  facet normal -1 0 0
    outer loop
      vertex -70.5 12 0
      vertex -70.5 10.5 3
      vertex -70.5 12 35
    endloop
  endfacet
  facet normal -1 0 0
    outer loop
      vertex -70.5 12 0
      vertex -70.5 -10.5 3
      vertex -70.5 10.5 3
    endloop
  endfacet
  facet normal -1 0 0
    outer loop
      vertex -70.5 -12 0
      vertex -70.5 -10.5 3
      vertex -70.5 12 0
    endloop
  endfacet
  facet normal -1 0 0
    outer loop
      vertex -70.5 -12 35
      vertex -70.5 -10.5 3
      vertex -70.5 -12 0
    endloop
  endfacet
  facet normal -1 0 0
    outer loop
      vertex -70.5 -10.5 3
      vertex -70.5 -12 35
      vertex -70.5 -10.5 35
    endloop
  endfacet
  facet normal -1 -0 0
    outer loop
      vertex -70.5 12 35
      vertex -70.5 10.5 3
      vertex -70.5 10.5 35
    endloop
  endfacet
  facet normal 0 -1 0
    outer loop
      vertex -70.5 -12 0
      vertex -46.0567 -12 35
      vertex -70.5 -12 35
    endloop
  endfacet
  facet normal 0 -1 -0
    outer loop
      vertex -46.0567 -12 35
      vertex -70.5 -12 0
      vertex -46.0567 -12 0
    endloop
  endfacet
  facet normal 0 1 -0
    outer loop
      vertex -46.0567 12 0
      vertex -70.5 12 35
      vertex -46.0567 12 35
    endloop
  endfacet
  facet normal 0 1 0
    outer loop
      vertex -70.5 12 35
      vertex -46.0567 12 0
      vertex -70.5 12 0
    endloop
  endfacet
  facet normal 0 1 -0
    outer loop
      vertex -48.3897 -10.5 3
      vertex -70.5 -10.5 35
      vertex -48.3897 -10.5 35
    endloop
  endfacet
  facet normal 0 1 0
    outer loop
      vertex -70.5 -10.5 35
      vertex -48.3897 -10.5 3
      vertex -70.5 -10.5 3
    endloop
  endfacet
  facet normal 0 0 1
    outer loop
      vertex -53.205 2.80681 3
      vertex -70.5 10.5 3
      vertex -53.5 1.65327e-15 3
    endloop
  endfacet
  facet normal 0 0 1
    outer loop
      vertex -52.3329 5.49094 3
      vertex -70.5 10.5 3
      vertex -53.205 2.80681 3
    endloop
  endfacet
  facet normal 0 0 1
    outer loop
      vertex -50.9217 7.9351 3
      vertex -70.5 10.5 3
      vertex -52.3329 5.49094 3
    endloop
  endfacet
  facet normal 0 0 1
    outer loop
      vertex -49.0333 10.0325 3
      vertex -70.5 10.5 3
      vertex -50.9217 7.9351 3
    endloop
  endfacet
  facet normal -0 0 1
    outer loop
      vertex -70.5 10.5 3
      vertex -49.0333 10.0325 3
      vertex -48.3897 10.5 3
    endloop
  endfacet
  facet normal 0 0 1
    outer loop
      vertex -70.5 -10.5 3
      vertex -53.5 1.65327e-15 3
      vertex -70.5 10.5 3
    endloop
  endfacet
  facet normal 0 0 1
    outer loop
      vertex -53.5 1.65327e-15 3
      vertex -70.5 -10.5 3
      vertex -53.205 -2.80681 3
    endloop
  endfacet
  facet normal 0 0 1
    outer loop
      vertex -53.205 -2.80681 3
      vertex -70.5 -10.5 3
      vertex -52.3329 -5.49094 3
    endloop
  endfacet
  facet normal 0 0 1
    outer loop
      vertex -52.3329 -5.49094 3
      vertex -70.5 -10.5 3
      vertex -50.9217 -7.9351 3
    endloop
  endfacet
  facet normal 0 0 1
    outer loop
      vertex -49.0333 -10.0325 3
      vertex -70.5 -10.5 3
      vertex -48.3897 -10.5 3
    endloop
  endfacet
  facet normal 0 0 1
    outer loop
      vertex -50.9217 -7.9351 3
      vertex -70.5 -10.5 3
      vertex -49.0333 -10.0325 3
    endloop
  endfacet
  facet normal -0 0 1
    outer loop
      vertex -51.5 1.40834e-15 3
      vertex -51.2487 -2.39098 3
      vertex -51.5 3.85764e-15 3
    endloop
  endfacet
  facet normal 0 -1 0
    outer loop
      vertex -70.5 10.5 3
      vertex -48.3897 10.5 35
      vertex -70.5 10.5 35
    endloop
  endfacet
  facet normal 0 -1 -0
    outer loop
      vertex -48.3897 10.5 35
      vertex -70.5 10.5 3
      vertex -48.3897 10.5 3
    endloop
  endfacet
  facet normal 0.994522 -0.104529 0
    outer loop
      vertex -51.5 1.57473e-08 3
      vertex -51.2487 2.39098 2
      vertex -51.2487 2.39098 3
    endloop
  endfacet
  facet normal 0.994522 -0.104529 0
    outer loop
      vertex -51.2487 2.39098 2
      vertex -51.5 1.57473e-08 3
      vertex -51.5 1.57473e-08 2
    endloop
  endfacet
  facet normal 0.994522 0.104529 0
    outer loop
      vertex -51.2487 -2.39098 3
      vertex -51.5 3.85764e-15 2
      vertex -51.5 3.85764e-15 3
    endloop
  endfacet
  facet normal 0.994522 0.104529 0
    outer loop
      vertex -51.5 3.85764e-15 2
      vertex -51.2487 -2.39098 3
      vertex -51.2487 -2.39098 2
    endloop
  endfacet
  facet normal 1 -0 0
    outer loop
      vertex 3 13.0883 35
      vertex 3 35.5 0
      vertex 3 35.5 35
    endloop
  endfacet
  facet normal 1 0 0
    outer loop
      vertex 3 35.5 0
      vertex 3 13.0883 35
      vertex 3 13.0883 0
    endloop
  endfacet
  facet normal -1 0 0
    outer loop
      vertex -6 35.5 0
      vertex -6 38.5 35
      vertex -6 38.5 0
    endloop
  endfacet
  facet normal -1 -0 0
    outer loop
      vertex -6 38.5 35
      vertex -6 35.5 0
      vertex -6 35.5 35
    endloop
  endfacet
  facet normal -1 0 0
    outer loop
      vertex -6 62.5 0
      vertex -6 65.5 35
      vertex -6 65.5 0
    endloop
  endfacet
  facet normal -1 -0 0
    outer loop
      vertex -6 65.5 35
      vertex -6 62.5 0
      vertex -6 62.5 35
    endloop
  endfacet
  facet normal 1 -0 0
    outer loop
      vertex 9 35.5 35
      vertex 9 65.5 0
      vertex 9 65.5 35
    endloop
  endfacet
  facet normal 1 0 0
    outer loop
      vertex 9 65.5 0
      vertex 9 35.5 35
      vertex 9 35.5 0
    endloop
  endfacet
  facet normal 0 -1 0
    outer loop
      vertex -6 35.5 0
      vertex 0 35.5 35
      vertex -6 35.5 35
    endloop
  endfacet
  facet normal 0 -1 -0
    outer loop
      vertex 0 35.5 35
      vertex -6 35.5 0
      vertex 0 35.5 0
    endloop
  endfacet
  facet normal 0 -1 0
    outer loop
      vertex 3 35.5 0
      vertex 9 35.5 35
      vertex 3 35.5 35
    endloop
  endfacet
  facet normal 0 -1 -0
    outer loop
      vertex 9 35.5 35
      vertex 3 35.5 0
      vertex 9 35.5 0
    endloop
  endfacet
  facet normal 0 1 -0
    outer loop
      vertex 9 65.5 0
      vertex -6 65.5 35
      vertex 9 65.5 35
    endloop
  endfacet
  facet normal 0 1 0
    outer loop
      vertex -6 65.5 35
      vertex 9 65.5 0
      vertex -6 65.5 0
    endloop
  endfacet
  facet normal -1 0 0
    outer loop
      vertex 6 38.5 0
      vertex 6 62.5 35
      vertex 6 62.5 0
    endloop
  endfacet
  facet normal -1 -0 0
    outer loop
      vertex 6 62.5 35
      vertex 6 38.5 0
      vertex 6 38.5 35
    endloop
  endfacet
  facet normal 0 1 -0
    outer loop
      vertex 6 38.5 0
      vertex -6 38.5 35
      vertex 6 38.5 35
    endloop
  endfacet
  facet normal 0 1 0
    outer loop
      vertex -6 38.5 35
      vertex 6 38.5 0
      vertex -6 38.5 0
    endloop
  endfacet
  facet normal 0 -1 0
    outer loop
      vertex -6 62.5 0
      vertex 6 62.5 35
      vertex -6 62.5 35
    endloop
  endfacet
  facet normal 0 -1 -0
    outer loop
      vertex 6 62.5 35
      vertex -6 62.5 0
      vertex 6 62.5 0
    endloop
  endfacet
  facet normal 0 0 1
    outer loop
      vertex 49.5 -46.5 20
      vertex 48 -48.5 20
      vertex 49.5 -53.5 20
    endloop
  endfacet
  facet normal 0 0 1
    outer loop
      vertex 49.5 -46.5 20
      vertex 45 -48.5 20
      vertex 48 -48.5 20
    endloop
  endfacet
  facet normal 0 0 1
    outer loop
      vertex 45 -48.5 20
      vertex 43.5 -50 20
      vertex 45 -51.5 20
    endloop
  endfacet
  facet normal 0 0 1
    outer loop
      vertex 45 -48.5 20
      vertex 43.205 -47.1932 20
      vertex 43.5 -50 20
    endloop
  endfacet
  facet normal -0 0 1
    outer loop
      vertex 42.9798 -46.5 20
      vertex 45 -48.5 20
      vertex 49.5 -46.5 20
    endloop
  endfacet
  facet normal 0 0 1
    outer loop
      vertex 45 -48.5 20
      vertex 42.9798 -46.5 20
      vertex 43.205 -47.1932 20
    endloop
  endfacet
  facet normal -0 0 1
    outer loop
      vertex 48 -51.5 20
      vertex 49.5 -53.5 20
      vertex 48 -48.5 20
    endloop
  endfacet
  facet normal -0 0 1
    outer loop
      vertex 45 -51.5 20
      vertex 49.5 -53.5 20
      vertex 48 -51.5 20
    endloop
  endfacet
  facet normal 0 0 1
    outer loop
      vertex 43.205 -52.8068 20
      vertex 45 -51.5 20
      vertex 43.5 -50 20
    endloop
  endfacet
  facet normal 0 0 1
    outer loop
      vertex 42.9798 -53.5 20
      vertex 45 -51.5 20
      vertex 43.205 -52.8068 20
    endloop
  endfacet
  facet normal 0 0 1
    outer loop
      vertex 45 -51.5 20
      vertex 42.9798 -53.5 20
      vertex 49.5 -53.5 20
    endloop
  endfacet
  facet normal 1 -0 0
    outer loop
      vertex 49.5 -53.5 20
      vertex 49.5 -46.5 0
      vertex 49.5 -46.5 20
    endloop
  endfacet
  facet normal 1 0 0
    outer loop
      vertex 49.5 -46.5 0
      vertex 49.5 -53.5 20
      vertex 49.5 -53.5 0
    endloop
  endfacet
  facet normal 0 1 -0
    outer loop
      vertex 49.5 -46.5 0
      vertex 42.9798 -46.5 20
      vertex 49.5 -46.5 20
    endloop
  endfacet
  facet normal 0 1 0
    outer loop
      vertex 42.9798 -46.5 20
      vertex 49.5 -46.5 0
      vertex 42.9798 -46.5 0
    endloop
  endfacet
  facet normal 0 0 -1
    outer loop
      vertex 49.5 -53.5 0
      vertex 43.5 -50 0
      vertex 49.5 -46.5 0
    endloop
  endfacet
  facet normal 0 0 -1
    outer loop
      vertex 49.5 -53.5 0
      vertex 43.205 -52.8068 0
      vertex 43.5 -50 0
    endloop
  endfacet
  facet normal 0 -0 -1
    outer loop
      vertex 43.205 -52.8068 0
      vertex 49.5 -53.5 0
      vertex 42.9798 -53.5 0
    endloop
  endfacet
  facet normal 0 0 -1
    outer loop
      vertex 43.205 -47.1932 0
      vertex 49.5 -46.5 0
      vertex 43.5 -50 0
    endloop
  endfacet
  facet normal -0 0 -1
    outer loop
      vertex 49.5 -46.5 0
      vertex 43.205 -47.1932 0
      vertex 42.9798 -46.5 0
    endloop
  endfacet
  facet normal 0 -1 0
    outer loop
      vertex 42.9798 -53.5 0
      vertex 49.5 -53.5 20
      vertex 42.9798 -53.5 20
    endloop
  endfacet
  facet normal 0 -1 -0
    outer loop
      vertex 49.5 -53.5 20
      vertex 42.9798 -53.5 0
      vertex 49.5 -53.5 0
    endloop
  endfacet
  facet normal -0.994522 0.104528 0
    outer loop
      vertex 43.205 -52.8068 0
      vertex 43.5 -50 20
      vertex 43.5 -50 0
    endloop
  endfacet
  facet normal -0.994522 0.104528 0
    outer loop
      vertex 43.5 -50 20
      vertex 43.205 -52.8068 0
      vertex 43.205 -52.8068 20
    endloop
  endfacet
  facet normal -0.951055 -0.309021 0
    outer loop
      vertex 43.205 -47.1932 0
      vertex 42.9798 -46.5 20
      vertex 42.9798 -46.5 0
    endloop
  endfacet
  facet normal -0.951055 -0.309021 0
    outer loop
      vertex 42.9798 -46.5 20
      vertex 43.205 -47.1932 0
      vertex 43.205 -47.1932 20
    endloop
  endfacet
  facet normal -0.994522 -0.104528 0
    outer loop
      vertex 43.5 -50 0
      vertex 43.205 -47.1932 20
      vertex 43.205 -47.1932 0
    endloop
  endfacet
  facet normal -0.994522 -0.104528 0
    outer loop
      vertex 43.205 -47.1932 20
      vertex 43.5 -50 0
      vertex 43.5 -50 20
    endloop
  endfacet
  facet normal -0.951055 0.309021 0
    outer loop
      vertex 42.9798 -53.5 0
      vertex 43.205 -52.8068 20
      vertex 43.205 -52.8068 0
    endloop
  endfacet
  facet normal -0.951055 0.309021 0
    outer loop
      vertex 43.205 -52.8068 20
      vertex 42.9798 -53.5 0
      vertex 42.9798 -53.5 20
    endloop
  endfacet
  facet normal 1 -0 0
    outer loop
      vertex 45 -51.5 20
      vertex 45 -48.5 10
      vertex 45 -48.5 20
    endloop
  endfacet
  facet normal 1 0 0
    outer loop
      vertex 45 -48.5 10
      vertex 45 -51.5 20
      vertex 45 -51.5 10
    endloop
  endfacet
  facet normal -1 0 0
    outer loop
      vertex 48 -51.5 10
      vertex 48 -48.5 20
      vertex 48 -48.5 10
    endloop
  endfacet
  facet normal -1 -0 0
    outer loop
      vertex 48 -48.5 20
      vertex 48 -51.5 10
      vertex 48 -51.5 20
    endloop
  endfacet
  facet normal -0 0 1
    outer loop
      vertex 45 -48.5 10
      vertex 48 -51.5 10
      vertex 48 -48.5 10
    endloop
  endfacet
  facet normal 0 0 1
    outer loop
      vertex 48 -51.5 10
      vertex 45 -48.5 10
      vertex 45 -51.5 10
    endloop
  endfacet
  facet normal 0 1 -0
    outer loop
      vertex 48 -51.5 10
      vertex 45 -51.5 20
      vertex 48 -51.5 20
    endloop
  endfacet
  facet normal 0 1 0
    outer loop
      vertex 45 -51.5 20
      vertex 48 -51.5 10
      vertex 45 -51.5 10
    endloop
  endfacet
  facet normal 0 -1 0
    outer loop
      vertex 45 -48.5 10
      vertex 48 -48.5 20
      vertex 45 -48.5 20
    endloop
  endfacet
  facet normal 0 -1 -0
    outer loop
      vertex 48 -48.5 20
      vertex 45 -48.5 10
      vertex 48 -48.5 10
    endloop
  endfacet
  facet normal -1 0 0
    outer loop
      vertex 50 -40 0
      vertex 50 50 3
      vertex 50 50 0
    endloop
  endfacet
  facet normal -1 -0 0
    outer loop
      vertex 50 50 3
      vertex 50 -40 0
      vertex 50 -40 3
    endloop
  endfacet
  facet normal -0 0 1
    outer loop
      vertex 54.9423 -33.0994 3
      vertex 58 -40 3
      vertex 58 50 3
    endloop
  endfacet
  facet normal 0 0 1
    outer loop
      vertex 58 -40 3
      vertex 54.9423 -33.0994 3
      vertex 55.9006 -35.9423 3
    endloop
  endfacet
  facet normal -0 0 1
    outer loop
      vertex 50 50 3
      vertex 54.9423 -33.0994 3
      vertex 58 50 3
    endloop
  endfacet
  facet normal 0 0 1
    outer loop
      vertex 54.9423 -33.0994 3
      vertex 50 50 3
      vertex 52.0994 -34.0577 3
    endloop
  endfacet
  facet normal -0 0 1
    outer loop
      vertex 53.0577 -36.9006 3
      vertex 58 -40 3
      vertex 55.9006 -35.9423 3
    endloop
  endfacet
  facet normal 0 0 1
    outer loop
      vertex 53.0577 -36.9006 3
      vertex 50 -40 3
      vertex 58 -40 3
    endloop
  endfacet
  facet normal 0 0 1
    outer loop
      vertex 52.0994 -34.0577 3
      vertex 50 -40 3
      vertex 53.0577 -36.9006 3
    endloop
  endfacet
  facet normal 0 0 1
    outer loop
      vertex 50 -40 3
      vertex 52.0994 -34.0577 3
      vertex 50 50 3
    endloop
  endfacet
  facet normal 1 -0 0
    outer loop
      vertex 58 -40 3
      vertex 58 50 0
      vertex 58 50 3
    endloop
  endfacet
  facet normal 1 0 0
    outer loop
      vertex 58 50 0
      vertex 58 -40 3
      vertex 58 -40 0
    endloop
  endfacet
  facet normal 0 0 -1
    outer loop
      vertex 54.9423 -33.0994 0
      vertex 58 -40 0
      vertex 55.9006 -35.9423 0
    endloop
  endfacet
  facet normal 0 0 -1
    outer loop
      vertex 58 -40 0
      vertex 53.0577 -36.9006 0
      vertex 55.9006 -35.9423 0
    endloop
  endfacet
  facet normal -0 0 -1
    outer loop
      vertex 53.0577 -36.9006 0
      vertex 50 -40 0
      vertex 52.0994 -34.0577 0
    endloop
  endfacet
  facet normal 0 0 -1
    outer loop
      vertex 50 -40 0
      vertex 53.0577 -36.9006 0
      vertex 58 -40 0
    endloop
  endfacet
  facet normal 0 0 -1
    outer loop
      vertex 58 -40 0
      vertex 54.9423 -33.0994 0
      vertex 58 50 0
    endloop
  endfacet
  facet normal 0 0 -1
    outer loop
      vertex 50 50 0
      vertex 54.9423 -33.0994 0
      vertex 52.0994 -34.0577 0
    endloop
  endfacet
  facet normal 0 0 -1
    outer loop
      vertex 50 50 0
      vertex 52.0994 -34.0577 0
      vertex 50 -40 0
    endloop
  endfacet
  facet normal 0 0 -1
    outer loop
      vertex 54.9423 -33.0994 0
      vertex 50 50 0
      vertex 58 50 0
    endloop
  endfacet
  facet normal 0 -1 0
    outer loop
      vertex 50 -40 0
      vertex 58 -40 3
      vertex 50 -40 3
    endloop
  endfacet
  facet normal 0 -1 -0
    outer loop
      vertex 58 -40 3
      vertex 50 -40 0
      vertex 58 -40 0
    endloop
  endfacet
  facet normal 0 1 -0
    outer loop
      vertex 58 50 0
      vertex 50 50 3
      vertex 58 50 3
    endloop
  endfacet
  facet normal 0 1 0
    outer loop
      vertex 50 50 3
      vertex 58 50 0
      vertex 50 50 0
    endloop
  endfacet
  facet normal -0.947613 -0.31942 0
    outer loop
      vertex 55.9006 -35.9423 0
      vertex 54.9423 -33.0994 3
      vertex 54.9423 -33.0994 0
    endloop
  endfacet
  facet normal -0.947613 -0.31942 0
    outer loop
      vertex 54.9423 -33.0994 3
      vertex 55.9006 -35.9423 0
      vertex 55.9006 -35.9423 3
    endloop
  endfacet
  facet normal 0.947613 0.31942 0
    outer loop
      vertex 53.0577 -36.9006 3
      vertex 52.0994 -34.0577 0
      vertex 52.0994 -34.0577 3
    endloop
  endfacet
  facet normal 0.947613 0.31942 0
    outer loop
      vertex 52.0994 -34.0577 0
      vertex 53.0577 -36.9006 3
      vertex 53.0577 -36.9006 0
    endloop
  endfacet
  facet normal -0.31942 0.947613 0
    outer loop
      vertex 55.9006 -35.9423 0
      vertex 53.0577 -36.9006 3
      vertex 55.9006 -35.9423 3
    endloop
  endfacet
  facet normal -0.31942 0.947613 0
    outer loop
      vertex 53.0577 -36.9006 3
      vertex 55.9006 -35.9423 0
      vertex 53.0577 -36.9006 0
    endloop
  endfacet
  facet normal 0.31942 -0.947613 0
    outer loop
      vertex 52.0994 -34.0577 0
      vertex 54.9423 -33.0994 3
      vertex 52.0994 -34.0577 3
    endloop
  endfacet
  facet normal 0.31942 -0.947613 0
    outer loop
      vertex 54.9423 -33.0994 3
      vertex 52.0994 -34.0577 0
      vertex 54.9423 -33.0994 0
    endloop
  endfacet
  facet normal -1 0 0
    outer loop
      vertex 28.5 -51.5 0
      vertex 28.5 -48.5 40
      vertex 28.5 -48.5 0
    endloop
  endfacet
  facet normal -1 -0 0
    outer loop
      vertex 28.5 -48.5 40
      vertex 28.5 -51.5 0
      vertex 28.5 -51.5 40
    endloop
  endfacet
  facet normal -0 0 1
    outer loop
      vertex 28.5 -48.5 40
      vertex 31.5 -51.5 40
      vertex 31.5 -48.5 40
    endloop
  endfacet
  facet normal 0 0 1
    outer loop
      vertex 31.5 -51.5 40
      vertex 28.5 -48.5 40
      vertex 28.5 -51.5 40
    endloop
  endfacet
  facet normal 1 -0 0
    outer loop
      vertex 31.5 -51.5 40
      vertex 31.5 -48.5 0
      vertex 31.5 -48.5 40
    endloop
  endfacet
  facet normal 1 0 0
    outer loop
      vertex 31.5 -48.5 0
      vertex 31.5 -51.5 40
      vertex 31.5 -51.5 0
    endloop
  endfacet
  facet normal 0 0 -1
    outer loop
      vertex 28.5 -51.5 0
      vertex 31.5 -48.5 0
      vertex 31.5 -51.5 0
    endloop
  endfacet
  facet normal -0 0 -1
    outer loop
      vertex 31.5 -48.5 0
      vertex 28.5 -51.5 0
      vertex 28.5 -48.5 0
    endloop
  endfacet
  facet normal 0 -1 0
    outer loop
      vertex 28.5 -51.5 0
      vertex 31.5 -51.5 40
      vertex 28.5 -51.5 40
    endloop
  endfacet
  facet normal 0 -1 -0
    outer loop
      vertex 31.5 -51.5 40
      vertex 28.5 -51.5 0
      vertex 31.5 -51.5 0
    endloop
  endfacet
  facet normal 0 1 -0
    outer loop
      vertex 31.5 -48.5 0
      vertex 28.5 -48.5 40
      vertex 31.5 -48.5 40
    endloop
  endfacet
  facet normal 0 1 0
    outer loop
      vertex 28.5 -48.5 40
      vertex 31.5 -48.5 0
      vertex 28.5 -48.5 0
    endloop
  endfacet
endsolid OpenSCAD_Model
