solid OpenSCAD_Model
  facet normal -0.994522 -0.104529 0
    outer loop
      vertex 11.5 0 3
      vertex 11.2487 2.39098 20
      vertex 11.2487 2.39098 3
    endloop
  endfacet
  facet normal -0.994522 -0.104529 0
    outer loop
      vertex 11.2487 2.39098 20
      vertex 11.5 0 3
      vertex 11.5 0 20
    endloop
  endfacet
  facet normal 0 -1 0
    outer loop
      vertex 0 11.437 2
      vertex 1.20208 11.437 20
      vertex 0 11.437 20
    endloop
  endfacet
  facet normal 0 -1 -0
    outer loop
      vertex 1.20208 11.437 20
      vertex 0 11.437 2
      vertex 1.20208 11.437 2
    endloop
  endfacet
  facet normal 0 1 -0
    outer loop
      vertex 1.20208 -11.437 2
      vertex 0 -11.437 20
      vertex 1.20208 -11.437 20
    endloop
  endfacet
  facet normal 0 1 0
    outer loop
      vertex 0 -11.437 20
      vertex 1.20208 -11.437 2
      vertex 0 -11.437 2
    endloop
  endfacet
  facet normal -0.743145 -0.66913 0
    outer loop
      vertex 9.30369 6.75953 2
      vertex 7.695 8.54617 20
      vertex 7.695 8.54617 2
    endloop
  endfacet
  facet normal -0.743145 -0.66913 0
    outer loop
      vertex 7.695 8.54617 20
      vertex 9.30369 6.75953 2
      vertex 9.30369 6.75953 20
    endloop
  endfacet
  facet normal -0.951057 -0.309017 -0
    outer loop
      vertex 11.2487 2.39098 3
      vertex 10.5058 4.67747 2
      vertex 11.2487 2.39098 2
    endloop
  endfacet
  facet normal -0.951057 -0.309017 0
    outer loop
      vertex 10.5058 4.67747 2
      vertex 11.2487 2.39098 3
      vertex 10.5058 4.67747 20
    endloop
  endfacet
  facet normal -0.951057 -0.309017 -4.33385e-09
    outer loop
      vertex 11.2487 2.39098 3
      vertex 11.2487 2.39098 20
      vertex 10.5058 4.67747 20
    endloop
  endfacet
  facet normal -0.866025 0.5 0
    outer loop
      vertex 9.30369 -6.75953 2
      vertex 10.5058 -4.67747 20
      vertex 10.5058 -4.67747 2
    endloop
  endfacet
  facet normal -0.866025 0.5 0
    outer loop
      vertex 10.5058 -4.67747 20
      vertex 9.30369 -6.75953 2
      vertex 9.30369 -6.75953 20
    endloop
  endfacet
  facet normal -0.866025 -0.5 0
    outer loop
      vertex 10.5058 4.67747 2
      vertex 9.30369 6.75953 20
      vertex 9.30369 6.75953 2
    endloop
  endfacet
  facet normal -0.866025 -0.5 0
    outer loop
      vertex 9.30369 6.75953 20
      vertex 10.5058 4.67747 2
      vertex 10.5058 4.67747 20
    endloop
  endfacet
  facet normal -0.406736 -0.913546 0
    outer loop
      vertex 3.55369 10.9371 2
      vertex 5.75 9.95929 20
      vertex 3.55369 10.9371 20
    endloop
  endfacet
  facet normal -0.406736 -0.913546 -0
    outer loop
      vertex 5.75 9.95929 20
      vertex 3.55369 10.9371 2
      vertex 5.75 9.95929 2
    endloop
  endfacet
  facet normal -0.207912 -0.978148 0
    outer loop
      vertex 1.20208 11.437 2
      vertex 3.55369 10.9371 20
      vertex 1.20208 11.437 20
    endloop
  endfacet
  facet normal -0.207912 -0.978148 -0
    outer loop
      vertex 3.55369 10.9371 20
      vertex 1.20208 11.437 2
      vertex 3.55369 10.9371 2
    endloop
  endfacet
  facet normal -0.587785 -0.809017 0
    outer loop
      vertex 5.75 9.95929 2
      vertex 7.695 8.54617 20
      vertex 5.75 9.95929 20
    endloop
  endfacet
  facet normal -0.587785 -0.809017 -0
    outer loop
      vertex 7.695 8.54617 20
      vertex 5.75 9.95929 2
      vertex 7.695 8.54617 2
    endloop
  endfacet
  facet normal -0 0 1
    outer loop
      vertex 9.33247 1.59399 2
      vertex 11.5 0 2
      vertex 11.2487 2.39098 2
    endloop
  endfacet
  facet normal 0 0 1
    outer loop
      vertex 9.17396 2.33967 2
      vertex 11.2487 2.39098 2
      vertex 10.5058 4.67747 2
    endloop
  endfacet
  facet normal 0 0 1
    outer loop
      vertex 11.5 0 2
      vertex 9.33247 1.59399 2
      vertex 9.5 0 2
    endloop
  endfacet
  facet normal 0 0 1
    outer loop
      vertex 11.5 0 2
      vertex 9.33247 -1.59399 2
      vertex 11.2487 -2.39098 2
    endloop
  endfacet
  facet normal 0 0 1
    outer loop
      vertex 9.33247 -1.59399 2
      vertex 11.5 0 2
      vertex 9.5 0 2
    endloop
  endfacet
  facet normal -0 0 1
    outer loop
      vertex 7.8773 5.25204 2
      vertex 10.5058 4.67747 2
      vertex 9.30369 6.75953 2
    endloop
  endfacet
  facet normal 0 0 1
    outer loop
      vertex 11.2487 2.39098 2
      vertex 9.2924 1.97516 2
      vertex 9.33247 1.59399 2
    endloop
  endfacet
  facet normal 0 0 1
    outer loop
      vertex 11.2487 2.39098 2
      vertex 9.17396 2.33967 2
      vertex 9.2924 1.97516 2
    endloop
  endfacet
  facet normal 0 0 1
    outer loop
      vertex 10.5058 4.67747 2
      vertex 8.67868 3.864 2
      vertex 9.17396 2.33967 2
    endloop
  endfacet
  facet normal 0 0 1
    outer loop
      vertex 10.5058 4.67747 2
      vertex 7.8773 5.25204 2
      vertex 8.67868 3.864 2
    endloop
  endfacet
  facet normal 0 0 1
    outer loop
      vertex 7.4292 5.86879 2
      vertex 9.30369 6.75953 2
      vertex 7.695 8.54617 2
    endloop
  endfacet
  facet normal 0 0 1
    outer loop
      vertex 9.30369 6.75953 2
      vertex 7.68566 5.58396 2
      vertex 7.8773 5.25204 2
    endloop
  endfacet
  facet normal 0 0 1
    outer loop
      vertex 9.30369 6.75953 2
      vertex 7.4292 5.86879 2
      vertex 7.68566 5.58396 2
    endloop
  endfacet
  facet normal 0 0 1
    outer loop
      vertex 7.695 8.54617 2
      vertex 6.35674 7.05988 2
      vertex 7.4292 5.86879 2
    endloop
  endfacet
  facet normal 0 0 1
    outer loop
      vertex 5.06007 8.00196 2
      vertex 7.695 8.54617 2
      vertex 5.75 9.95929 2
    endloop
  endfacet
  facet normal 0 0 1
    outer loop
      vertex 7.695 8.54617 2
      vertex 5.06007 8.00196 2
      vertex 6.35674 7.05988 2
    endloop
  endfacet
  facet normal 0 0 1
    outer loop
      vertex 5.75 9.95929 2
      vertex 4.75 8.22724 2
      vertex 5.06007 8.00196 2
    endloop
  endfacet
  facet normal 0 0 1
    outer loop
      vertex 5.75 9.95929 2
      vertex 4.39986 8.38313 2
      vertex 4.75 8.22724 2
    endloop
  endfacet
  facet normal 0 0 1
    outer loop
      vertex 3.55369 10.9371 2
      vertex 4.39986 8.38313 2
      vertex 5.75 9.95929 2
    endloop
  endfacet
  facet normal 0 0 1
    outer loop
      vertex 3.55369 10.9371 2
      vertex 2.93566 9.03504 2
      vertex 4.39986 8.38313 2
    endloop
  endfacet
  facet normal 0 0 1
    outer loop
      vertex 3.55369 10.9371 2
      vertex 1.36792 9.36827 2
      vertex 2.93566 9.03504 2
    endloop
  endfacet
  facet normal 0 0 1
    outer loop
      vertex 1.20208 11.437 2
      vertex 1.36792 9.36827 2
      vertex 3.55369 10.9371 2
    endloop
  endfacet
  facet normal 0 0 1
    outer loop
      vertex 1.20208 11.437 2
      vertex 0.99302 9.44796 2
      vertex 1.36792 9.36827 2
    endloop
  endfacet
  facet normal -0 0 1
    outer loop
      vertex 0 11.437 2
      vertex 0.99302 9.44796 2
      vertex 1.20208 11.437 2
    endloop
  endfacet
  facet normal 0 0 1
    outer loop
      vertex 0.99302 9.44796 2
      vertex 0 11.437 2
      vertex 0 9.44796 2
    endloop
  endfacet
  facet normal -0 0 1
    outer loop
      vertex 9.2924 -1.97516 2
      vertex 11.2487 -2.39098 2
      vertex 9.33247 -1.59399 2
    endloop
  endfacet
  facet normal -0 0 1
    outer loop
      vertex 9.17396 -2.33967 2
      vertex 11.2487 -2.39098 2
      vertex 9.2924 -1.97516 2
    endloop
  endfacet
  facet normal 0 0 1
    outer loop
      vertex 11.2487 -2.39098 2
      vertex 9.17396 -2.33967 2
      vertex 10.5058 -4.67747 2
    endloop
  endfacet
  facet normal -0 0 1
    outer loop
      vertex 8.67868 -3.864 2
      vertex 10.5058 -4.67747 2
      vertex 9.17396 -2.33967 2
    endloop
  endfacet
  facet normal 0 0 1
    outer loop
      vertex 7.8773 -5.25204 2
      vertex 10.5058 -4.67747 2
      vertex 8.67868 -3.864 2
    endloop
  endfacet
  facet normal 0 0 1
    outer loop
      vertex 10.5058 -4.67747 2
      vertex 7.8773 -5.25204 2
      vertex 9.30369 -6.75953 2
    endloop
  endfacet
  facet normal -0 0 1
    outer loop
      vertex 7.68566 -5.58396 2
      vertex 9.30369 -6.75953 2
      vertex 7.8773 -5.25204 2
    endloop
  endfacet
  facet normal -0 0 1
    outer loop
      vertex 7.4292 -5.86879 2
      vertex 9.30369 -6.75953 2
      vertex 7.68566 -5.58396 2
    endloop
  endfacet
  facet normal 0 0 1
    outer loop
      vertex 9.30369 -6.75953 2
      vertex 7.4292 -5.86879 2
      vertex 7.695 -8.54617 2
    endloop
  endfacet
  facet normal -0 0 1
    outer loop
      vertex 6.35674 -7.05988 2
      vertex 7.695 -8.54617 2
      vertex 7.4292 -5.86879 2
    endloop
  endfacet
  facet normal -0 0 1
    outer loop
      vertex 5.06007 -8.00196 2
      vertex 7.695 -8.54617 2
      vertex 6.35674 -7.05988 2
    endloop
  endfacet
  facet normal 0 0 1
    outer loop
      vertex 7.695 -8.54617 2
      vertex 5.06007 -8.00196 2
      vertex 5.75 -9.95929 2
    endloop
  endfacet
  facet normal -0 0 1
    outer loop
      vertex 4.75 -8.22724 2
      vertex 5.75 -9.95929 2
      vertex 5.06007 -8.00196 2
    endloop
  endfacet
  facet normal -0 0 1
    outer loop
      vertex 4.39986 -8.38313 2
      vertex 5.75 -9.95929 2
      vertex 4.75 -8.22724 2
    endloop
  endfacet
  facet normal 0 0 1
    outer loop
      vertex 4.39986 -8.38313 2
      vertex 3.55369 -10.9371 2
      vertex 5.75 -9.95929 2
    endloop
  endfacet
  facet normal -0 0 1
    outer loop
      vertex 2.93566 -9.03504 2
      vertex 3.55369 -10.9371 2
      vertex 4.39986 -8.38313 2
    endloop
  endfacet
  facet normal -0 0 1
    outer loop
      vertex 1.36792 -9.36827 2
      vertex 3.55369 -10.9371 2
      vertex 2.93566 -9.03504 2
    endloop
  endfacet
  facet normal 0 0 1
    outer loop
      vertex 1.36792 -9.36827 2
      vertex 1.20208 -11.437 2
      vertex 3.55369 -10.9371 2
    endloop
  endfacet
  facet normal -0 0 1
    outer loop
      vertex 0.99302 -9.44796 2
      vertex 1.20208 -11.437 2
      vertex 1.36792 -9.36827 2
    endloop
  endfacet
  facet normal 0 0 1
    outer loop
      vertex 0 -11.437 2
      vertex 0.99302 -9.44796 2
      vertex 0 -9.44796 2
    endloop
  endfacet
  facet normal 0 0 1
    outer loop
      vertex 0.99302 -9.44796 2
      vertex 0 -11.437 2
      vertex 1.20208 -11.437 2
    endloop
  endfacet
  facet normal -0.994522 0.104529 0
    outer loop
      vertex 11.2487 -2.39098 3
      vertex 11.5 0 20
      vertex 11.5 0 3
    endloop
  endfacet
  facet normal -0.994522 0.104529 0
    outer loop
      vertex 11.5 0 20
      vertex 11.2487 -2.39098 3
      vertex 11.2487 -2.39098 20
    endloop
  endfacet
  facet normal 0 0 -1
    outer loop
      vertex 5.0245 -2.23705 0
      vertex 25.5 -12 0
      vertex 6.05674 -12 0
    endloop
  endfacet
  facet normal 0 -0 -1
    outer loop
      vertex 5.5 0 0
      vertex 25.5 -12 0
      vertex 5.37981 -1.14351 0
    endloop
  endfacet
  facet normal 0 0 -1
    outer loop
      vertex 5.37981 1.14351 0
      vertex 25.5 12 0
      vertex 5.5 0 0
    endloop
  endfacet
  facet normal 0 0 -1
    outer loop
      vertex 25.5 -12 0
      vertex 5.5 0 0
      vertex 25.5 12 0
    endloop
  endfacet
  facet normal 0 0 -1
    outer loop
      vertex 25.5 -12 0
      vertex 5.0245 -2.23705 0
      vertex 5.37981 -1.14351 0
    endloop
  endfacet
  facet normal 0 0 -1
    outer loop
      vertex 6.05674 -12 0
      vertex 4.44959 -3.23282 0
      vertex 5.0245 -2.23705 0
    endloop
  endfacet
  facet normal 0 0 -1
    outer loop
      vertex 1.69959 -5.23081 0
      vertex 6.05674 -12 0
      vertex 4.17173 -12.8393 0
    endloop
  endfacet
  facet normal 0 0 -1
    outer loop
      vertex 6.05674 -12 0
      vertex 3.68022 -4.0873 0
      vertex 4.44959 -3.23282 0
    endloop
  endfacet
  facet normal 0 0 -1
    outer loop
      vertex 6.05674 -12 0
      vertex 2.75 -4.76314 0
      vertex 3.68022 -4.0873 0
    endloop
  endfacet
  facet normal 0 0 -1
    outer loop
      vertex 6.05674 -12 0
      vertex 1.69959 -5.23081 0
      vertex 2.75 -4.76314 0
    endloop
  endfacet
  facet normal 0 0 -1
    outer loop
      vertex 1.41113 -13.426 0
      vertex 1.69959 -5.23081 0
      vertex 4.17173 -12.8393 0
    endloop
  endfacet
  facet normal 0 0 -1
    outer loop
      vertex 1.41113 -13.426 0
      vertex 0.574906 -5.46987 0
      vertex 1.69959 -5.23081 0
    endloop
  endfacet
  facet normal 0 0 -1
    outer loop
      vertex 0 -13.426 0
      vertex 0.574906 -5.46987 0
      vertex 1.41113 -13.426 0
    endloop
  endfacet
  facet normal -0 0 -1
    outer loop
      vertex 0.574906 -5.46987 0
      vertex 0 -13.426 0
      vertex 0 -5.46987 0
    endloop
  endfacet
  facet normal 0 0 -1
    outer loop
      vertex 5.0245 2.23705 0
      vertex 25.5 12 0
      vertex 5.37981 1.14351 0
    endloop
  endfacet
  facet normal -0 0 -1
    outer loop
      vertex 25.5 12 0
      vertex 5.0245 2.23705 0
      vertex 6.05674 12 0
    endloop
  endfacet
  facet normal 0 0 -1
    outer loop
      vertex 4.44959 3.23282 0
      vertex 6.05674 12 0
      vertex 5.0245 2.23705 0
    endloop
  endfacet
  facet normal 0 0 -1
    outer loop
      vertex 3.68022 4.0873 0
      vertex 6.05674 12 0
      vertex 4.44959 3.23282 0
    endloop
  endfacet
  facet normal 0 0 -1
    outer loop
      vertex 2.75 4.76314 0
      vertex 6.05674 12 0
      vertex 3.68022 4.0873 0
    endloop
  endfacet
  facet normal 0 0 -1
    outer loop
      vertex 1.69959 5.23081 0
      vertex 6.05674 12 0
      vertex 2.75 4.76314 0
    endloop
  endfacet
  facet normal -0 0 -1
    outer loop
      vertex 6.05674 12 0
      vertex 1.69959 5.23081 0
      vertex 4.17173 12.8393 0
    endloop
  endfacet
  facet normal 0 0 -1
    outer loop
      vertex 1.69959 5.23081 0
      vertex 1.41113 13.426 0
      vertex 4.17173 12.8393 0
    endloop
  endfacet
  facet normal 0 0 -1
    outer loop
      vertex 0.574906 5.46987 0
      vertex 1.41113 13.426 0
      vertex 1.69959 5.23081 0
    endloop
  endfacet
  facet normal 0 0 -1
    outer loop
      vertex 0 13.426 0
      vertex 0.574906 5.46987 0
      vertex 0 5.46987 0
    endloop
  endfacet
  facet normal 0 0 -1
    outer loop
      vertex 0.574906 5.46987 0
      vertex 0 13.426 0
      vertex 1.41113 13.426 0
    endloop
  endfacet
  facet normal -0.587785 0.809017 0
    outer loop
      vertex 7.695 -8.54617 2
      vertex 5.75 -9.95929 20
      vertex 7.695 -8.54617 20
    endloop
  endfacet
  facet normal -0.587785 0.809017 0
    outer loop
      vertex 5.75 -9.95929 20
      vertex 7.695 -8.54617 2
      vertex 5.75 -9.95929 2
    endloop
  endfacet
  facet normal -0.743145 0.66913 0
    outer loop
      vertex 7.695 -8.54617 2
      vertex 9.30369 -6.75953 20
      vertex 9.30369 -6.75953 2
    endloop
  endfacet
  facet normal -0.743145 0.66913 0
    outer loop
      vertex 9.30369 -6.75953 20
      vertex 7.695 -8.54617 2
      vertex 7.695 -8.54617 20
    endloop
  endfacet
  facet normal -0.951057 0.309017 0
    outer loop
      vertex 11.2487 -2.39098 2
      vertex 10.5058 -4.67747 2
      vertex 11.2487 -2.39098 3
    endloop
  endfacet
  facet normal -0.951057 0.309017 0
    outer loop
      vertex 10.5058 -4.67747 20
      vertex 11.2487 -2.39098 3
      vertex 10.5058 -4.67747 2
    endloop
  endfacet
  facet normal -0.951057 0.309017 -4.33385e-09
    outer loop
      vertex 11.2487 -2.39098 3
      vertex 10.5058 -4.67747 20
      vertex 11.2487 -2.39098 20
    endloop
  endfacet
  facet normal -0.406736 0.913546 0
    outer loop
      vertex 5.75 -9.95929 2
      vertex 3.55369 -10.9371 20
      vertex 5.75 -9.95929 20
    endloop
  endfacet
  facet normal -0.406736 0.913546 0
    outer loop
      vertex 3.55369 -10.9371 20
      vertex 5.75 -9.95929 2
      vertex 3.55369 -10.9371 2
    endloop
  endfacet
  facet normal -0.207912 0.978148 0
    outer loop
      vertex 3.55369 -10.9371 2
      vertex 1.20208 -11.437 20
      vertex 3.55369 -10.9371 20
    endloop
  endfacet
  facet normal -0.207912 0.978148 0
    outer loop
      vertex 1.20208 -11.437 20
      vertex 3.55369 -10.9371 2
      vertex 1.20208 -11.437 2
    endloop
  endfacet
  facet normal -0.44672 -0.0469522 0.893441
    outer loop
      vertex 9.5 0 2
      vertex 9.33247 1.59399 2
      vertex 5.5 0 0
    endloop
  endfacet
  facet normal -0.44672 -0.0469524 0.893441
    outer loop
      vertex 5.37981 1.14351 0
      vertex 9.33247 1.59399 2
      vertex 9.2924 1.97516 2
    endloop
  endfacet
  facet normal -0.44672 -0.0469524 0.893441
    outer loop
      vertex 9.33247 1.59399 2
      vertex 5.37981 1.14351 0
      vertex 5.5 0 0
    endloop
  endfacet
  facet normal -0.427197 0.138805 0.893441
    outer loop
      vertex 8.67868 -3.864 2
      vertex 9.17396 -2.33967 2
      vertex 5.0245 -2.23705 0
    endloop
  endfacet
  facet normal -0.389002 0.224591 0.893441
    outer loop
      vertex 7.8773 -5.25204 2
      vertex 8.67868 -3.864 2
      vertex 5.0245 -2.23705 0
    endloop
  endfacet
  facet normal 0 -0.449181 0.893441
    outer loop
      vertex 0 9.44796 2
      vertex 0.574906 5.46987 0
      vertex 0.99302 9.44796 2
    endloop
  endfacet
  facet normal 0 -0.449181 0.893441
    outer loop
      vertex 0.574906 5.46987 0
      vertex 0 9.44796 2
      vertex 0 5.46987 0
    endloop
  endfacet
  facet normal -0.09339 0.439365 0.893441
    outer loop
      vertex 0.574906 -5.46987 0
      vertex 1.36792 -9.36827 2
      vertex 1.69959 -5.23081 0
    endloop
  endfacet
  facet normal -0.0933896 0.439365 0.893441
    outer loop
      vertex 1.36792 -9.36827 2
      vertex 0.574906 -5.46987 0
      vertex 0.99302 -9.44796 2
    endloop
  endfacet
  facet normal -0.44672 0.0469522 0.893441
    outer loop
      vertex 9.33247 -1.59399 2
      vertex 9.5 0 2
      vertex 5.5 0 0
    endloop
  endfacet
  facet normal -0.427196 0.138805 0.893441
    outer loop
      vertex 5.37981 -1.14351 0
      vertex 9.17396 -2.33967 2
      vertex 9.2924 -1.97516 2
    endloop
  endfacet
  facet normal -0.427197 0.138804 0.893441
    outer loop
      vertex 9.17396 -2.33967 2
      vertex 5.37981 -1.14351 0
      vertex 5.0245 -2.23705 0
    endloop
  endfacet
  facet normal -0.264022 0.363395 0.893441
    outer loop
      vertex 5.06007 -8.00196 2
      vertex 6.35674 -7.05988 2
      vertex 3.68022 -4.0873 0
    endloop
  endfacet
  facet normal -0.427196 -0.138805 0.893441
    outer loop
      vertex 9.17396 2.33967 2
      vertex 5.37981 1.14351 0
      vertex 9.2924 1.97516 2
    endloop
  endfacet
  facet normal -0.427197 -0.138804 0.893441
    outer loop
      vertex 5.37981 1.14351 0
      vertex 9.17396 2.33967 2
      vertex 5.0245 2.23705 0
    endloop
  endfacet
  facet normal -0.333807 0.300561 0.893441
    outer loop
      vertex 6.35674 -7.05988 2
      vertex 7.4292 -5.86879 2
      vertex 3.68022 -4.0873 0
    endloop
  endfacet
  facet normal -0.389002 0.224591 0.893441
    outer loop
      vertex 4.44959 -3.23282 0
      vertex 7.8773 -5.25204 2
      vertex 5.0245 -2.23705 0
    endloop
  endfacet
  facet normal -0.389002 0.224591 0.893441
    outer loop
      vertex 7.8773 -5.25204 2
      vertex 4.44959 -3.23282 0
      vertex 7.68566 -5.58396 2
    endloop
  endfacet
  facet normal -0.44672 0.0469524 0.893441
    outer loop
      vertex 5.37981 -1.14351 0
      vertex 9.33247 -1.59399 2
      vertex 5.5 0 0
    endloop
  endfacet
  facet normal -0.44672 0.0469524 0.893441
    outer loop
      vertex 9.33247 -1.59399 2
      vertex 5.37981 -1.14351 0
      vertex 9.2924 -1.97516 2
    endloop
  endfacet
  facet normal -0.182698 0.410347 0.893441
    outer loop
      vertex 2.93566 -9.03504 2
      vertex 4.39986 -8.38313 2
      vertex 1.69959 -5.23081 0
    endloop
  endfacet
  facet normal -0.0933901 0.439365 0.893441
    outer loop
      vertex 2.93566 -9.03504 2
      vertex 1.69959 -5.23081 0
      vertex 1.36792 -9.36827 2
    endloop
  endfacet
  facet normal -0.264022 0.363395 0.893441
    outer loop
      vertex 2.75 -4.76314 0
      vertex 5.06007 -8.00196 2
      vertex 3.68022 -4.0873 0
    endloop
  endfacet
  facet normal -0.264022 0.363395 0.893441
    outer loop
      vertex 5.06007 -8.00196 2
      vertex 2.75 -4.76314 0
      vertex 4.75 -8.22724 2
    endloop
  endfacet
  facet normal -0.0933901 -0.439365 0.893441
    outer loop
      vertex 1.69959 5.23081 0
      vertex 2.93566 9.03504 2
      vertex 1.36792 9.36827 2
    endloop
  endfacet
  facet normal -0.427197 -0.138805 0.893441
    outer loop
      vertex 9.17396 2.33967 2
      vertex 8.67868 3.864 2
      vertex 5.0245 2.23705 0
    endloop
  endfacet
  facet normal -0.333807 -0.300561 0.893441
    outer loop
      vertex 7.4292 5.86879 2
      vertex 6.35674 7.05988 2
      vertex 3.68022 4.0873 0
    endloop
  endfacet
  facet normal -0.333807 0.300561 0.893441
    outer loop
      vertex 4.44959 -3.23282 0
      vertex 7.4292 -5.86879 2
      vertex 7.68566 -5.58396 2
    endloop
  endfacet
  facet normal -0.333807 0.300561 0.893441
    outer loop
      vertex 7.4292 -5.86879 2
      vertex 4.44959 -3.23282 0
      vertex 3.68022 -4.0873 0
    endloop
  endfacet
  facet normal -0.182698 0.410347 0.893441
    outer loop
      vertex 2.75 -4.76314 0
      vertex 4.39986 -8.38313 2
      vertex 4.75 -8.22724 2
    endloop
  endfacet
  facet normal -0.182698 0.410347 0.893441
    outer loop
      vertex 4.39986 -8.38313 2
      vertex 2.75 -4.76314 0
      vertex 1.69959 -5.23081 0
    endloop
  endfacet
  facet normal 0 0.449181 0.893441
    outer loop
      vertex 0 -9.44796 2
      vertex 0.574906 -5.46987 0
      vertex 0 -5.46987 0
    endloop
  endfacet
  facet normal 0 0.449181 0.893441
    outer loop
      vertex 0.574906 -5.46987 0
      vertex 0 -9.44796 2
      vertex 0.99302 -9.44796 2
    endloop
  endfacet
  facet normal -0.182698 -0.410347 0.893441
    outer loop
      vertex 4.39986 8.38313 2
      vertex 2.75 4.76314 0
      vertex 4.75 8.22724 2
    endloop
  endfacet
  facet normal -0.182698 -0.410347 0.893441
    outer loop
      vertex 2.75 4.76314 0
      vertex 4.39986 8.38313 2
      vertex 1.69959 5.23081 0
    endloop
  endfacet
  facet normal -0.182698 -0.410347 0.893441
    outer loop
      vertex 4.39986 8.38313 2
      vertex 2.93566 9.03504 2
      vertex 1.69959 5.23081 0
    endloop
  endfacet
  facet normal -0.389002 -0.224591 0.893441
    outer loop
      vertex 8.67868 3.864 2
      vertex 7.8773 5.25204 2
      vertex 5.0245 2.23705 0
    endloop
  endfacet
  facet normal -0.264022 -0.363395 0.893441
    outer loop
      vertex 2.75 4.76314 0
      vertex 5.06007 8.00196 2
      vertex 4.75 8.22724 2
    endloop
  endfacet
  facet normal -0.264022 -0.363395 0.893441
    outer loop
      vertex 5.06007 8.00196 2
      vertex 2.75 4.76314 0
      vertex 3.68022 4.0873 0
    endloop
  endfacet
  facet normal -0.264022 -0.363395 0.893441
    outer loop
      vertex 6.35674 7.05988 2
      vertex 5.06007 8.00196 2
      vertex 3.68022 4.0873 0
    endloop
  endfacet
  facet normal -0.0933896 -0.439365 0.893441
    outer loop
      vertex 0.574906 5.46987 0
      vertex 1.36792 9.36827 2
      vertex 0.99302 9.44796 2
    endloop
  endfacet
  facet normal -0.09339 -0.439365 0.893441
    outer loop
      vertex 1.36792 9.36827 2
      vertex 0.574906 5.46987 0
      vertex 1.69959 5.23081 0
    endloop
  endfacet
  facet normal -0.333807 -0.300561 0.893441
    outer loop
      vertex 7.4292 5.86879 2
      vertex 4.44959 3.23282 0
      vertex 7.68566 5.58396 2
    endloop
  endfacet
  facet normal -0.333807 -0.300561 0.893441
    outer loop
      vertex 4.44959 3.23282 0
      vertex 7.4292 5.86879 2
      vertex 3.68022 4.0873 0
    endloop
  endfacet
  facet normal -0.389002 -0.224591 0.893441
    outer loop
      vertex 4.44959 3.23282 0
      vertex 7.8773 5.25204 2
      vertex 7.68566 5.58396 2
    endloop
  endfacet
  facet normal -0.389002 -0.224591 0.893441
    outer loop
      vertex 7.8773 5.25204 2
      vertex 4.44959 3.23282 0
      vertex 5.0245 2.23705 0
    endloop
  endfacet
  facet normal -1 0 0
    outer loop
      vertex 0 13.426 0
      vertex 0 11.437 2
      vertex 0 13.426 20
    endloop
  endfacet
  facet normal -1 0 0
    outer loop
      vertex 0 13.426 0
      vertex 0 9.44796 2
      vertex 0 11.437 2
    endloop
  endfacet
  facet normal -1 0 -0
    outer loop
      vertex 0 9.44796 2
      vertex 0 13.426 0
      vertex 0 5.46987 0
    endloop
  endfacet
  facet normal -1 -0 0
    outer loop
      vertex 0 13.426 20
      vertex 0 11.437 2
      vertex 0 11.437 20
    endloop
  endfacet
  facet normal -1 0 0
    outer loop
      vertex 0 -13.426 0
      vertex 0 -9.44796 2
      vertex 0 -5.46987 0
    endloop
  endfacet
  facet normal -1 -0 0
    outer loop
      vertex 0 -9.44796 2
      vertex 0 -13.426 0
      vertex 0 -11.437 2
    endloop
  endfacet
  facet normal -1 0 0
    outer loop
      vertex 0 -13.426 20
      vertex 0 -11.437 2
      vertex 0 -13.426 0
    endloop
  endfacet
  facet normal -1 0 0
    outer loop
      vertex 0 -11.437 2
      vertex 0 -13.426 20
      vertex 0 -11.437 20
    endloop
  endfacet
  facet normal 0.994522 0.104529 0
    outer loop
      vertex -51.2487 -2.39098 20
      vertex -51.5 1.40834e-15 3
      vertex -51.5 1.40834e-15 20
    endloop
  endfacet
  facet normal 0.994522 0.104529 0
    outer loop
      vertex -51.5 1.40834e-15 3
      vertex -51.2487 -2.39098 20
      vertex -51.2487 -2.39098 3
    endloop
  endfacet
  facet normal 0 1 -0
    outer loop
      vertex -40 -11.437 2
      vertex -41.2021 -11.437 20
      vertex -40 -11.437 20
    endloop
  endfacet
  facet normal 0 1 0
    outer loop
      vertex -41.2021 -11.437 20
      vertex -40 -11.437 2
      vertex -41.2021 -11.437 2
    endloop
  endfacet
  facet normal 0 -1 0
    outer loop
      vertex -41.2021 11.437 2
      vertex -40 11.437 20
      vertex -41.2021 11.437 20
    endloop
  endfacet
  facet normal 0 -1 -0
    outer loop
      vertex -40 11.437 20
      vertex -41.2021 11.437 2
      vertex -40 11.437 2
    endloop
  endfacet
  facet normal 0.743144 0.669131 0
    outer loop
      vertex -47.695 -8.54617 20
      vertex -49.3037 -6.75953 2
      vertex -49.3037 -6.75953 20
    endloop
  endfacet
  facet normal 0.743144 0.669131 0
    outer loop
      vertex -49.3037 -6.75953 2
      vertex -47.695 -8.54617 20
      vertex -47.695 -8.54617 2
    endloop
  endfacet
  facet normal 0.951057 0.309017 -4.33384e-09
    outer loop
      vertex -50.5058 -4.67747 20
      vertex -51.2487 -2.39098 3
      vertex -51.2487 -2.39098 20
    endloop
  endfacet
  facet normal 0.951057 0.309017 -0
    outer loop
      vertex -50.5058 -4.67747 2
      vertex -51.2487 -2.39098 3
      vertex -50.5058 -4.67747 20
    endloop
  endfacet
  facet normal 0.951057 0.309017 0
    outer loop
      vertex -51.2487 -2.39098 3
      vertex -50.5058 -4.67747 2
      vertex -51.2487 -2.39098 2
    endloop
  endfacet
  facet normal 0.866026 -0.5 0
    outer loop
      vertex -50.5058 4.67747 20
      vertex -49.3037 6.75953 2
      vertex -49.3037 6.75953 20
    endloop
  endfacet
  facet normal 0.866026 -0.5 0
    outer loop
      vertex -49.3037 6.75953 2
      vertex -50.5058 4.67747 20
      vertex -50.5058 4.67747 2
    endloop
  endfacet
  facet normal 0.866026 0.5 0
    outer loop
      vertex -49.3037 -6.75953 20
      vertex -50.5058 -4.67747 2
      vertex -50.5058 -4.67747 20
    endloop
  endfacet
  facet normal 0.866026 0.5 0
    outer loop
      vertex -50.5058 -4.67747 2
      vertex -49.3037 -6.75953 20
      vertex -49.3037 -6.75953 2
    endloop
  endfacet
  facet normal 0.406737 0.913545 -0
    outer loop
      vertex -43.5537 -10.9371 2
      vertex -45.75 -9.95929 20
      vertex -43.5537 -10.9371 20
    endloop
  endfacet
  facet normal 0.406737 0.913545 0
    outer loop
      vertex -45.75 -9.95929 20
      vertex -43.5537 -10.9371 2
      vertex -45.75 -9.95929 2
    endloop
  endfacet
  facet normal 0.207912 0.978148 -0
    outer loop
      vertex -41.2021 -11.437 2
      vertex -43.5537 -10.9371 20
      vertex -41.2021 -11.437 20
    endloop
  endfacet
  facet normal 0.207912 0.978148 0
    outer loop
      vertex -43.5537 -10.9371 20
      vertex -41.2021 -11.437 2
      vertex -43.5537 -10.9371 2
    endloop
  endfacet
  facet normal 0.587786 0.809017 -0
    outer loop
      vertex -45.75 -9.95929 2
      vertex -47.695 -8.54617 20
      vertex -45.75 -9.95929 20
    endloop
  endfacet
  facet normal 0.587786 0.809017 0
    outer loop
      vertex -47.695 -8.54617 20
      vertex -45.75 -9.95929 2
      vertex -47.695 -8.54617 2
    endloop
  endfacet
  facet normal 0 0 1
    outer loop
      vertex -40 11.437 2
      vertex -40.993 9.44796 2
      vertex -40 9.44796 2
    endloop
  endfacet
  facet normal -0 0 1
    outer loop
      vertex -41.2021 11.437 2
      vertex -40.993 9.44796 2
      vertex -40 11.437 2
    endloop
  endfacet
  facet normal 0 0 1
    outer loop
      vertex -41.2021 11.437 2
      vertex -41.3679 9.36827 2
      vertex -40.993 9.44796 2
    endloop
  endfacet
  facet normal -0 0 1
    outer loop
      vertex -43.5537 10.9371 2
      vertex -41.3679 9.36827 2
      vertex -41.2021 11.437 2
    endloop
  endfacet
  facet normal 0 0 1
    outer loop
      vertex -41.3679 9.36827 2
      vertex -43.5537 10.9371 2
      vertex -42.9357 9.03504 2
    endloop
  endfacet
  facet normal 0 0 1
    outer loop
      vertex -43.5537 10.9371 2
      vertex -44.3999 8.38313 2
      vertex -42.9357 9.03504 2
    endloop
  endfacet
  facet normal -0 0 1
    outer loop
      vertex -45.75 9.95929 2
      vertex -44.3999 8.38313 2
      vertex -43.5537 10.9371 2
    endloop
  endfacet
  facet normal 0 0 1
    outer loop
      vertex -44.3999 8.38313 2
      vertex -45.75 9.95929 2
      vertex -44.75 8.22724 2
    endloop
  endfacet
  facet normal 0 0 1
    outer loop
      vertex -44.75 8.22724 2
      vertex -45.75 9.95929 2
      vertex -45.0601 8.00196 2
    endloop
  endfacet
  facet normal -0 0 1
    outer loop
      vertex -47.695 8.54617 2
      vertex -45.0601 8.00196 2
      vertex -45.75 9.95929 2
    endloop
  endfacet
  facet normal 0 0 1
    outer loop
      vertex -45.0601 8.00196 2
      vertex -47.695 8.54617 2
      vertex -46.3567 7.05988 2
    endloop
  endfacet
  facet normal 0 0 1
    outer loop
      vertex -46.3567 7.05988 2
      vertex -47.695 8.54617 2
      vertex -47.4292 5.86879 2
    endloop
  endfacet
  facet normal -0 0 1
    outer loop
      vertex -49.3037 6.75953 2
      vertex -47.4292 5.86879 2
      vertex -47.695 8.54617 2
    endloop
  endfacet
  facet normal 0 0 1
    outer loop
      vertex -47.4292 5.86879 2
      vertex -49.3037 6.75953 2
      vertex -47.6857 5.58396 2
    endloop
  endfacet
  facet normal 0 0 1
    outer loop
      vertex -47.6857 5.58396 2
      vertex -49.3037 6.75953 2
      vertex -47.8773 5.25204 2
    endloop
  endfacet
  facet normal 0 0 1
    outer loop
      vertex -50.5058 4.67747 2
      vertex -47.8773 5.25204 2
      vertex -49.3037 6.75953 2
    endloop
  endfacet
  facet normal 0 0 1
    outer loop
      vertex -47.8773 5.25204 2
      vertex -50.5058 4.67747 2
      vertex -48.6787 3.864 2
    endloop
  endfacet
  facet normal 0 0 1
    outer loop
      vertex -48.6787 3.864 2
      vertex -50.5058 4.67747 2
      vertex -49.174 2.33967 2
    endloop
  endfacet
  facet normal -0 0 1
    outer loop
      vertex -51.2487 2.39098 2
      vertex -49.174 2.33967 2
      vertex -50.5058 4.67747 2
    endloop
  endfacet
  facet normal 0 0 1
    outer loop
      vertex -49.174 2.33967 2
      vertex -51.2487 2.39098 2
      vertex -49.2924 1.97516 2
    endloop
  endfacet
  facet normal 0 0 1
    outer loop
      vertex -49.2924 1.97516 2
      vertex -51.2487 2.39098 2
      vertex -49.3325 1.59399 2
    endloop
  endfacet
  facet normal -0 0 1
    outer loop
      vertex -40.993 -9.44796 2
      vertex -40 -11.437 2
      vertex -40 -9.44796 2
    endloop
  endfacet
  facet normal 0 0 1
    outer loop
      vertex -40.993 -9.44796 2
      vertex -41.2021 -11.437 2
      vertex -40 -11.437 2
    endloop
  endfacet
  facet normal 0 0 1
    outer loop
      vertex -41.3679 -9.36827 2
      vertex -41.2021 -11.437 2
      vertex -40.993 -9.44796 2
    endloop
  endfacet
  facet normal 0 0 1
    outer loop
      vertex -43.5537 -10.9371 2
      vertex -41.3679 -9.36827 2
      vertex -42.9357 -9.03504 2
    endloop
  endfacet
  facet normal 0 0 1
    outer loop
      vertex -41.3679 -9.36827 2
      vertex -43.5537 -10.9371 2
      vertex -41.2021 -11.437 2
    endloop
  endfacet
  facet normal 0 0 1
    outer loop
      vertex -44.3999 -8.38313 2
      vertex -43.5537 -10.9371 2
      vertex -42.9357 -9.03504 2
    endloop
  endfacet
  facet normal 0 0 1
    outer loop
      vertex -45.75 -9.95929 2
      vertex -44.3999 -8.38313 2
      vertex -44.75 -8.22724 2
    endloop
  endfacet
  facet normal 0 0 1
    outer loop
      vertex -45.75 -9.95929 2
      vertex -44.75 -8.22724 2
      vertex -45.0601 -8.00196 2
    endloop
  endfacet
  facet normal 0 0 1
    outer loop
      vertex -44.3999 -8.38313 2
      vertex -45.75 -9.95929 2
      vertex -43.5537 -10.9371 2
    endloop
  endfacet
  facet normal 0 0 1
    outer loop
      vertex -47.695 -8.54617 2
      vertex -45.0601 -8.00196 2
      vertex -46.3567 -7.05988 2
    endloop
  endfacet
  facet normal 0 0 1
    outer loop
      vertex -47.695 -8.54617 2
      vertex -46.3567 -7.05988 2
      vertex -47.4292 -5.86879 2
    endloop
  endfacet
  facet normal 0 0 1
    outer loop
      vertex -49.3037 -6.75953 2
      vertex -47.4292 -5.86879 2
      vertex -47.6857 -5.58396 2
    endloop
  endfacet
  facet normal 0 0 1
    outer loop
      vertex -45.0601 -8.00196 2
      vertex -47.695 -8.54617 2
      vertex -45.75 -9.95929 2
    endloop
  endfacet
  facet normal 0 0 1
    outer loop
      vertex -49.3037 -6.75953 2
      vertex -47.6857 -5.58396 2
      vertex -47.8773 -5.25204 2
    endloop
  endfacet
  facet normal -0 0 1
    outer loop
      vertex -50.5058 -4.67747 2
      vertex -47.8773 -5.25204 2
      vertex -48.6787 -3.864 2
    endloop
  endfacet
  facet normal 0 0 1
    outer loop
      vertex -50.5058 -4.67747 2
      vertex -48.6787 -3.864 2
      vertex -49.174 -2.33967 2
    endloop
  endfacet
  facet normal 0 0 1
    outer loop
      vertex -51.2487 -2.39098 2
      vertex -49.174 -2.33967 2
      vertex -49.2924 -1.97516 2
    endloop
  endfacet
  facet normal 0 0 1
    outer loop
      vertex -47.4292 -5.86879 2
      vertex -49.3037 -6.75953 2
      vertex -47.695 -8.54617 2
    endloop
  endfacet
  facet normal 0 0 1
    outer loop
      vertex -51.2487 -2.39098 2
      vertex -49.2924 -1.97516 2
      vertex -49.3325 -1.59399 2
    endloop
  endfacet
  facet normal 0 0 1
    outer loop
      vertex -51.5 3.85764e-15 2
      vertex -49.3325 -1.59399 2
      vertex -49.5 1.16341e-15 2
    endloop
  endfacet
  facet normal 0 0 1
    outer loop
      vertex -51.5 1.57473e-08 2
      vertex -49.3325 1.59399 2
      vertex -51.2487 2.39098 2
    endloop
  endfacet
  facet normal 0 0 1
    outer loop
      vertex -47.8773 -5.25204 2
      vertex -50.5058 -4.67747 2
      vertex -49.3037 -6.75953 2
    endloop
  endfacet
  facet normal 0 0 1
    outer loop
      vertex -49.3325 1.59399 2
      vertex -51.5 1.57473e-08 2
      vertex -49.5 1.16341e-15 2
    endloop
  endfacet
  facet normal 0 0 1
    outer loop
      vertex -49.174 -2.33967 2
      vertex -51.2487 -2.39098 2
      vertex -50.5058 -4.67747 2
    endloop
  endfacet
  facet normal -0 0 1
    outer loop
      vertex -51.5 3.85764e-15 2
      vertex -49.5 1.16341e-15 2
      vertex -51.5 1.57473e-08 2
    endloop
  endfacet
  facet normal 0 0 1
    outer loop
      vertex -49.3325 -1.59399 2
      vertex -51.5 3.85764e-15 2
      vertex -51.2487 -2.39098 2
    endloop
  endfacet
  facet normal 0.994522 -0.104529 0
    outer loop
      vertex -51.2487 2.39098 20
      vertex -51.5 1.57473e-08 3
      vertex -51.2487 2.39098 3
    endloop
  endfacet
  facet normal 1 0 0
    outer loop
      vertex -51.5 1.57473e-08 3
      vertex -51.5 3.85764e-15 3
      vertex -51.5 1.57473e-08 2
    endloop
  endfacet
  facet normal 0.994522 -0.104529 -9.68268e-11
    outer loop
      vertex -51.5 1.40834e-15 20
      vertex -51.5 1.57473e-08 3
      vertex -51.2487 2.39098 20
    endloop
  endfacet
  facet normal 1 0 0
    outer loop
      vertex -51.5 1.57473e-08 3
      vertex -51.5 1.40834e-15 20
      vertex -51.5 3.85764e-15 3
    endloop
  endfacet
  facet normal 1 0 0
    outer loop
      vertex -51.5 3.85764e-15 3
      vertex -51.5 1.40834e-15 20
      vertex -51.5 1.40834e-15 3
    endloop
  endfacet
  facet normal 1 0 0
    outer loop
      vertex -51.5 1.57473e-08 2
      vertex -51.5 3.85764e-15 3
      vertex -51.5 3.85764e-15 2
    endloop
  endfacet
  facet normal 0 0 -1
    outer loop
      vertex -40 -13.426 0
      vertex -40.5749 -5.46987 0
      vertex -40 -5.46987 0
    endloop
  endfacet
  facet normal 0 0 -1
    outer loop
      vertex -41.4111 -13.426 0
      vertex -40.5749 -5.46987 0
      vertex -40 -13.426 0
    endloop
  endfacet
  facet normal 0 0 -1
    outer loop
      vertex -41.4111 -13.426 0
      vertex -41.6996 -5.23081 0
      vertex -40.5749 -5.46987 0
    endloop
  endfacet
  facet normal 0 0 -1
    outer loop
      vertex -44.1717 -12.8393 0
      vertex -41.6996 -5.23081 0
      vertex -41.4111 -13.426 0
    endloop
  endfacet
  facet normal 0 0 -1
    outer loop
      vertex -46.0567 -12 0
      vertex -41.6996 -5.23081 0
      vertex -44.1717 -12.8393 0
    endloop
  endfacet
  facet normal -0 0 -1
    outer loop
      vertex -41.6996 -5.23081 0
      vertex -46.0567 -12 0
      vertex -42.75 -4.76314 0
    endloop
  endfacet
  facet normal -0 0 -1
    outer loop
      vertex -42.75 -4.76314 0
      vertex -46.0567 -12 0
      vertex -43.6802 -4.0873 0
    endloop
  endfacet
  facet normal -0 0 -1
    outer loop
      vertex -43.6802 -4.0873 0
      vertex -46.0567 -12 0
      vertex -44.4496 -3.23282 0
    endloop
  endfacet
  facet normal -0 0 -1
    outer loop
      vertex -44.4496 -3.23282 0
      vertex -46.0567 -12 0
      vertex -45.0245 -2.23705 0
    endloop
  endfacet
  facet normal -0 0 -1
    outer loop
      vertex -45.0245 -2.23705 0
      vertex -46.0567 -12 0
      vertex -45.3798 -1.14351 0
    endloop
  endfacet
  facet normal 0 0 -1
    outer loop
      vertex -75.5 -12 0
      vertex -45.3798 -1.14351 0
      vertex -46.0567 -12 0
    endloop
  endfacet
  facet normal 0 0 -1
    outer loop
      vertex -40.5749 5.46987 0
      vertex -40 13.426 0
      vertex -40 5.46987 0
    endloop
  endfacet
  facet normal 0 0 -1
    outer loop
      vertex -40.5749 5.46987 0
      vertex -41.4111 13.426 0
      vertex -40 13.426 0
    endloop
  endfacet
  facet normal 0 0 -1
    outer loop
      vertex -41.6996 5.23081 0
      vertex -41.4111 13.426 0
      vertex -40.5749 5.46987 0
    endloop
  endfacet
  facet normal 0 0 -1
    outer loop
      vertex -46.0567 12 0
      vertex -41.6996 5.23081 0
      vertex -42.75 4.76314 0
    endloop
  endfacet
  facet normal 0 0 -1
    outer loop
      vertex -46.0567 12 0
      vertex -42.75 4.76314 0
      vertex -43.6802 4.0873 0
    endloop
  endfacet
  facet normal 0 0 -1
    outer loop
      vertex -41.6996 5.23081 0
      vertex -44.1717 12.8393 0
      vertex -41.4111 13.426 0
    endloop
  endfacet
  facet normal 0 0 -1
    outer loop
      vertex -46.0567 12 0
      vertex -43.6802 4.0873 0
      vertex -44.4496 3.23282 0
    endloop
  endfacet
  facet normal 0 0 -1
    outer loop
      vertex -46.0567 12 0
      vertex -44.4496 3.23282 0
      vertex -45.0245 2.23705 0
    endloop
  endfacet
  facet normal 0 0 -1
    outer loop
      vertex -46.0567 12 0
      vertex -45.0245 2.23705 0
      vertex -45.3798 1.14351 0
    endloop
  endfacet
  facet normal 0 0 -1
    outer loop
      vertex -75.5 12 0
      vertex -45.3798 1.14351 0
      vertex -45.5 6.73556e-16 0
    endloop
  endfacet
  facet normal 0 0 -1
    outer loop
      vertex -41.6996 5.23081 0
      vertex -46.0567 12 0
      vertex -44.1717 12.8393 0
    endloop
  endfacet
  facet normal -0 0 -1
    outer loop
      vertex -45.3798 -1.14351 0
      vertex -75.5 -12 0
      vertex -45.5 6.73556e-16 0
    endloop
  endfacet
  facet normal 0 0 -1
    outer loop
      vertex -75.5 12 0
      vertex -45.5 6.73556e-16 0
      vertex -75.5 -12 0
    endloop
  endfacet
  facet normal 0 0 -1
    outer loop
      vertex -45.3798 1.14351 0
      vertex -75.5 12 0
      vertex -46.0567 12 0
    endloop
  endfacet
  facet normal 0.587786 -0.809017 0
    outer loop
      vertex -47.695 8.54617 2
      vertex -45.75 9.95929 20
      vertex -47.695 8.54617 20
    endloop
  endfacet
  facet normal 0.587786 -0.809017 0
    outer loop
      vertex -45.75 9.95929 20
      vertex -47.695 8.54617 2
      vertex -45.75 9.95929 2
    endloop
  endfacet
  facet normal 0.743144 -0.669131 0
    outer loop
      vertex -49.3037 6.75953 20
      vertex -47.695 8.54617 2
      vertex -47.695 8.54617 20
    endloop
  endfacet
  facet normal 0.743144 -0.669131 0
    outer loop
      vertex -47.695 8.54617 2
      vertex -49.3037 6.75953 20
      vertex -49.3037 6.75953 2
    endloop
  endfacet
  facet normal 0.951057 -0.309017 0
    outer loop
      vertex -50.5058 4.67747 20
      vertex -51.2487 2.39098 3
      vertex -50.5058 4.67747 2
    endloop
  endfacet
  facet normal 0.951057 -0.309017 -4.33384e-09
    outer loop
      vertex -51.2487 2.39098 20
      vertex -51.2487 2.39098 3
      vertex -50.5058 4.67747 20
    endloop
  endfacet
  facet normal 0.951057 -0.309017 0
    outer loop
      vertex -50.5058 4.67747 2
      vertex -51.2487 2.39098 3
      vertex -51.2487 2.39098 2
    endloop
  endfacet
  facet normal 0.406737 -0.913545 0
    outer loop
      vertex -45.75 9.95929 2
      vertex -43.5537 10.9371 20
      vertex -45.75 9.95929 20
    endloop
  endfacet
  facet normal 0.406737 -0.913545 0
    outer loop
      vertex -43.5537 10.9371 20
      vertex -45.75 9.95929 2
      vertex -43.5537 10.9371 2
    endloop
  endfacet
  facet normal 0.207912 -0.978148 0
    outer loop
      vertex -43.5537 10.9371 2
      vertex -41.2021 11.437 20
      vertex -43.5537 10.9371 20
    endloop
  endfacet
  facet normal 0.207912 -0.978148 0
    outer loop
      vertex -41.2021 11.437 20
      vertex -43.5537 10.9371 2
      vertex -41.2021 11.437 2
    endloop
  endfacet
  facet normal 0.44672 0.0469519 0.893441
    outer loop
      vertex -49.3325 -1.59399 2
      vertex -45.5 6.73556e-16 0
      vertex -49.5 1.16341e-15 2
    endloop
  endfacet
  facet normal 0.44672 0.0469528 0.893441
    outer loop
      vertex -49.3325 -1.59399 2
      vertex -45.3798 -1.14351 0
      vertex -45.5 6.73556e-16 0
    endloop
  endfacet
  facet normal 0.44672 0.0469557 0.893441
    outer loop
      vertex -45.3798 -1.14351 0
      vertex -49.3325 -1.59399 2
      vertex -49.2924 -1.97516 2
    endloop
  endfacet
  facet normal 0.427196 -0.138805 0.893441
    outer loop
      vertex -45.0245 2.23705 0
      vertex -48.6787 3.864 2
      vertex -49.174 2.33967 2
    endloop
  endfacet
  facet normal 0.389002 -0.22459 0.893441
    outer loop
      vertex -45.0245 2.23705 0
      vertex -47.8773 5.25204 2
      vertex -48.6787 3.864 2
    endloop
  endfacet
  facet normal -0 0.449181 0.893441
    outer loop
      vertex -40.5749 -5.46987 0
      vertex -40 -9.44796 2
      vertex -40 -5.46987 0
    endloop
  endfacet
  facet normal 0 0.449181 0.893441
    outer loop
      vertex -40 -9.44796 2
      vertex -40.5749 -5.46987 0
      vertex -40.993 -9.44796 2
    endloop
  endfacet
  facet normal 0.0933892 -0.439365 0.893441
    outer loop
      vertex -41.3679 9.36827 2
      vertex -40.5749 5.46987 0
      vertex -40.993 9.44796 2
    endloop
  endfacet
  facet normal 0.0933899 -0.439365 0.893441
    outer loop
      vertex -40.5749 5.46987 0
      vertex -41.3679 9.36827 2
      vertex -41.6996 5.23081 0
    endloop
  endfacet
  facet normal 0.44672 -0.0469519 0.893441
    outer loop
      vertex -45.5 6.73556e-16 0
      vertex -49.3325 1.59399 2
      vertex -49.5 1.16341e-15 2
    endloop
  endfacet
  facet normal 0.427196 -0.138805 0.893441
    outer loop
      vertex -49.174 2.33967 2
      vertex -45.3798 1.14351 0
      vertex -45.0245 2.23705 0
    endloop
  endfacet
  facet normal 0.427197 -0.138802 0.893441
    outer loop
      vertex -45.3798 1.14351 0
      vertex -49.174 2.33967 2
      vertex -49.2924 1.97516 2
    endloop
  endfacet
  facet normal 0.264022 -0.363395 0.893441
    outer loop
      vertex -43.6802 4.0873 0
      vertex -45.0601 8.00196 2
      vertex -46.3567 7.05988 2
    endloop
  endfacet
  facet normal 0.427196 0.138805 0.893441
    outer loop
      vertex -45.3798 -1.14351 0
      vertex -49.174 -2.33967 2
      vertex -45.0245 -2.23705 0
    endloop
  endfacet
  facet normal 0.427197 0.138802 0.893441
    outer loop
      vertex -49.174 -2.33967 2
      vertex -45.3798 -1.14351 0
      vertex -49.2924 -1.97516 2
    endloop
  endfacet
  facet normal 0.333806 -0.300561 0.893441
    outer loop
      vertex -43.6802 4.0873 0
      vertex -46.3567 7.05988 2
      vertex -47.4292 5.86879 2
    endloop
  endfacet
  facet normal 0.389002 -0.22459 0.893441
    outer loop
      vertex -47.8773 5.25204 2
      vertex -44.4496 3.23282 0
      vertex -47.6857 5.58396 2
    endloop
  endfacet
  facet normal 0.389002 -0.22459 0.893441
    outer loop
      vertex -44.4496 3.23282 0
      vertex -47.8773 5.25204 2
      vertex -45.0245 2.23705 0
    endloop
  endfacet
  facet normal 0.44672 -0.0469557 0.893441
    outer loop
      vertex -49.3325 1.59399 2
      vertex -45.3798 1.14351 0
      vertex -49.2924 1.97516 2
    endloop
  endfacet
  facet normal 0.44672 -0.0469528 0.893441
    outer loop
      vertex -45.3798 1.14351 0
      vertex -49.3325 1.59399 2
      vertex -45.5 6.73556e-16 0
    endloop
  endfacet
  facet normal 0.182698 -0.410347 0.893441
    outer loop
      vertex -41.6996 5.23081 0
      vertex -42.9357 9.03504 2
      vertex -44.3999 8.38313 2
    endloop
  endfacet
  facet normal 0.0933901 -0.439365 0.893441
    outer loop
      vertex -41.6996 5.23081 0
      vertex -41.3679 9.36827 2
      vertex -42.9357 9.03504 2
    endloop
  endfacet
  facet normal 0.264021 -0.363396 0.893441
    outer loop
      vertex -45.0601 8.00196 2
      vertex -42.75 4.76314 0
      vertex -44.75 8.22724 2
    endloop
  endfacet
  facet normal 0.264022 -0.363395 0.893441
    outer loop
      vertex -42.75 4.76314 0
      vertex -45.0601 8.00196 2
      vertex -43.6802 4.0873 0
    endloop
  endfacet
  facet normal 0.0933901 0.439365 0.893441
    outer loop
      vertex -41.3679 -9.36827 2
      vertex -41.6996 -5.23081 0
      vertex -42.9357 -9.03504 2
    endloop
  endfacet
  facet normal 0.427196 0.138805 0.893441
    outer loop
      vertex -48.6787 -3.864 2
      vertex -45.0245 -2.23705 0
      vertex -49.174 -2.33967 2
    endloop
  endfacet
  facet normal 0.333806 0.300561 0.893441
    outer loop
      vertex -46.3567 -7.05988 2
      vertex -43.6802 -4.0873 0
      vertex -47.4292 -5.86879 2
    endloop
  endfacet
  facet normal 0.333807 -0.300561 0.893441
    outer loop
      vertex -47.4292 5.86879 2
      vertex -44.4496 3.23282 0
      vertex -43.6802 4.0873 0
    endloop
  endfacet
  facet normal 0.333807 -0.300561 0.893441
    outer loop
      vertex -44.4496 3.23282 0
      vertex -47.4292 5.86879 2
      vertex -47.6857 5.58396 2
    endloop
  endfacet
  facet normal 0.182698 -0.410347 0.893441
    outer loop
      vertex -44.3999 8.38313 2
      vertex -42.75 4.76314 0
      vertex -41.6996 5.23081 0
    endloop
  endfacet
  facet normal 0.182698 -0.410347 0.893441
    outer loop
      vertex -42.75 4.76314 0
      vertex -44.3999 8.38313 2
      vertex -44.75 8.22724 2
    endloop
  endfacet
  facet normal 0 -0.449181 0.893441
    outer loop
      vertex -40 9.44796 2
      vertex -40.5749 5.46987 0
      vertex -40 5.46987 0
    endloop
  endfacet
  facet normal 0 -0.449181 0.893441
    outer loop
      vertex -40.5749 5.46987 0
      vertex -40 9.44796 2
      vertex -40.993 9.44796 2
    endloop
  endfacet
  facet normal 0.182698 0.410347 0.893441
    outer loop
      vertex -42.75 -4.76314 0
      vertex -44.3999 -8.38313 2
      vertex -41.6996 -5.23081 0
    endloop
  endfacet
  facet normal 0.182698 0.410347 0.893441
    outer loop
      vertex -44.3999 -8.38313 2
      vertex -42.75 -4.76314 0
      vertex -44.75 -8.22724 2
    endloop
  endfacet
  facet normal 0.182698 0.410347 0.893441
    outer loop
      vertex -42.9357 -9.03504 2
      vertex -41.6996 -5.23081 0
      vertex -44.3999 -8.38313 2
    endloop
  endfacet
  facet normal 0.389002 0.22459 0.893441
    outer loop
      vertex -47.8773 -5.25204 2
      vertex -45.0245 -2.23705 0
      vertex -48.6787 -3.864 2
    endloop
  endfacet
  facet normal 0.264022 0.363395 0.893441
    outer loop
      vertex -45.0601 -8.00196 2
      vertex -42.75 -4.76314 0
      vertex -43.6802 -4.0873 0
    endloop
  endfacet
  facet normal 0.264021 0.363396 0.893441
    outer loop
      vertex -42.75 -4.76314 0
      vertex -45.0601 -8.00196 2
      vertex -44.75 -8.22724 2
    endloop
  endfacet
  facet normal 0.264022 0.363395 0.893441
    outer loop
      vertex -45.0601 -8.00196 2
      vertex -43.6802 -4.0873 0
      vertex -46.3567 -7.05988 2
    endloop
  endfacet
  facet normal 0.0933892 0.439365 0.893441
    outer loop
      vertex -40.5749 -5.46987 0
      vertex -41.3679 -9.36827 2
      vertex -40.993 -9.44796 2
    endloop
  endfacet
  facet normal 0.0933899 0.439365 0.893441
    outer loop
      vertex -41.3679 -9.36827 2
      vertex -40.5749 -5.46987 0
      vertex -41.6996 -5.23081 0
    endloop
  endfacet
  facet normal 0.333807 0.300561 0.893441
    outer loop
      vertex -44.4496 -3.23282 0
      vertex -47.4292 -5.86879 2
      vertex -43.6802 -4.0873 0
    endloop
  endfacet
  facet normal 0.333807 0.300561 0.893441
    outer loop
      vertex -47.4292 -5.86879 2
      vertex -44.4496 -3.23282 0
      vertex -47.6857 -5.58396 2
    endloop
  endfacet
  facet normal 0.389002 0.22459 0.893441
    outer loop
      vertex -47.8773 -5.25204 2
      vertex -44.4496 -3.23282 0
      vertex -45.0245 -2.23705 0
    endloop
  endfacet
  facet normal 0.389002 0.22459 0.893441
    outer loop
      vertex -44.4496 -3.23282 0
      vertex -47.8773 -5.25204 2
      vertex -47.6857 -5.58396 2
    endloop
  endfacet
  facet normal 1 0 0
    outer loop
      vertex -40 11.437 2
      vertex -40 13.426 20
      vertex -40 11.437 20
    endloop
  endfacet
  facet normal 1 0 0
    outer loop
      vertex -40 13.426 20
      vertex -40 11.437 2
      vertex -40 13.426 0
    endloop
  endfacet
  facet normal 1 -0 0
    outer loop
      vertex -40 9.44796 2
      vertex -40 13.426 0
      vertex -40 11.437 2
    endloop
  endfacet
  facet normal 1 0 0
    outer loop
      vertex -40 13.426 0
      vertex -40 9.44796 2
      vertex -40 5.46987 0
    endloop
  endfacet
  facet normal 1 0 0
    outer loop
      vertex -40 -11.437 20
      vertex -40 -13.426 20
      vertex -40 -11.437 2
    endloop
  endfacet
  facet normal 1 0 0
    outer loop
      vertex -40 -13.426 0
      vertex -40 -9.44796 2
      vertex -40 -11.437 2
    endloop
  endfacet
  facet normal 1 0 0
    outer loop
      vertex -40 -9.44796 2
      vertex -40 -13.426 0
      vertex -40 -5.46987 0
    endloop
  endfacet
  facet normal 1 0 0
    outer loop
      vertex -40 -13.426 0
      vertex -40 -11.437 2
      vertex -40 -13.426 20
    endloop
  endfacet
  facet normal 0.994522 0.104529 0
    outer loop
      vertex 13.5 0 20
      vertex 13.205 2.80681 3
      vertex 13.205 2.80681 20
    endloop
  endfacet
  facet normal 0.994522 0.104529 0
    outer loop
      vertex 13.205 2.80681 3
      vertex 13.5 0 20
      vertex 13.5 0 3
    endloop
  endfacet
  facet normal 0 1 -0
    outer loop
      vertex 1.41113 13.426 0
      vertex 0 13.426 20
      vertex 1.41113 13.426 20
    endloop
  endfacet
  facet normal 0 1 0
    outer loop
      vertex 0 13.426 20
      vertex 1.41113 13.426 0
      vertex 0 13.426 0
    endloop
  endfacet
  facet normal 0 -1 0
    outer loop
      vertex 0 -13.426 0
      vertex 1.41113 -13.426 20
      vertex 0 -13.426 20
    endloop
  endfacet
  facet normal 0 -1 -0
    outer loop
      vertex 1.41113 -13.426 20
      vertex 0 -13.426 0
      vertex 1.41113 -13.426 0
    endloop
  endfacet
  facet normal 0.587785 0.809017 -0
    outer loop
      vertex 9.03326 10.0325 3
      vertex 8.38974 10.5 20
      vertex 9.03326 10.0325 20
    endloop
  endfacet
  facet normal 0.587785 0.809017 0
    outer loop
      vertex 8.38974 10.5 20
      vertex 9.03326 10.0325 3
      vertex 8.38974 10.5 3
    endloop
  endfacet
  facet normal 0.406737 0.913545 -0
    outer loop
      vertex 6.05674 12 0
      vertex 4.17173 12.8393 20
      vertex 6.05674 12 20
    endloop
  endfacet
  facet normal 0.406737 0.913545 0
    outer loop
      vertex 4.17173 12.8393 20
      vertex 6.05674 12 0
      vertex 4.17173 12.8393 0
    endloop
  endfacet
  facet normal 0 0 1
    outer loop
      vertex 25.5 12 20
      vertex 8.38974 10.5 20
      vertex 25.5 10.5 20
    endloop
  endfacet
  facet normal -0 0 1
    outer loop
      vertex 6.05674 12 20
      vertex 8.38974 10.5 20
      vertex 25.5 12 20
    endloop
  endfacet
  facet normal 0 0 1
    outer loop
      vertex 5.75 9.95929 20
      vertex 8.38974 10.5 20
      vertex 6.05674 12 20
    endloop
  endfacet
  facet normal 0 0 1
    outer loop
      vertex 8.38974 10.5 20
      vertex 5.75 9.95929 20
      vertex 7.695 8.54617 20
    endloop
  endfacet
  facet normal 0 0 1
    outer loop
      vertex 3.55369 10.9371 20
      vertex 6.05674 12 20
      vertex 4.17173 12.8393 20
    endloop
  endfacet
  facet normal 0 0 1
    outer loop
      vertex 6.05674 12 20
      vertex 3.55369 10.9371 20
      vertex 5.75 9.95929 20
    endloop
  endfacet
  facet normal 0 0 1
    outer loop
      vertex 1.41113 13.426 20
      vertex 3.55369 10.9371 20
      vertex 4.17173 12.8393 20
    endloop
  endfacet
  facet normal 0 0 1
    outer loop
      vertex 1.41113 13.426 20
      vertex 1.20208 11.437 20
      vertex 3.55369 10.9371 20
    endloop
  endfacet
  facet normal -0 0 1
    outer loop
      vertex 0 13.426 20
      vertex 1.20208 11.437 20
      vertex 1.41113 13.426 20
    endloop
  endfacet
  facet normal 0 0 1
    outer loop
      vertex 1.20208 11.437 20
      vertex 0 13.426 20
      vertex 0 11.437 20
    endloop
  endfacet
  facet normal 0 0 1
    outer loop
      vertex 11.5 0 20
      vertex 13.5 0 20
      vertex 13.205 2.80681 20
    endloop
  endfacet
  facet normal 0 0 1
    outer loop
      vertex 11.2487 2.39098 20
      vertex 13.205 2.80681 20
      vertex 12.3329 5.49094 20
    endloop
  endfacet
  facet normal 0 0 1
    outer loop
      vertex 13.5 0 20
      vertex 11.5 0 20
      vertex 13.205 -2.80681 20
    endloop
  endfacet
  facet normal -0 0 1
    outer loop
      vertex 11.2487 -2.39098 20
      vertex 13.205 -2.80681 20
      vertex 11.5 0 20
    endloop
  endfacet
  facet normal 0 0 1
    outer loop
      vertex 13.205 2.80681 20
      vertex 11.2487 2.39098 20
      vertex 11.5 0 20
    endloop
  endfacet
  facet normal 0 0 1
    outer loop
      vertex 10.5058 4.67747 20
      vertex 12.3329 5.49094 20
      vertex 10.9217 7.9351 20
    endloop
  endfacet
  facet normal 0 0 1
    outer loop
      vertex 12.3329 5.49094 20
      vertex 10.5058 4.67747 20
      vertex 11.2487 2.39098 20
    endloop
  endfacet
  facet normal 0 0 1
    outer loop
      vertex 10.9217 7.9351 20
      vertex 9.30369 6.75953 20
      vertex 10.5058 4.67747 20
    endloop
  endfacet
  facet normal 0 0 1
    outer loop
      vertex 9.03326 10.0325 20
      vertex 9.30369 6.75953 20
      vertex 10.9217 7.9351 20
    endloop
  endfacet
  facet normal 0 0 1
    outer loop
      vertex 7.695 8.54617 20
      vertex 9.03326 10.0325 20
      vertex 8.38974 10.5 20
    endloop
  endfacet
  facet normal 0 0 1
    outer loop
      vertex 9.03326 10.0325 20
      vertex 7.695 8.54617 20
      vertex 9.30369 6.75953 20
    endloop
  endfacet
  facet normal 0 0 1
    outer loop
      vertex 13.205 -2.80681 20
      vertex 11.2487 -2.39098 20
      vertex 12.3329 -5.49094 20
    endloop
  endfacet
  facet normal -0 0 1
    outer loop
      vertex 10.5058 -4.67747 20
      vertex 12.3329 -5.49094 20
      vertex 11.2487 -2.39098 20
    endloop
  endfacet
  facet normal 0 0 1
    outer loop
      vertex 12.3329 -5.49094 20
      vertex 10.5058 -4.67747 20
      vertex 10.9217 -7.9351 20
    endloop
  endfacet
  facet normal -0 0 1
    outer loop
      vertex 9.30369 -6.75953 20
      vertex 10.9217 -7.9351 20
      vertex 10.5058 -4.67747 20
    endloop
  endfacet
  facet normal 0 0 1
    outer loop
      vertex 9.30369 -6.75953 20
      vertex 9.03326 -10.0325 20
      vertex 10.9217 -7.9351 20
    endloop
  endfacet
  facet normal -0 0 1
    outer loop
      vertex 7.695 -8.54617 20
      vertex 9.03326 -10.0325 20
      vertex 9.30369 -6.75953 20
    endloop
  endfacet
  facet normal 0 0 1
    outer loop
      vertex 9.03326 -10.0325 20
      vertex 7.695 -8.54617 20
      vertex 8.38974 -10.5 20
    endloop
  endfacet
  facet normal -0 0 1
    outer loop
      vertex 8.38974 -10.5 20
      vertex 25.5 -12 20
      vertex 25.5 -10.5 20
    endloop
  endfacet
  facet normal 0 0 1
    outer loop
      vertex 8.38974 -10.5 20
      vertex 6.05674 -12 20
      vertex 25.5 -12 20
    endloop
  endfacet
  facet normal -0 0 1
    outer loop
      vertex 5.75 -9.95929 20
      vertex 8.38974 -10.5 20
      vertex 7.695 -8.54617 20
    endloop
  endfacet
  facet normal 0 0 1
    outer loop
      vertex 8.38974 -10.5 20
      vertex 5.75 -9.95929 20
      vertex 6.05674 -12 20
    endloop
  endfacet
  facet normal -0 0 1
    outer loop
      vertex 3.55369 -10.9371 20
      vertex 6.05674 -12 20
      vertex 5.75 -9.95929 20
    endloop
  endfacet
  facet normal 0 0 1
    outer loop
      vertex 6.05674 -12 20
      vertex 3.55369 -10.9371 20
      vertex 4.17173 -12.8393 20
    endloop
  endfacet
  facet normal 0 0 1
    outer loop
      vertex 3.55369 -10.9371 20
      vertex 1.41113 -13.426 20
      vertex 4.17173 -12.8393 20
    endloop
  endfacet
  facet normal -0 0 1
    outer loop
      vertex 1.20208 -11.437 20
      vertex 1.41113 -13.426 20
      vertex 3.55369 -10.9371 20
    endloop
  endfacet
  facet normal 0 0 1
    outer loop
      vertex 0 -13.426 20
      vertex 1.20208 -11.437 20
      vertex 0 -11.437 20
    endloop
  endfacet
  facet normal 0 0 1
    outer loop
      vertex 1.20208 -11.437 20
      vertex 0 -13.426 20
      vertex 1.41113 -13.426 20
    endloop
  endfacet
  facet normal 0.951056 -0.309017 0
    outer loop
      vertex 12.3329 -5.49094 20
      vertex 13.205 -2.80681 3
      vertex 13.205 -2.80681 20
    endloop
  endfacet
  facet normal 0.951056 -0.309017 0
    outer loop
      vertex 13.205 -2.80681 3
      vertex 12.3329 -5.49094 20
      vertex 12.3329 -5.49094 3
    endloop
  endfacet
  facet normal 0.866026 0.5 0
    outer loop
      vertex 12.3329 5.49094 20
      vertex 10.9217 7.9351 3
      vertex 10.9217 7.9351 20
    endloop
  endfacet
  facet normal 0.866026 0.5 0
    outer loop
      vertex 10.9217 7.9351 3
      vertex 12.3329 5.49094 20
      vertex 12.3329 5.49094 3
    endloop
  endfacet
  facet normal 0.951056 0.309017 0
    outer loop
      vertex 13.205 2.80681 20
      vertex 12.3329 5.49094 3
      vertex 12.3329 5.49094 20
    endloop
  endfacet
  facet normal 0.951056 0.309017 0
    outer loop
      vertex 12.3329 5.49094 3
      vertex 13.205 2.80681 20
      vertex 13.205 2.80681 3
    endloop
  endfacet
  facet normal 0.743145 0.669131 0
    outer loop
      vertex 10.9217 7.9351 20
      vertex 9.03326 10.0325 3
      vertex 9.03326 10.0325 20
    endloop
  endfacet
  facet normal 0.743145 0.669131 0
    outer loop
      vertex 9.03326 10.0325 3
      vertex 10.9217 7.9351 20
      vertex 10.9217 7.9351 3
    endloop
  endfacet
  facet normal 0.207912 0.978148 -0
    outer loop
      vertex 4.17173 12.8393 0
      vertex 1.41113 13.426 20
      vertex 4.17173 12.8393 20
    endloop
  endfacet
  facet normal 0.207912 0.978148 0
    outer loop
      vertex 1.41113 13.426 20
      vertex 4.17173 12.8393 0
      vertex 1.41113 13.426 0
    endloop
  endfacet
  facet normal 0.994522 -0.104529 0
    outer loop
      vertex 13.205 -2.80681 20
      vertex 13.5 0 3
      vertex 13.5 0 20
    endloop
  endfacet
  facet normal 0.994522 -0.104529 0
    outer loop
      vertex 13.5 0 3
      vertex 13.205 -2.80681 20
      vertex 13.205 -2.80681 3
    endloop
  endfacet
  facet normal 0.207912 -0.978148 0
    outer loop
      vertex 1.41113 -13.426 0
      vertex 4.17173 -12.8393 20
      vertex 1.41113 -13.426 20
    endloop
  endfacet
  facet normal 0.207912 -0.978148 0
    outer loop
      vertex 4.17173 -12.8393 20
      vertex 1.41113 -13.426 0
      vertex 4.17173 -12.8393 0
    endloop
  endfacet
  facet normal 0.866026 -0.5 0
    outer loop
      vertex 10.9217 -7.9351 20
      vertex 12.3329 -5.49094 3
      vertex 12.3329 -5.49094 20
    endloop
  endfacet
  facet normal 0.866026 -0.5 0
    outer loop
      vertex 12.3329 -5.49094 3
      vertex 10.9217 -7.9351 20
      vertex 10.9217 -7.9351 3
    endloop
  endfacet
  facet normal 0.587785 -0.809017 0
    outer loop
      vertex 8.38974 -10.5 3
      vertex 9.03326 -10.0325 20
      vertex 8.38974 -10.5 20
    endloop
  endfacet
  facet normal 0.587785 -0.809017 0
    outer loop
      vertex 9.03326 -10.0325 20
      vertex 8.38974 -10.5 3
      vertex 9.03326 -10.0325 3
    endloop
  endfacet
  facet normal 0.406737 -0.913545 0
    outer loop
      vertex 4.17173 -12.8393 0
      vertex 6.05674 -12 20
      vertex 4.17173 -12.8393 20
    endloop
  endfacet
  facet normal 0.406737 -0.913545 0
    outer loop
      vertex 6.05674 -12 20
      vertex 4.17173 -12.8393 0
      vertex 6.05674 -12 0
    endloop
  endfacet
  facet normal 0.743145 -0.669131 0
    outer loop
      vertex 9.03326 -10.0325 20
      vertex 10.9217 -7.9351 3
      vertex 10.9217 -7.9351 20
    endloop
  endfacet
  facet normal 0.743145 -0.669131 0
    outer loop
      vertex 10.9217 -7.9351 3
      vertex 9.03326 -10.0325 20
      vertex 9.03326 -10.0325 3
    endloop
  endfacet
  facet normal -0.994522 -0.104528 0
    outer loop
      vertex -53.205 -2.80681 3
      vertex -53.5 1.65327e-15 20
      vertex -53.5 1.65327e-15 3
    endloop
  endfacet
  facet normal -0.994522 -0.104528 0
    outer loop
      vertex -53.5 1.65327e-15 20
      vertex -53.205 -2.80681 3
      vertex -53.205 -2.80681 20
    endloop
  endfacet
  facet normal 0 -1 0
    outer loop
      vertex -41.4111 -13.426 0
      vertex -40 -13.426 20
      vertex -41.4111 -13.426 20
    endloop
  endfacet
  facet normal 0 -1 -0
    outer loop
      vertex -40 -13.426 20
      vertex -41.4111 -13.426 0
      vertex -40 -13.426 0
    endloop
  endfacet
  facet normal 0 1 -0
    outer loop
      vertex -40 13.426 0
      vertex -41.4111 13.426 20
      vertex -40 13.426 20
    endloop
  endfacet
  facet normal 0 1 0
    outer loop
      vertex -41.4111 13.426 20
      vertex -40 13.426 0
      vertex -41.4111 13.426 0
    endloop
  endfacet
  facet normal -0.587783 -0.809018 0
    outer loop
      vertex -49.0333 -10.0325 3
      vertex -48.3897 -10.5 20
      vertex -49.0333 -10.0325 20
    endloop
  endfacet
  facet normal -0.587783 -0.809018 -0
    outer loop
      vertex -48.3897 -10.5 20
      vertex -49.0333 -10.0325 3
      vertex -48.3897 -10.5 3
    endloop
  endfacet
  facet normal -0.406737 -0.913545 0
    outer loop
      vertex -46.0567 -12 0
      vertex -44.1717 -12.8393 20
      vertex -46.0567 -12 20
    endloop
  endfacet
  facet normal -0.406737 -0.913545 -0
    outer loop
      vertex -44.1717 -12.8393 20
      vertex -46.0567 -12 0
      vertex -44.1717 -12.8393 0
    endloop
  endfacet
  facet normal 0 0 1
    outer loop
      vertex -40 13.426 20
      vertex -41.2021 11.437 20
      vertex -40 11.437 20
    endloop
  endfacet
  facet normal -0 0 1
    outer loop
      vertex -41.4111 13.426 20
      vertex -41.2021 11.437 20
      vertex -40 13.426 20
    endloop
  endfacet
  facet normal 0 0 1
    outer loop
      vertex -41.4111 13.426 20
      vertex -43.5537 10.9371 20
      vertex -41.2021 11.437 20
    endloop
  endfacet
  facet normal -0 0 1
    outer loop
      vertex -44.1717 12.8393 20
      vertex -43.5537 10.9371 20
      vertex -41.4111 13.426 20
    endloop
  endfacet
  facet normal -0 0 1
    outer loop
      vertex -46.0567 12 20
      vertex -43.5537 10.9371 20
      vertex -44.1717 12.8393 20
    endloop
  endfacet
  facet normal 0 0 1
    outer loop
      vertex -43.5537 10.9371 20
      vertex -46.0567 12 20
      vertex -45.75 9.95929 20
    endloop
  endfacet
  facet normal -0 0 1
    outer loop
      vertex -48.3897 10.5 20
      vertex -45.75 9.95929 20
      vertex -46.0567 12 20
    endloop
  endfacet
  facet normal 0 0 1
    outer loop
      vertex -45.75 9.95929 20
      vertex -48.3897 10.5 20
      vertex -47.695 8.54617 20
    endloop
  endfacet
  facet normal -0 0 1
    outer loop
      vertex -75.5 12 20
      vertex -48.3897 10.5 20
      vertex -46.0567 12 20
    endloop
  endfacet
  facet normal 0 0 1
    outer loop
      vertex -48.3897 10.5 20
      vertex -75.5 12 20
      vertex -75.5 10.5 20
    endloop
  endfacet
  facet normal -0 0 1
    outer loop
      vertex -49.0333 10.0325 20
      vertex -47.695 8.54617 20
      vertex -48.3897 10.5 20
    endloop
  endfacet
  facet normal 0 0 1
    outer loop
      vertex -49.0333 10.0325 20
      vertex -49.3037 6.75953 20
      vertex -47.695 8.54617 20
    endloop
  endfacet
  facet normal -0 0 1
    outer loop
      vertex -50.9217 7.9351 20
      vertex -49.3037 6.75953 20
      vertex -49.0333 10.0325 20
    endloop
  endfacet
  facet normal 0 0 1
    outer loop
      vertex -49.3037 6.75953 20
      vertex -50.9217 7.9351 20
      vertex -50.5058 4.67747 20
    endloop
  endfacet
  facet normal -0 0 1
    outer loop
      vertex -52.3329 5.49094 20
      vertex -50.5058 4.67747 20
      vertex -50.9217 7.9351 20
    endloop
  endfacet
  facet normal 0 0 1
    outer loop
      vertex -50.5058 4.67747 20
      vertex -52.3329 5.49094 20
      vertex -51.2487 2.39098 20
    endloop
  endfacet
  facet normal -0 0 1
    outer loop
      vertex -53.205 2.80681 20
      vertex -51.2487 2.39098 20
      vertex -52.3329 5.49094 20
    endloop
  endfacet
  facet normal 0 0 1
    outer loop
      vertex -47.695 -8.54617 20
      vertex -49.0333 -10.0325 20
      vertex -48.3897 -10.5 20
    endloop
  endfacet
  facet normal 0 0 1
    outer loop
      vertex -49.3037 -6.75953 20
      vertex -49.0333 -10.0325 20
      vertex -47.695 -8.54617 20
    endloop
  endfacet
  facet normal 0 0 1
    outer loop
      vertex -50.9217 -7.9351 20
      vertex -49.3037 -6.75953 20
      vertex -50.5058 -4.67747 20
    endloop
  endfacet
  facet normal 0 0 1
    outer loop
      vertex -49.3037 -6.75953 20
      vertex -50.9217 -7.9351 20
      vertex -49.0333 -10.0325 20
    endloop
  endfacet
  facet normal 0 0 1
    outer loop
      vertex -52.3329 -5.49094 20
      vertex -50.5058 -4.67747 20
      vertex -51.2487 -2.39098 20
    endloop
  endfacet
  facet normal 0 0 1
    outer loop
      vertex -53.205 -2.80681 20
      vertex -51.2487 -2.39098 20
      vertex -51.5 1.40834e-15 20
    endloop
  endfacet
  facet normal 0 0 1
    outer loop
      vertex -51.2487 2.39098 20
      vertex -53.205 2.80681 20
      vertex -51.5 1.40834e-15 20
    endloop
  endfacet
  facet normal 0 0 1
    outer loop
      vertex -50.5058 -4.67747 20
      vertex -52.3329 -5.49094 20
      vertex -50.9217 -7.9351 20
    endloop
  endfacet
  facet normal -0 0 1
    outer loop
      vertex -53.5 1.65327e-15 20
      vertex -51.5 1.40834e-15 20
      vertex -53.205 2.80681 20
    endloop
  endfacet
  facet normal 0 0 1
    outer loop
      vertex -51.2487 -2.39098 20
      vertex -53.205 -2.80681 20
      vertex -52.3329 -5.49094 20
    endloop
  endfacet
  facet normal 0 0 1
    outer loop
      vertex -51.5 1.40834e-15 20
      vertex -53.5 1.65327e-15 20
      vertex -53.205 -2.80681 20
    endloop
  endfacet
  facet normal -0 0 1
    outer loop
      vertex -41.2021 -11.437 20
      vertex -40 -13.426 20
      vertex -40 -11.437 20
    endloop
  endfacet
  facet normal 0 0 1
    outer loop
      vertex -41.2021 -11.437 20
      vertex -41.4111 -13.426 20
      vertex -40 -13.426 20
    endloop
  endfacet
  facet normal 0 0 1
    outer loop
      vertex -43.5537 -10.9371 20
      vertex -41.4111 -13.426 20
      vertex -41.2021 -11.437 20
    endloop
  endfacet
  facet normal 0 0 1
    outer loop
      vertex -43.5537 -10.9371 20
      vertex -44.1717 -12.8393 20
      vertex -41.4111 -13.426 20
    endloop
  endfacet
  facet normal 0 0 1
    outer loop
      vertex -46.0567 -12 20
      vertex -43.5537 -10.9371 20
      vertex -45.75 -9.95929 20
    endloop
  endfacet
  facet normal 0 0 1
    outer loop
      vertex -43.5537 -10.9371 20
      vertex -46.0567 -12 20
      vertex -44.1717 -12.8393 20
    endloop
  endfacet
  facet normal 0 0 1
    outer loop
      vertex -48.3897 -10.5 20
      vertex -45.75 -9.95929 20
      vertex -47.695 -8.54617 20
    endloop
  endfacet
  facet normal 0 0 1
    outer loop
      vertex -45.75 -9.95929 20
      vertex -48.3897 -10.5 20
      vertex -46.0567 -12 20
    endloop
  endfacet
  facet normal 0 0 1
    outer loop
      vertex -75.5 -12 20
      vertex -48.3897 -10.5 20
      vertex -75.5 -10.5 20
    endloop
  endfacet
  facet normal 0 0 1
    outer loop
      vertex -48.3897 -10.5 20
      vertex -75.5 -12 20
      vertex -46.0567 -12 20
    endloop
  endfacet
  facet normal -0.951057 0.309017 0
    outer loop
      vertex -53.205 2.80681 3
      vertex -52.3329 5.49094 20
      vertex -52.3329 5.49094 3
    endloop
  endfacet
  facet normal -0.951057 0.309017 0
    outer loop
      vertex -52.3329 5.49094 20
      vertex -53.205 2.80681 3
      vertex -53.205 2.80681 20
    endloop
  endfacet
  facet normal -0.866026 -0.5 0
    outer loop
      vertex -50.9217 -7.9351 3
      vertex -52.3329 -5.49094 20
      vertex -52.3329 -5.49094 3
    endloop
  endfacet
  facet normal -0.866026 -0.5 0
    outer loop
      vertex -52.3329 -5.49094 20
      vertex -50.9217 -7.9351 3
      vertex -50.9217 -7.9351 20
    endloop
  endfacet
  facet normal -0.951056 -0.309018 0
    outer loop
      vertex -52.3329 -5.49094 3
      vertex -53.205 -2.80681 20
      vertex -53.205 -2.80681 3
    endloop
  endfacet
  facet normal -0.951056 -0.309018 0
    outer loop
      vertex -53.205 -2.80681 20
      vertex -52.3329 -5.49094 3
      vertex -52.3329 -5.49094 20
    endloop
  endfacet
  facet normal -0.743145 -0.669131 0
    outer loop
      vertex -49.0333 -10.0325 3
      vertex -50.9217 -7.9351 20
      vertex -50.9217 -7.9351 3
    endloop
  endfacet
  facet normal -0.743145 -0.669131 0
    outer loop
      vertex -50.9217 -7.9351 20
      vertex -49.0333 -10.0325 3
      vertex -49.0333 -10.0325 20
    endloop
  endfacet
  facet normal -0.207911 -0.978148 0
    outer loop
      vertex -44.1717 -12.8393 0
      vertex -41.4111 -13.426 20
      vertex -44.1717 -12.8393 20
    endloop
  endfacet
  facet normal -0.207911 -0.978148 -0
    outer loop
      vertex -41.4111 -13.426 20
      vertex -44.1717 -12.8393 0
      vertex -41.4111 -13.426 0
    endloop
  endfacet
  facet normal -0.994522 0.104529 0
    outer loop
      vertex -53.5 1.65327e-15 3
      vertex -53.205 2.80681 20
      vertex -53.205 2.80681 3
    endloop
  endfacet
  facet normal -0.994522 0.104529 0
    outer loop
      vertex -53.205 2.80681 20
      vertex -53.5 1.65327e-15 3
      vertex -53.5 1.65327e-15 20
    endloop
  endfacet
  facet normal -0.207911 0.978148 0
    outer loop
      vertex -41.4111 13.426 0
      vertex -44.1717 12.8393 20
      vertex -41.4111 13.426 20
    endloop
  endfacet
  facet normal -0.207911 0.978148 0
    outer loop
      vertex -44.1717 12.8393 20
      vertex -41.4111 13.426 0
      vertex -44.1717 12.8393 0
    endloop
  endfacet
  facet normal -0.866026 0.5 0
    outer loop
      vertex -52.3329 5.49094 3
      vertex -50.9217 7.9351 20
      vertex -50.9217 7.9351 3
    endloop
  endfacet
  facet normal -0.866026 0.5 0
    outer loop
      vertex -50.9217 7.9351 20
      vertex -52.3329 5.49094 3
      vertex -52.3329 5.49094 20
    endloop
  endfacet
  facet normal -0.587786 0.809017 0
    outer loop
      vertex -48.3897 10.5 3
      vertex -49.0333 10.0325 20
      vertex -48.3897 10.5 20
    endloop
  endfacet
  facet normal -0.587786 0.809017 0
    outer loop
      vertex -49.0333 10.0325 20
      vertex -48.3897 10.5 3
      vertex -49.0333 10.0325 3
    endloop
  endfacet
  facet normal -0.406737 0.913545 0
    outer loop
      vertex -44.1717 12.8393 0
      vertex -46.0567 12 20
      vertex -44.1717 12.8393 20
    endloop
  endfacet
  facet normal -0.406737 0.913545 0
    outer loop
      vertex -46.0567 12 20
      vertex -44.1717 12.8393 0
      vertex -46.0567 12 0
    endloop
  endfacet
  facet normal -0.743144 0.669131 0
    outer loop
      vertex -50.9217 7.9351 3
      vertex -49.0333 10.0325 20
      vertex -49.0333 10.0325 3
    endloop
  endfacet
  facet normal -0.743144 0.669131 0
    outer loop
      vertex -49.0333 10.0325 20
      vertex -50.9217 7.9351 3
      vertex -50.9217 7.9351 20
    endloop
  endfacet
  facet normal 1 0 0
    outer loop
      vertex 25.5 -10.5 20
      vertex 25.5 -12 20
      vertex 25.5 -10.5 3
    endloop
  endfacet
  facet normal 1 0 0
    outer loop
      vertex 25.5 10.5 3
      vertex 25.5 12 20
      vertex 25.5 10.5 20
    endloop
  endfacet
  facet normal 1 0 0
    outer loop
      vertex 25.5 12 20
      vertex 25.5 10.5 3
      vertex 25.5 12 0
    endloop
  endfacet
  facet normal 1 -0 0
    outer loop
      vertex 25.5 -10.5 3
      vertex 25.5 12 0
      vertex 25.5 10.5 3
    endloop
  endfacet
  facet normal 1 0 0
    outer loop
      vertex 25.5 -10.5 3
      vertex 25.5 -12 0
      vertex 25.5 12 0
    endloop
  endfacet
  facet normal 1 0 0
    outer loop
      vertex 25.5 -12 0
      vertex 25.5 -10.5 3
      vertex 25.5 -12 20
    endloop
  endfacet
  facet normal 0 1 -0
    outer loop
      vertex 25.5 12 0
      vertex 6.05674 12 20
      vertex 25.5 12 20
    endloop
  endfacet
  facet normal 0 1 0
    outer loop
      vertex 6.05674 12 20
      vertex 25.5 12 0
      vertex 6.05674 12 0
    endloop
  endfacet
  facet normal 0 -1 0
    outer loop
      vertex 6.05674 -12 0
      vertex 25.5 -12 20
      vertex 6.05674 -12 20
    endloop
  endfacet
  facet normal 0 -1 -0
    outer loop
      vertex 25.5 -12 20
      vertex 6.05674 -12 0
      vertex 25.5 -12 0
    endloop
  endfacet
  facet normal 0 -1 0
    outer loop
      vertex 8.38974 10.5 3
      vertex 25.5 10.5 20
      vertex 8.38974 10.5 20
    endloop
  endfacet
  facet normal 0 -1 -0
    outer loop
      vertex 25.5 10.5 20
      vertex 8.38974 10.5 3
      vertex 25.5 10.5 3
    endloop
  endfacet
  facet normal 0 0 1
    outer loop
      vertex 25.5 10.5 3
      vertex 13.5 0 3
      vertex 25.5 -10.5 3
    endloop
  endfacet
  facet normal 0 0 1
    outer loop
      vertex 25.5 10.5 3
      vertex 13.205 2.80681 3
      vertex 13.5 0 3
    endloop
  endfacet
  facet normal 0 0 1
    outer loop
      vertex 25.5 10.5 3
      vertex 12.3329 5.49094 3
      vertex 13.205 2.80681 3
    endloop
  endfacet
  facet normal 0 0 1
    outer loop
      vertex 25.5 10.5 3
      vertex 10.9217 7.9351 3
      vertex 12.3329 5.49094 3
    endloop
  endfacet
  facet normal 0 0 1
    outer loop
      vertex 25.5 10.5 3
      vertex 9.03326 10.0325 3
      vertex 10.9217 7.9351 3
    endloop
  endfacet
  facet normal 0 -0 1
    outer loop
      vertex 9.03326 10.0325 3
      vertex 25.5 10.5 3
      vertex 8.38974 10.5 3
    endloop
  endfacet
  facet normal -0 0 1
    outer loop
      vertex 13.205 -2.80681 3
      vertex 25.5 -10.5 3
      vertex 13.5 0 3
    endloop
  endfacet
  facet normal -0 0 1
    outer loop
      vertex 12.3329 -5.49094 3
      vertex 25.5 -10.5 3
      vertex 13.205 -2.80681 3
    endloop
  endfacet
  facet normal -0 0 1
    outer loop
      vertex 10.9217 -7.9351 3
      vertex 25.5 -10.5 3
      vertex 12.3329 -5.49094 3
    endloop
  endfacet
  facet normal -0 0 1
    outer loop
      vertex 9.03326 -10.0325 3
      vertex 25.5 -10.5 3
      vertex 10.9217 -7.9351 3
    endloop
  endfacet
  facet normal 0 0 1
    outer loop
      vertex 25.5 -10.5 3
      vertex 9.03326 -10.0325 3
      vertex 8.38974 -10.5 3
    endloop
  endfacet
  facet normal 0 1 -0
    outer loop
      vertex 25.5 -10.5 3
      vertex 8.38974 -10.5 20
      vertex 25.5 -10.5 20
    endloop
  endfacet
  facet normal 0 1 0
    outer loop
      vertex 8.38974 -10.5 20
      vertex 25.5 -10.5 3
      vertex 8.38974 -10.5 3
    endloop
  endfacet
  facet normal -0.994522 -0.104529 0
    outer loop
      vertex 11.5 0 2
      vertex 11.2487 2.39098 3
      vertex 11.2487 2.39098 2
    endloop
  endfacet
  facet normal -0.994522 -0.104529 0
    outer loop
      vertex 11.2487 2.39098 3
      vertex 11.5 0 2
      vertex 11.5 0 3
    endloop
  endfacet
  facet normal -0.994522 0.104529 0
    outer loop
      vertex 11.2487 -2.39098 2
      vertex 11.5 0 3
      vertex 11.5 0 2
    endloop
  endfacet
  facet normal -0.994522 0.104529 0
    outer loop
      vertex 11.5 0 3
      vertex 11.2487 -2.39098 2
      vertex 11.2487 -2.39098 3
    endloop
  endfacet
  facet normal -1 0 0
    outer loop
      vertex -75.5 12 0
      vertex -75.5 10.5 3
      vertex -75.5 12 20
    endloop
  endfacet
  facet normal -1 0 0
    outer loop
      vertex -75.5 12 0
      vertex -75.5 -10.5 3
      vertex -75.5 10.5 3
    endloop
  endfacet
  facet normal -1 0 0
    outer loop
      vertex -75.5 -12 0
      vertex -75.5 -10.5 3
      vertex -75.5 12 0
    endloop
  endfacet
  facet normal -1 0 0
    outer loop
      vertex -75.5 -12 20
      vertex -75.5 -10.5 3
      vertex -75.5 -12 0
    endloop
  endfacet
  facet normal -1 0 0
    outer loop
      vertex -75.5 -10.5 3
      vertex -75.5 -12 20
      vertex -75.5 -10.5 20
    endloop
  endfacet
  facet normal -1 -0 0
    outer loop
      vertex -75.5 12 20
      vertex -75.5 10.5 3
      vertex -75.5 10.5 20
    endloop
  endfacet
  facet normal 0 1 -0
    outer loop
      vertex -46.0567 12 0
      vertex -75.5 12 20
      vertex -46.0567 12 20
    endloop
  endfacet
  facet normal 0 1 0
    outer loop
      vertex -75.5 12 20
      vertex -46.0567 12 0
      vertex -75.5 12 0
    endloop
  endfacet
  facet normal 0 -1 0
    outer loop
      vertex -75.5 -12 0
      vertex -46.0567 -12 20
      vertex -75.5 -12 20
    endloop
  endfacet
  facet normal 0 -1 -0
    outer loop
      vertex -46.0567 -12 20
      vertex -75.5 -12 0
      vertex -46.0567 -12 0
    endloop
  endfacet
  facet normal 0 1 -0
    outer loop
      vertex -48.3897 -10.5 3
      vertex -75.5 -10.5 20
      vertex -48.3897 -10.5 20
    endloop
  endfacet
  facet normal 0 1 0
    outer loop
      vertex -75.5 -10.5 20
      vertex -48.3897 -10.5 3
      vertex -75.5 -10.5 3
    endloop
  endfacet
  facet normal 0 0 1
    outer loop
      vertex -53.205 2.80681 3
      vertex -75.5 10.5 3
      vertex -53.5 1.65327e-15 3
    endloop
  endfacet
  facet normal 0 0 1
    outer loop
      vertex -52.3329 5.49094 3
      vertex -75.5 10.5 3
      vertex -53.205 2.80681 3
    endloop
  endfacet
  facet normal 0 0 1
    outer loop
      vertex -50.9217 7.9351 3
      vertex -75.5 10.5 3
      vertex -52.3329 5.49094 3
    endloop
  endfacet
  facet normal 0 0 1
    outer loop
      vertex -49.0333 10.0325 3
      vertex -75.5 10.5 3
      vertex -50.9217 7.9351 3
    endloop
  endfacet
  facet normal -0 0 1
    outer loop
      vertex -75.5 10.5 3
      vertex -49.0333 10.0325 3
      vertex -48.3897 10.5 3
    endloop
  endfacet
  facet normal 0 0 1
    outer loop
      vertex -75.5 -10.5 3
      vertex -53.5 1.65327e-15 3
      vertex -75.5 10.5 3
    endloop
  endfacet
  facet normal 0 0 1
    outer loop
      vertex -53.5 1.65327e-15 3
      vertex -75.5 -10.5 3
      vertex -53.205 -2.80681 3
    endloop
  endfacet
  facet normal 0 0 1
    outer loop
      vertex -53.205 -2.80681 3
      vertex -75.5 -10.5 3
      vertex -52.3329 -5.49094 3
    endloop
  endfacet
  facet normal 0 0 1
    outer loop
      vertex -52.3329 -5.49094 3
      vertex -75.5 -10.5 3
      vertex -50.9217 -7.9351 3
    endloop
  endfacet
  facet normal 0 0 1
    outer loop
      vertex -49.0333 -10.0325 3
      vertex -75.5 -10.5 3
      vertex -48.3897 -10.5 3
    endloop
  endfacet
  facet normal 0 0 1
    outer loop
      vertex -50.9217 -7.9351 3
      vertex -75.5 -10.5 3
      vertex -49.0333 -10.0325 3
    endloop
  endfacet
  facet normal -0 0 1
    outer loop
      vertex -51.5 1.40834e-15 3
      vertex -51.2487 -2.39098 3
      vertex -51.5 3.85764e-15 3
    endloop
  endfacet
  facet normal 0 -1 0
    outer loop
      vertex -75.5 10.5 3
      vertex -48.3897 10.5 20
      vertex -75.5 10.5 20
    endloop
  endfacet
  facet normal 0 -1 -0
    outer loop
      vertex -48.3897 10.5 20
      vertex -75.5 10.5 3
      vertex -48.3897 10.5 3
    endloop
  endfacet
  facet normal 0.994522 0.104529 0
    outer loop
      vertex -51.2487 -2.39098 3
      vertex -51.5 3.85764e-15 2
      vertex -51.5 3.85764e-15 3
    endloop
  endfacet
  facet normal 0.994522 0.104529 0
    outer loop
      vertex -51.5 3.85764e-15 2
      vertex -51.2487 -2.39098 3
      vertex -51.2487 -2.39098 2
    endloop
  endfacet
  facet normal 0.994522 -0.104529 0
    outer loop
      vertex -51.5 1.57473e-08 3
      vertex -51.2487 2.39098 2
      vertex -51.2487 2.39098 3
    endloop
  endfacet
  facet normal 0.994522 -0.104529 0
    outer loop
      vertex -51.2487 2.39098 2
      vertex -51.5 1.57473e-08 3
      vertex -51.5 1.57473e-08 2
    endloop
  endfacet
  facet normal -1 0 0
    outer loop
      vertex -50 30 0
      vertex -50 129.845 1.216
      vertex -50 129.845 0
    endloop
  endfacet
  facet normal -1 -0 0
    outer loop
      vertex -50 129.845 1.216
      vertex -50 30 0
      vertex -50 30 1.216
    endloop
  endfacet
  facet normal -0 0 1
    outer loop
      vertex -35.8422 128.357 1.216
      vertex -32.5 30 1.216
      vertex -32.5 129.845 1.216
    endloop
  endfacet
  facet normal -0 0 1
    outer loop
      vertex -39.4208 127.596 1.216
      vertex -32.5 30 1.216
      vertex -35.8422 128.357 1.216
    endloop
  endfacet
  facet normal -0 0 1
    outer loop
      vertex -43.0792 127.596 1.216
      vertex -32.5 30 1.216
      vertex -39.4208 127.596 1.216
    endloop
  endfacet
  facet normal 0 0 1
    outer loop
      vertex -50 30 1.216
      vertex -43.0792 127.596 1.216
      vertex -46.6578 128.357 1.216
    endloop
  endfacet
  facet normal 0 0 1
    outer loop
      vertex -50 30 1.216
      vertex -46.6578 128.357 1.216
      vertex -50 129.845 1.216
    endloop
  endfacet
  facet normal 0 0 1
    outer loop
      vertex -43.0792 127.596 1.216
      vertex -50 30 1.216
      vertex -32.5 30 1.216
    endloop
  endfacet
  facet normal 1 -0 0
    outer loop
      vertex -32.5 30 1.216
      vertex -32.5 129.845 0
      vertex -32.5 129.845 1.216
    endloop
  endfacet
  facet normal 1 0 0
    outer loop
      vertex -32.5 129.845 0
      vertex -32.5 30 1.216
      vertex -32.5 30 0
    endloop
  endfacet
  facet normal 0 0 -1
    outer loop
      vertex -32.5 30 0
      vertex -35.8422 128.357 0
      vertex -32.5 129.845 0
    endloop
  endfacet
  facet normal 0 0 -1
    outer loop
      vertex -32.5 30 0
      vertex -39.4208 127.596 0
      vertex -35.8422 128.357 0
    endloop
  endfacet
  facet normal 0 0 -1
    outer loop
      vertex -32.5 30 0
      vertex -43.0792 127.596 0
      vertex -39.4208 127.596 0
    endloop
  endfacet
  facet normal 0 0 -1
    outer loop
      vertex -50 30 0
      vertex -43.0792 127.596 0
      vertex -32.5 30 0
    endloop
  endfacet
  facet normal -0 0 -1
    outer loop
      vertex -43.0792 127.596 0
      vertex -50 30 0
      vertex -46.6578 128.357 0
    endloop
  endfacet
  facet normal -0 0 -1
    outer loop
      vertex -46.6578 128.357 0
      vertex -50 30 0
      vertex -50 129.845 0
    endloop
  endfacet
  facet normal 0 -1 0
    outer loop
      vertex -50 30 0
      vertex -32.5 30 1.216
      vertex -50 30 1.216
    endloop
  endfacet
  facet normal 0 -1 -0
    outer loop
      vertex -32.5 30 1.216
      vertex -50 30 0
      vertex -32.5 30 0
    endloop
  endfacet
  facet normal 0.406739 0.913545 -0
    outer loop
      vertex -46.6578 128.357 0
      vertex -50 129.845 1.216
      vertex -46.6578 128.357 1.216
    endloop
  endfacet
  facet normal 0.406739 0.913545 0
    outer loop
      vertex -50 129.845 1.216
      vertex -46.6578 128.357 0
      vertex -50 129.845 0
    endloop
  endfacet
  facet normal -0.406739 0.913545 0
    outer loop
      vertex -32.5 129.845 0
      vertex -35.8422 128.357 1.216
      vertex -32.5 129.845 1.216
    endloop
  endfacet
  facet normal -0.406739 0.913545 0
    outer loop
      vertex -35.8422 128.357 1.216
      vertex -32.5 129.845 0
      vertex -35.8422 128.357 0
    endloop
  endfacet
  facet normal 0.207911 0.978148 -0
    outer loop
      vertex -43.0792 127.596 0
      vertex -46.6578 128.357 1.216
      vertex -43.0792 127.596 1.216
    endloop
  endfacet
  facet normal 0.207911 0.978148 0
    outer loop
      vertex -46.6578 128.357 1.216
      vertex -43.0792 127.596 0
      vertex -46.6578 128.357 0
    endloop
  endfacet
  facet normal -0.207911 0.978148 0
    outer loop
      vertex -35.8422 128.357 0
      vertex -39.4208 127.596 1.216
      vertex -35.8422 128.357 1.216
    endloop
  endfacet
  facet normal -0.207911 0.978148 0
    outer loop
      vertex -39.4208 127.596 1.216
      vertex -35.8422 128.357 0
      vertex -39.4208 127.596 0
    endloop
  endfacet
  facet normal 0 1 -0
    outer loop
      vertex -39.4208 127.596 0
      vertex -43.0792 127.596 1.216
      vertex -39.4208 127.596 1.216
    endloop
  endfacet
  facet normal 0 1 0
    outer loop
      vertex -43.0792 127.596 1.216
      vertex -39.4208 127.596 0
      vertex -43.0792 127.596 0
    endloop
  endfacet
endsolid OpenSCAD_Model
